<!-- harbour:mermaid-source-sha256=17dda45e7eff8367c42b2f6239fb7ad2142c9a005c9072790ffb9e49f23663dd -->
<svg id="my-svg" width="100%" xmlns="http://www.w3.org/2000/svg" xmlns:xlink="http://www.w3.org/1999/xlink" class="flowchart" style="max-width: 848.047px; background-color: transparent;" viewBox="0 0 848.04736328125 178.5" role="graphics-document document" aria-roledescription="flowchart-v2" aria-describedby="chart-desc-my-svg" aria-labelledby="chart-title-my-svg"><title id="chart-title-my-svg">Harbour workspace lifecycle</title><desc id="chart-desc-my-svg">An absent workspace enters preparing and then ready. Preparing can fail. Ready or failed workspaces enter tearing down, which returns them to absent.</desc><style>#my-svg{font-family:Arial,sans-serif;font-size:15px;fill:#1b1b18;}@keyframes edge-animation-frame{from{stroke-dashoffset:0;}}@keyframes dash{to{stroke-dashoffset:0;}}#my-svg .edge-animation-slow{stroke-dasharray:9,5;stroke-dashoffset:900;animation:dash 50s linear infinite;stroke-linecap:round;}#my-svg .edge-animation-fast{stroke-dasharray:9,5;stroke-dashoffset:900;animation:dash 20s linear infinite;stroke-linecap:round;}#my-svg .error-icon{fill:#f7f7f5;}#my-svg .error-text{fill:#08080a;stroke:#08080a;}#my-svg .edge-thickness-normal{stroke-width:1px;}#my-svg .edge-thickness-thick{stroke-width:3.5px;}#my-svg .edge-pattern-solid{stroke-dasharray:0;}#my-svg .edge-thickness-invisible{stroke-width:0;fill:none;}#my-svg .edge-pattern-dashed{stroke-dasharray:3;}#my-svg .edge-pattern-dotted{stroke-dasharray:2;}#my-svg .marker{fill:#a8a8a4;stroke:#a8a8a4;}#my-svg .marker.cross{stroke:#a8a8a4;}#my-svg svg{font-family:Arial,sans-serif;font-size:15px;}#my-svg p{margin:0;}#my-svg .label{font-family:Arial,sans-serif;color:#1b1b18;}#my-svg .cluster-label text{fill:#08080a;}#my-svg .cluster-label span{color:#08080a;}#my-svg .cluster-label span p{background-color:transparent;}#my-svg .label text,#my-svg span{fill:#1b1b18;color:#1b1b18;}#my-svg .node rect,#my-svg .node circle,#my-svg .node ellipse,#my-svg .node polygon,#my-svg .node path{fill:#fff7f5;stroke:#f53003;stroke-width:1px;}#my-svg .rough-node .label text,#my-svg .node .label text,#my-svg .image-shape .label,#my-svg .icon-shape .label{text-anchor:middle;}#my-svg .node .katex path{fill:#000;stroke:#000;stroke-width:1px;}#my-svg .rough-node .label,#my-svg .node .label,#my-svg .image-shape .label,#my-svg .icon-shape .label{text-align:center;}#my-svg .node.clickable{cursor:pointer;}#my-svg .root .anchor path{fill:#a8a8a4;stroke-width:0;stroke:#a8a8a4;}#my-svg .arrowheadPath{fill:#000000;}#my-svg .edgePaths .path{stroke:#a8a8a4;stroke-width:1px;}#my-svg .flowchart-link{stroke:#a8a8a4;fill:none;}#my-svg .edgeLabel{background-color:#ffffff;text-align:center;}#my-svg .edgeLabel p{background-color:#ffffff;}#my-svg .edgeLabel rect{opacity:0.5;background-color:#ffffff;fill:#ffffff;}#my-svg .labelBkg{background-color:rgba(255, 255, 255, 0.5);}#my-svg .cluster rect{fill:#fdfdfc;stroke:#e3e3e0;stroke-width:1px;}#my-svg .cluster text{fill:#08080a;}#my-svg .cluster span{color:#08080a;}#my-svg .node .collapsed-indicator{fill:#e3e3e0;stroke:none;opacity:0.6;}#my-svg .node .collapsed-separator{stroke:#e3e3e0;stroke-width:0.75px;}#my-svg div.mermaidTooltip{position:absolute;text-align:center;max-width:200px;padding:2px;font-family:Arial,sans-serif;font-size:12px;background:#f7f7f5;border:1px solid hsl(60, 0%, 86.4705882353%);border-radius:2px;pointer-events:none;z-index:100;}#my-svg .flowchartTitleText{text-anchor:middle;font-size:18px;fill:#1b1b18;}#my-svg rect.text{fill:none;stroke-width:0;}#my-svg .icon-shape,#my-svg .image-shape{background-color:#ffffff;text-align:center;}#my-svg .icon-shape p,#my-svg .image-shape p{background-color:#ffffff;padding:2px;}#my-svg .icon-shape .label rect,#my-svg .image-shape .label rect{opacity:0.5;background-color:#ffffff;fill:#ffffff;}#my-svg .label-icon{display:inline-block;height:1em;overflow:visible;vertical-align:-0.125em;}#my-svg .node .label-icon path{fill:currentColor;stroke:revert;stroke-width:revert;}#my-svg .node .neo-node{stroke:#f53003;}#my-svg [data-look="neo"].node rect,#my-svg [data-look="neo"].cluster rect,#my-svg [data-look="neo"].node polygon{stroke:url(#my-svg-gradient);filter:drop-shadow( 1px 2px 2px rgba(185,185,185,1));}#my-svg [data-look="neo"].swimlane.cluster rect{filter:none;}#my-svg [data-look="neo"].node path{stroke:url(#my-svg-gradient);stroke-width:1px;}#my-svg [data-look="neo"].node .outer-path{filter:drop-shadow( 1px 2px 2px rgba(185,185,185,1));}#my-svg [data-look="neo"].node .neo-line path{stroke:#f53003;filter:none;}#my-svg [data-look="neo"].node circle{stroke:url(#my-svg-gradient);filter:drop-shadow( 1px 2px 2px rgba(185,185,185,1));}#my-svg [data-look="neo"].node circle .state-start{fill:#000000;}#my-svg [data-look="neo"].icon-shape .icon{fill:url(#my-svg-gradient);filter:drop-shadow( 1px 2px 2px rgba(185,185,185,1));}#my-svg [data-look="neo"].icon-shape .icon-neo path{stroke:url(#my-svg-gradient);filter:drop-shadow( 1px 2px 2px rgba(185,185,185,1));}#my-svg :root{--mermaid-font-family:Arial,sans-serif;}#my-svg .neutral rect{fill:rgb(255, 255, 255);stroke:rgb(168, 168, 164);color:rgb(112, 111, 108);stroke-width:1.5px;}#my-svg .neutral polygon{fill:rgb(255, 255, 255);stroke:rgb(168, 168, 164);color:rgb(112, 111, 108);stroke-width:1.5px;}#my-svg .neutral ellipse{fill:rgb(255, 255, 255);stroke:rgb(168, 168, 164);color:rgb(112, 111, 108);stroke-width:1.5px;}#my-svg .neutral circle{fill:rgb(255, 255, 255);stroke:rgb(168, 168, 164);color:rgb(112, 111, 108);stroke-width:1.5px;}#my-svg .neutral path{fill:rgb(255, 255, 255);stroke:rgb(168, 168, 164);color:rgb(112, 111, 108);stroke-width:1.5px;}#my-svg .neutral tspan{fill:rgb(112, 111, 108);}#my-svg .active rect{fill:rgb(255, 247, 245);stroke:rgb(245, 48, 3);color:rgb(27, 27, 24);stroke-width:2px;}#my-svg .active polygon{fill:rgb(255, 247, 245);stroke:rgb(245, 48, 3);color:rgb(27, 27, 24);stroke-width:2px;}#my-svg .active ellipse{fill:rgb(255, 247, 245);stroke:rgb(245, 48, 3);color:rgb(27, 27, 24);stroke-width:2px;}#my-svg .active circle{fill:rgb(255, 247, 245);stroke:rgb(245, 48, 3);color:rgb(27, 27, 24);stroke-width:2px;}#my-svg .active path{fill:rgb(255, 247, 245);stroke:rgb(245, 48, 3);color:rgb(27, 27, 24);stroke-width:2px;}#my-svg .active tspan{fill:rgb(27, 27, 24);}#my-svg .ready rect{fill:rgb(245, 48, 3);stroke:rgb(214, 42, 0);color:rgb(255, 255, 255);stroke-width:2.5px;}#my-svg .ready polygon{fill:rgb(245, 48, 3);stroke:rgb(214, 42, 0);color:rgb(255, 255, 255);stroke-width:2.5px;}#my-svg .ready ellipse{fill:rgb(245, 48, 3);stroke:rgb(214, 42, 0);color:rgb(255, 255, 255);stroke-width:2.5px;}#my-svg .ready circle{fill:rgb(245, 48, 3);stroke:rgb(214, 42, 0);color:rgb(255, 255, 255);stroke-width:2.5px;}#my-svg .ready path{fill:rgb(245, 48, 3);stroke:rgb(214, 42, 0);color:rgb(255, 255, 255);stroke-width:2.5px;}#my-svg .ready tspan{fill:rgb(255, 255, 255);}#my-svg .failure rect{fill:rgb(27, 27, 24);stroke:rgb(27, 27, 24);color:rgb(255, 255, 255);stroke-width:2px;}#my-svg .failure polygon{fill:rgb(27, 27, 24);stroke:rgb(27, 27, 24);color:rgb(255, 255, 255);stroke-width:2px;}#my-svg .failure ellipse{fill:rgb(27, 27, 24);stroke:rgb(27, 27, 24);color:rgb(255, 255, 255);stroke-width:2px;}#my-svg .failure circle{fill:rgb(27, 27, 24);stroke:rgb(27, 27, 24);color:rgb(255, 255, 255);stroke-width:2px;}#my-svg .failure path{fill:rgb(27, 27, 24);stroke:rgb(27, 27, 24);color:rgb(255, 255, 255);stroke-width:2px;}#my-svg .failure tspan{fill:rgb(255, 255, 255);}</style><g><marker id="my-svg_flowchart-v2-pointEnd" class="marker flowchart-v2" viewBox="0 0 10 10" refX="5" refY="5" markerUnits="userSpaceOnUse" markerWidth="8" markerHeight="8" orient="auto"><path d="M 0 0 L 10 5 L 0 10 z" class="arrowMarkerPath" style="stroke-width: 1; stroke-dasharray: 1, 0;"/></marker><marker id="my-svg_flowchart-v2-pointStart" class="marker flowchart-v2" viewBox="0 0 10 10" refX="4.5" refY="5" markerUnits="userSpaceOnUse" markerWidth="8" markerHeight="8" orient="auto"><path d="M 0 5 L 10 10 L 10 0 z" class="arrowMarkerPath" style="stroke-width: 1; stroke-dasharray: 1, 0;"/></marker><marker id="my-svg_flowchart-v2-pointEnd-margin" class="marker flowchart-v2" viewBox="0 0 11.5 14" refX="11.5" refY="7" markerUnits="userSpaceOnUse" markerWidth="10.5" markerHeight="14" orient="auto"><path d="M 0 0 L 11.5 7 L 0 14 z" class="arrowMarkerPath" style="stroke-width: 0; stroke-dasharray: 1, 0;"/></marker><marker id="my-svg_flowchart-v2-pointStart-margin" class="marker flowchart-v2" viewBox="0 0 11.5 14" refX="1" refY="7" markerUnits="userSpaceOnUse" markerWidth="11.5" markerHeight="14" orient="auto"><polygon points="0,7 11.5,14 11.5,0" class="arrowMarkerPath" style="stroke-width: 0; stroke-dasharray: 1, 0;"/></marker><marker id="my-svg_flowchart-v2-circleEnd" class="marker flowchart-v2" viewBox="0 0 10 10" refX="11" refY="5" markerUnits="userSpaceOnUse" markerWidth="11" markerHeight="11" orient="auto"><circle cx="5" cy="5" r="5" class="arrowMarkerPath" style="stroke-width: 1; stroke-dasharray: 1, 0;"/></marker><marker id="my-svg_flowchart-v2-circleStart" class="marker flowchart-v2" viewBox="0 0 10 10" refX="-1" refY="5" markerUnits="userSpaceOnUse" markerWidth="11" markerHeight="11" orient="auto"><circle cx="5" cy="5" r="5" class="arrowMarkerPath" style="stroke-width: 1; stroke-dasharray: 1, 0;"/></marker><marker id="my-svg_flowchart-v2-circleEnd-margin" class="marker flowchart-v2" viewBox="0 0 10 10" refY="5" refX="12.25" markerUnits="userSpaceOnUse" markerWidth="14" markerHeight="14" orient="auto"><circle cx="5" cy="5" r="5" class="arrowMarkerPath" style="stroke-width: 0; stroke-dasharray: 1, 0;"/></marker><marker id="my-svg_flowchart-v2-circleStart-margin" class="marker flowchart-v2" viewBox="0 0 10 10" refX="-2" refY="5" markerUnits="userSpaceOnUse" markerWidth="14" markerHeight="14" orient="auto"><circle cx="5" cy="5" r="5" class="arrowMarkerPath" style="stroke-width: 0; stroke-dasharray: 1, 0;"/></marker><marker id="my-svg_flowchart-v2-crossEnd" class="marker cross flowchart-v2" viewBox="0 0 11 11" refX="12" refY="5.2" markerUnits="userSpaceOnUse" markerWidth="11" markerHeight="11" orient="auto"><path d="M 1,1 l 9,9 M 10,1 l -9,9" class="arrowMarkerPath" style="stroke-width: 2; stroke-dasharray: 1, 0;"/></marker><marker id="my-svg_flowchart-v2-crossStart" class="marker cross flowchart-v2" viewBox="0 0 11 11" refX="-1" refY="5.2" markerUnits="userSpaceOnUse" markerWidth="11" markerHeight="11" orient="auto"><path d="M 1,1 l 9,9 M 10,1 l -9,9" class="arrowMarkerPath" style="stroke-width: 2; stroke-dasharray: 1, 0;"/></marker><marker id="my-svg_flowchart-v2-crossEnd-margin" class="marker cross flowchart-v2" viewBox="0 0 15 15" refX="17.7" refY="7.5" markerUnits="userSpaceOnUse" markerWidth="12" markerHeight="12" orient="auto"><path d="M 1,1 L 14,14 M 1,14 L 14,1" class="arrowMarkerPath" style="stroke-width: 2.5;"/></marker><marker id="my-svg_flowchart-v2-crossStart-margin" class="marker cross flowchart-v2" viewBox="0 0 15 15" refX="-3.5" refY="7.5" markerUnits="userSpaceOnUse" markerWidth="12" markerHeight="12" orient="auto"><path d="M 1,1 L 14,14 M 1,14 L 14,1" class="arrowMarkerPath" style="stroke-width: 2.5; stroke-dasharray: 1, 0;"/></marker><g class="root"><g class="clusters"/><g class="edgePaths"><path d="M85.532,83.518L99.829,80.39C114.125,77.262,142.719,71.006,170.646,67.878C198.573,64.75,225.834,64.75,239.464,64.75L253.094,64.75" id="my-svg-L_absent_preparing_0" class="edge-thickness-normal edge-pattern-solid edge-thickness-normal edge-pattern-solid flowchart-link" style="stroke:#f53003;stroke-width:2px;fill:none;;;stroke:#f53003;stroke-width:2px;fill:none" data-edge="true" data-et="edge" data-id="L_absent_preparing_0" data-points="W3sieCI6ODUuNTMxNzM4MjgxMjUsInkiOjgzLjUxODMxMDk3MDQxMDM3fSx7IngiOjE3MS4zMTI5ODgyODEyNSwieSI6NjQuNzV9LHsieCI6MjU3LjA5NDIzODI4MTI1LCJ5Ijo2NC43NX1d" data-look="classic" marker-end="url(#my-svg_flowchart-v2-pointEnd__f53003)"/><path d="M352.141,50.57L366.982,46.142C381.823,41.713,411.506,32.857,440.939,28.508C470.373,24.159,499.558,24.319,514.151,24.398L528.743,24.478" id="my-svg-L_preparing_ready_0" class="edge-thickness-normal edge-pattern-solid edge-thickness-normal edge-pattern-solid flowchart-link" style="stroke:#f53003;stroke-width:2px;fill:none;;;stroke:#f53003;stroke-width:2px;fill:none" data-edge="true" data-et="edge" data-id="L_preparing_ready_0" data-points="W3sieCI6MzUyLjE0MTExMzI4MTI1LCJ5Ijo1MC41Njk5MDQ0Njc3MDc4fSx7IngiOjQ0MS4xODc5ODgyODEyNSwieSI6MjR9LHsieCI6NTMyLjc0MzA4Mzk1Mzg1ODksInkiOjI0LjV9XQ==" data-look="classic" marker-end="url(#my-svg_flowchart-v2-pointEnd__f53003)"/><path d="M352.141,78.93L366.982,83.358C381.823,87.787,411.506,96.643,440.521,101.072C469.537,105.5,497.886,105.5,512.06,105.5L526.235,105.5" id="my-svg-L_preparing_failed_0" class="edge-thickness-normal edge-pattern-solid edge-thickness-normal edge-pattern-solid flowchart-link" style="stroke:#1b1b18;stroke-width:2px;fill:none;;;stroke:#1b1b18;stroke-width:2px;fill:none" data-edge="true" data-et="edge" data-id="L_preparing_failed_0" data-points="W3sieCI6MzUyLjE0MTExMzI4MTI1LCJ5Ijo3OC45MzAwOTU1MzIyOTIyfSx7IngiOjQ0MS4xODc5ODgyODEyNSwieSI6MTA1LjV9LHsieCI6NTMwLjIzNDg2MzI4MTI1LCJ5IjoxMDUuNX1d" data-look="classic" marker-end="url(#my-svg_flowchart-v2-pointEnd__1b1b18)"/><path d="M599.586,24.5L609.814,24.417C620.042,24.333,640.498,24.167,664.346,33.374C688.194,42.582,715.435,61.164,729.055,70.455L742.675,79.746" id="my-svg-L_ready_tearingDown_0" class="edge-thickness-normal edge-pattern-solid edge-thickness-normal edge-pattern-solid flowchart-link" style="stroke:#f53003;stroke-width:2px;fill:none;;;stroke:#f53003;stroke-width:2px;fill:none" data-edge="true" data-et="edge" data-id="L_ready_tearingDown_0" data-points="W3sieCI6NTk5LjU4NjAxNzg3MjI3OSwieSI6MjQuNX0seyJ4Ijo2NjAuOTUzNjEzMjgxMjUsInkiOjI0fSx7IngiOjc0NS45Nzk4Nzg2MTg2NzMzLCJ5Ijo4Mn1d" data-look="classic" marker-end="url(#my-svg_flowchart-v2-pointEnd__f53003)"/><path d="M601.094,105.5L611.071,105.5C621.047,105.5,641,105.5,660.287,105.5C679.573,105.5,698.193,105.5,707.503,105.5L716.813,105.5" id="my-svg-L_failed_tearingDown_0" class="edge-thickness-normal edge-pattern-solid edge-thickness-normal edge-pattern-solid flowchart-link" style="stroke:#f53003;stroke-width:2px;fill:none;;;stroke:#f53003;stroke-width:2px;fill:none" data-edge="true" data-et="edge" data-id="L_failed_tearingDown_0" data-points="W3sieCI6NjAxLjA5NDIzODI4MTI1LCJ5IjoxMDUuNX0seyJ4Ijo2NjAuOTUzNjEzMjgxMjUsInkiOjEwNS41fSx7IngiOjcyMC44MTI5ODgyODEyNSwieSI6MTA1LjV9XQ==" data-look="classic" marker-end="url(#my-svg_flowchart-v2-pointEnd__f53003)"/><path d="M728.913,129L717.586,134.167C706.26,139.333,683.607,149.667,656.399,154.833C629.191,160,597.428,160,560.8,160C524.172,160,482.68,160,439.172,160C395.665,160,350.141,160,305.162,160C260.183,160,215.748,160,179.819,152.514C143.89,145.027,116.466,130.055,102.754,122.568L89.043,115.082" id="my-svg-L_tearingDown_absent_0" class="edge-thickness-normal edge-pattern-solid edge-thickness-normal edge-pattern-solid flowchart-link" style="stroke:#f53003;stroke-width:2px;fill:none;;;stroke:#f53003;stroke-width:2px;fill:none" data-edge="true" data-et="edge" data-id="L_tearingDown_absent_0" data-points="W3sieCI6NzI4LjkxMjc1ODkyMzQ1MTksInkiOjEyOX0seyJ4Ijo2NjAuOTUzNjEzMjgxMjUsInkiOjE2MH0seyJ4Ijo1NjUuNjY0NTUwNzgxMjUsInkiOjE2MH0seyJ4Ijo0NDEuMTg3OTg4MjgxMjUsInkiOjE2MH0seyJ4IjozMDQuNjE3Njc1NzgxMjUsInkiOjE2MH0seyJ4IjoxNzEuMzEyOTg4MjgxMjUsInkiOjE2MH0seyJ4Ijo4NS41MzE3MzgyODEyNSwieSI6MTEzLjE2NTMxNTc0MzU2MzF9XQ==" data-look="classic" marker-end="url(#my-svg_flowchart-v2-pointEnd__f53003)"/></g><g class="edgeLabels"><g class="edgeLabel" transform="translate(171.31298828125, 64.75)"><g class="label" data-id="L_absent_preparing_0" transform="translate(0.5, -9.5)"><g><rect class="background" style="" x="-59.28125" y="-1" width="117.5625" height="21"/><text y="-10.1" text-anchor="middle" style=""><tspan class="text-outer-tspan row" x="0" y="-0.1em" dy="1.1em" text-anchor="middle"><tspan font-style="normal" class="text-inner-tspan" font-weight="normal">workspace:setup</tspan></tspan></text></g></g></g><g class="edgeLabel" transform="translate(441.18798828125, 24)"><g class="label" data-id="L_preparing_ready_0" transform="translate(0, -9.5)"><g><rect class="background" style="" x="-33.6875" y="-1" width="67.375" height="21"/><text y="-10.1" text-anchor="middle" style=""><tspan class="text-outer-tspan row" x="0" y="-0.1em" dy="1.1em" text-anchor="middle"><tspan font-style="normal" class="text-inner-tspan" font-weight="normal">succeeds</tspan></tspan></text></g></g></g><g class="edgeLabel" transform="translate(441.18798828125, 105.5)"><g class="label" data-id="L_preparing_failed_0" transform="translate(0, -9.5)"><g><rect class="background" style="" x="-15.34375" y="-1" width="30.6875" height="21"/><text y="-10.1" text-anchor="middle" style=""><tspan class="text-outer-tspan row" x="0" y="-0.1em" dy="1.1em" text-anchor="middle"><tspan font-style="normal" class="text-inner-tspan" font-weight="normal">fails</tspan></tspan></text></g></g></g><g class="edgeLabel" transform="translate(660.95361328125, 24)"><g class="label" data-id="L_ready_tearingDown_0" transform="translate(0, -9.5)"><g><rect class="background" style="" x="-32.859375" y="-1" width="65.71875" height="21"/><text y="-10.1" text-anchor="middle" style=""><tspan class="text-outer-tspan row" x="0" y="-0.1em" dy="1.1em" text-anchor="middle"><tspan font-style="normal" class="text-inner-tspan" font-weight="normal">teardown</tspan></tspan></text></g></g></g><g class="edgeLabel" transform="translate(660.95361328125, 105.5)"><g class="label" data-id="L_failed_tearingDown_0" transform="translate(0, -9.5)"><g><rect class="background" style="" x="-32.859375" y="-1" width="65.71875" height="21"/><text y="-10.1" text-anchor="middle" style=""><tspan class="text-outer-tspan row" x="0" y="-0.1em" dy="1.1em" text-anchor="middle"><tspan font-style="normal" class="text-inner-tspan" font-weight="normal">teardown</tspan></tspan></text></g></g></g><g class="edgeLabel" transform="translate(441.18798828125, 160)"><g class="label" data-id="L_tearingDown_absent_0" transform="translate(0, -9.5)"><g><rect class="background" style="" x="-62.046875" y="-1" width="124.09375" height="21"/><text y="-10.1" text-anchor="middle" style=""><tspan class="text-outer-tspan row" x="0" y="-0.1em" dy="1.1em" text-anchor="middle"><tspan font-style="normal" class="text-inner-tspan" font-weight="normal">cleanup</tspan><tspan font-style="normal" class="text-inner-tspan" font-weight="normal"> succeeds</tspan></tspan></text></g></g></g></g><g class="nodes"><g class="node default neutral" id="my-svg-flowchart-absent-0" data-look="classic" transform="translate(46.765869140625, 92)"><rect class="basic label-container" style="fill:#ffffff;stroke:#a8a8a4;stroke-width:1.5px" rx="5" ry="5" x="-38.765869140625" y="-23.5" width="77.53173828125" height="47"/><g class="label" style="color:#706f6c" transform="translate(0, -8.5)"><rect/><g><rect class="background" style="stroke: none"/><text y="-10.1" style="fill:#706f6c"><tspan class="text-outer-tspan row" x="0" y="-0.1em" dy="1.1em"><tspan font-style="normal" class="text-inner-tspan" font-weight="normal">Absent</tspan></tspan></text></g></g></g><g class="node default active" id="my-svg-flowchart-preparing-1" data-look="classic" transform="translate(304.61767578125, 64.75)"><rect class="basic label-container" style="fill:#fff7f5;stroke:#f53003;stroke-width:2px" rx="5" ry="5" x="-47.5234375" y="-23.5" width="95.046875" height="47"/><g class="label" style="color:#1b1b18" transform="translate(0, -8.5)"><rect/><g><rect class="background" style="stroke: none"/><text y="-10.1" style="fill:#1b1b18"><tspan class="text-outer-tspan row" x="0" y="-0.1em" dy="1.1em"><tspan font-style="normal" class="text-inner-tspan" font-weight="normal">Preparing</tspan></tspan></text></g></g></g><g class="node default ready" id="my-svg-flowchart-ready-3" data-look="classic" transform="translate(565.66455078125, 24)"><g class="basic label-container outer-path"><path d="M-17.4296875 -16 C-5.42956494346994 -16, 6.570557613060121 -16, 17.4296875 -16 C17.4296875 -16, 17.4296875 -16, 17.4296875 -16 C17.724056018814938 -15.990560174555167, 18.018424537629876 -15.981120349110336, 18.454811019691405 -15.967126284005381 C18.76656617431562 -15.937051639179213, 19.078321328939836 -15.906976994353043, 19.475722086952093 -15.868640221171939 C19.69860990946451 -15.83260544654901, 19.921497731976924 -15.796570671926082, 20.488225559221956 -15.704946511857047 C20.877252248703176 -15.616153708619356, 21.266278938184396 -15.527360905381663, 21.488160842552116 -15.476717808624471 C21.75684418613015 -15.396974002598162, 22.02552752970818 -15.31723019657185, 22.47141898837793 -15.184891952170698 C22.7014601796571 -15.100234667302502, 22.93150137093627 -15.015577382434305, 23.433959578069985 -14.830668117536348 C23.67795475485289 -14.722658690634313, 23.921949931635798 -14.614649263732279, 24.37182732588093 -14.415501886438706 C24.564054934256276 -14.315216866276948, 24.75628254263162 -14.214931846115189, 25.281168332063 -13.941099265974232 C25.61709181777551 -13.737460474829785, 25.95301530348802 -13.533821683685337, 26.158245919368778 -13.409409678269451 C26.414789514510986 -13.230455971891491, 26.67133310965319 -13.05150226551353, 26.999455987859456 -12.822617949887306 C27.314478286868273 -12.571396049523218, 27.629500585877093 -12.320174149159131, 27.801341824924613 -12.183135333906153 C28.085021713742712 -11.92550476464011, 28.36870160256081 -11.667874195374068, 28.560608309655784 -11.493589601563642 C28.805770974698664 -11.240439021677735, 29.05093363974154 -10.987288441791831, 29.274135453205048 -10.756814244181072 C29.40852080629545 -10.598957561697873, 29.54290615938585 -10.441100879214673, 29.93899121948848 -9.975836829739738 C30.114076106466435 -9.741239031750613, 30.28916099344439 -9.506641233761489, 30.55244357355129 -9.153866561954718 C30.736423782700587 -8.871223555097806, 30.920403991849884 -8.588580548240895, 31.111971708085537 -8.294281092968403 C31.298933467672306 -7.962311556891027, 31.48589522725908 -7.630342020813652, 31.615276401968003 -7.400612643853364 C31.768902063802834 -7.081605669990747, 31.922527725637668 -6.76259869612813, 32.060289468252996 -6.476533489958305 C32.13974130069183 -6.280285927737703, 32.219193133130666 -6.0840383655171015, 32.445182252796165 -5.52584087074093 C32.557058218267315 -5.188888287756245, 32.66893418373846 -4.85193570477156, 32.76837314858657 -4.552441386096524 C32.8706540086143 -4.162400138005642, 32.97293486864203 -3.772358889914761, 33.028534094909176 -3.560334943301032 C33.07550289597937 -3.319160076665226, 33.12247169704956 -3.0779852100294196, 33.224596034631205 -2.5535983205340735 C33.268281411225196 -2.2147831663243975, 33.311966787819195 -1.875968012114722, 33.35575330718717 -1.536368414522911 C33.37665531033781 -1.210802843658453, 33.39755731348845 -0.885237272793995, 33.421466959211 -0.5128252411464826 C33.421466959211 -0.17640721197569065, 33.421466959211 0.16001081719510135, 33.421466959211 0.5128252411464788 C33.40461329709792 0.775334632589002, 33.38775963498483 1.0378440240315254, 33.35575330718717 1.5363684145229002 C33.30770086716593 1.9090536503001223, 33.25964842714468 2.2817388860773447, 33.224596034631205 2.5535983205340624 C33.179156197311855 2.7869222814558974, 33.133716359992505 3.0202462423777323, 33.028534094909176 3.5603349433010285 C32.946213469513005 3.87425916592136, 32.86389284411683 4.188183388541692, 32.76837314858657 4.552441386096513 C32.68091456161767 4.815852715413358, 32.593455974648776 5.079264044730203, 32.445182252796165 5.525840870740919 C32.327778139791796 5.815831299715827, 32.21037402678743 6.105821728690734, 32.060289468253 6.4765334899583005 C31.893903025453017 6.822038498532032, 31.727516582653028 7.167543507105764, 31.615276401968003 7.400612643853361 C31.50703901267455 7.59279908876804, 31.398801623381097 7.78498553368272, 31.11197170808554 8.294281092968399 C30.91784758347202 8.59250787800106, 30.7237234588585 8.890734663033722, 30.552443573551297 9.15386656195471 C30.311415057132198 9.476822815806734, 30.0703865407131 9.79977906965876, 29.93899121948848 9.975836829739734 C29.713885813126176 10.240258448913377, 29.488780406763876 10.50468006808702, 29.274135453205055 10.756814244181063 C28.999263914367027 11.040641675404359, 28.724392375529 11.324469106627657, 28.560608309655784 11.493589601563638 C28.40175858485211 11.63785271869693, 28.242908860048438 11.782115835830224, 27.801341824924627 12.183135333906142 C27.519823399610882 12.407638786573932, 27.238304974297137 12.632142239241722, 26.99945598785946 12.822617949887304 C26.79721155508514 12.96369491117028, 26.594967122310823 13.104771872453256, 26.158245919368788 13.409409678269446 C25.956481479413572 13.531720467469759, 25.754717039458352 13.65403125667007, 25.281168332063004 13.94109926597423 C25.02882272947367 14.072747805210014, 24.776477126884338 14.204396344445795, 24.371827325880933 14.415501886438705 C24.073976303201736 14.547351698742121, 23.77612528052254 14.679201511045537, 23.43395957806999 14.830668117536346 C23.085401174415942 14.9589408321196, 22.736842770761893 15.087213546702852, 22.47141898837794 15.184891952170695 C22.078702026602013 15.301448285012393, 21.685985064826085 15.418004617854091, 21.488160842552134 15.476717808624468 C21.18938837806658 15.544910673970758, 20.89061591358103 15.613103539317049, 20.488225559221963 15.704946511857045 C20.098570768461833 15.76794287660911, 19.7089159777017 15.830939241361174, 19.475722086952103 15.868640221171937 C19.18240618042521 15.896936053910597, 18.889090273898315 15.925231886649259, 18.454811019691405 15.967126284005381 C18.18381739646961 15.975816522045015, 17.912823773247812 15.984506760084649, 17.429687500000004 16 C17.429687500000004 16, 17.4296875 16, 17.4296875 16 C7.927047972150859 16, -1.5755915556982814 16, -17.429687499999996 16 C-17.753916362283665 15.989602611459759, -18.078145224567336 15.979205222919516, -18.454811019691398 15.967126284005381 C-18.805903465127685 15.933256818044585, -19.156995910563968 15.89938735208379, -19.4757220869521 15.868640221171937 C-19.868085950290908 15.805205874574524, -20.260449813629712 15.74177152797711, -20.488225559221956 15.704946511857045 C-20.728324352142746 15.650145529163924, -20.968423145063532 15.595344546470802, -21.488160842552112 15.476717808624471 C-21.87690181784023 15.361341527701978, -22.265642793128347 15.245965246779484, -22.471418988377923 15.184891952170702 C-22.71469307175599 15.0953648406866, -22.957967155134053 15.005837729202497, -23.433959578069988 14.830668117536348 C-23.638163497234554 14.740273100016234, -23.842367416399124 14.649878082496118, -24.37182732588093 14.415501886438708 C-24.691205695885973 14.248882395378686, -25.010584065891017 14.082262904318663, -25.281168332063 13.941099265974234 C-25.510583324073536 13.802026549625307, -25.739998316084073 13.66295383327638, -26.158245919368767 13.409409678269457 C-26.4911382517556 13.177198397873214, -26.82403058414243 12.944987117476972, -26.999455987859456 12.822617949887308 C-27.227801942662044 12.6405181274733, -27.456147897464632 12.458418305059292, -27.801341824924613 12.183135333906154 C-28.073676532002764 11.935808158519274, -28.346011239080916 11.688480983132392, -28.560608309655777 11.493589601563649 C-28.73295492735415 11.315627568869612, -28.905301545052524 11.137665536175575, -29.274135453205048 10.756814244181069 C-29.4356113533953 10.567135463578587, -29.597087253585553 10.377456682976105, -29.938991219488475 9.97583682973974 C-30.136430334226414 9.711286403064282, -30.333869448964354 9.446735976388824, -30.55244357355129 9.15386656195472 C-30.768711252400053 8.821621331239845, -30.98497893124881 8.48937610052497, -31.111971708085534 8.29428109296841 C-31.29614757090334 7.9672581987069675, -31.480323433721143 7.640235304445526, -31.615276401968 7.400612643853366 C-31.70893223116299 7.206134310616246, -31.80258806035798 7.011655977379126, -32.060289468252996 6.476533489958307 C-32.168969399306725 6.208091959072083, -32.27764933036045 5.939650428185858, -32.445182252796165 5.525840870740931 C-32.5421990435338 5.23364175456561, -32.63921583427143 4.94144263839029, -32.76837314858657 4.552441386096519 C-32.84040352614953 4.277758338285851, -32.91243390371248 4.0030752904751825, -33.028534094909176 3.5603349433010343 C-33.09165237492197 3.236235915488551, -33.154770654934765 2.912136887676068, -33.224596034631205 2.5535983205340753 C-33.26180668652982 2.264999852482736, -33.29901733842844 1.9764013844313963, -33.35575330718717 1.5363684145229202 C-33.37627842727029 1.2166731016495969, -33.39680354735341 0.8969777887762734, -33.421466959211 0.5128252411464846 C-33.421466959211 0.23118876037964958, -33.421466959211 -0.05044772038718548, -33.421466959211 -0.5128252411464769 C-33.399668675493125 -0.8523511053103396, -33.377870391775254 -1.1918769694742024, -33.35575330718717 -1.5363684145228982 C-33.32193350282181 -1.798668138704942, -33.288113698456435 -2.0609678628869856, -33.224596034631205 -2.5535983205340678 C-33.163786524984175 -2.8658423004771447, -33.102977015337146 -3.1780862804202217, -33.028534094909176 -3.5603349433010267 C-32.9610832395787 -3.8175542880617703, -32.89363238424822 -4.074773632822514, -32.768373148586576 -4.552441386096511 C-32.67485003670349 -4.834118098204067, -32.5813269248204 -5.115794810311623, -32.44518225279617 -5.525840870740911 C-32.34811470163774 -5.765599598775664, -32.251047150479316 -6.005358326810417, -32.060289468253 -6.476533489958299 C-31.93906541760948 -6.7282578248987415, -31.817841366965958 -6.979982159839184, -31.615276401968003 -7.400612643853359 C-31.47944848585482 -7.641788862980259, -31.343620569741642 -7.882965082107159, -31.111971708085537 -8.294281092968404 C-30.93797013697153 -8.561594232163616, -30.76396856585752 -8.828907371358827, -30.552443573551294 -9.153866561954715 C-30.346458959165744 -9.429867179646937, -30.14047434478019 -9.70586779733916, -29.93899121948848 -9.975836829739734 C-29.769312273248694 -10.175151374998539, -29.599633327008913 -10.374465920257345, -29.274135453205055 -10.756814244181063 C-29.006611893800947 -11.033054283358506, -28.739088334396843 -11.30929432253595, -28.56060830965579 -11.493589601563633 C-28.35013142188782 -11.68473914212122, -28.139654534119853 -11.875888682678807, -27.801341824924627 -12.18313533390614 C-27.557778561826602 -12.377370554736178, -27.31421529872858 -12.571605775566217, -26.999455987859463 -12.822617949887302 C-26.789470516613214 -12.969094724504142, -26.579485045366965 -13.115571499120982, -26.158245919368788 -13.409409678269444 C-25.818480243329855 -13.615377627768988, -25.47871456729092 -13.82134557726853, -25.281168332063007 -13.941099265974229 C-25.047858923494704 -14.062816634982505, -24.8145495149264 -14.18453400399078, -24.371827325880936 -14.415501886438705 C-24.087807511447885 -14.541229033139768, -23.80378769701483 -14.666956179840831, -23.433959578069995 -14.830668117536344 C-23.157358122989425 -14.932460009881815, -22.880756667908855 -15.034251902227288, -22.47141898837794 -15.184891952170695 C-22.11822285613316 -15.289718710256615, -21.765026723888376 -15.394545468342537, -21.488160842552134 -15.476717808624466 C-21.13244133873166 -15.557908464084791, -20.776721834911186 -15.639099119545117, -20.488225559221963 -15.704946511857043 C-20.25346797714969 -15.74290029715425, -20.018710395077417 -15.780854082451455, -19.475722086952107 -15.868640221171937 C-19.150390840876305 -15.900024535212802, -18.8250595948005 -15.931408849253666, -18.45481101969141 -15.967126284005381 C-18.119450985620784 -15.977880627559319, -17.784090951550155 -15.988634971113257, -17.429687500000004 -16 C-17.429687500000004 -16, -17.429687500000004 -16, -17.4296875 -16" stroke="none" stroke-width="0" fill="#f53003" style="fill:#f53003;stroke:#d62a00;stroke-width:2.5px"/><path d="M-17.4296875 -16 C-6.058519012543151 -16, 5.312649474913698 -16, 17.4296875 -16 M-17.4296875 -16 C-5.548036155011458 -16, 6.333615189977085 -16, 17.4296875 -16 M17.4296875 -16 C17.4296875 -16, 17.4296875 -16, 17.4296875 -16 M17.4296875 -16 C17.4296875 -16, 17.4296875 -16, 17.4296875 -16 M17.4296875 -16 C17.732693218933854 -15.990283196358645, 18.035698937867707 -15.98056639271729, 18.454811019691405 -15.967126284005381 M17.4296875 -16 C17.824547095935902 -15.987337621305914, 18.219406691871804 -15.974675242611829, 18.454811019691405 -15.967126284005381 M18.454811019691405 -15.967126284005381 C18.669206335878805 -15.946443825700875, 18.883601652066204 -15.925761367396369, 19.475722086952093 -15.868640221171939 M18.454811019691405 -15.967126284005381 C18.780800278171114 -15.935678492299287, 19.106789536650822 -15.904230700593194, 19.475722086952093 -15.868640221171939 M19.475722086952093 -15.868640221171939 C19.68080678995153 -15.835483716846616, 19.885891492950964 -15.802327212521293, 20.488225559221956 -15.704946511857047 M19.475722086952093 -15.868640221171939 C19.76199303327863 -15.82235815463421, 20.048263979605167 -15.776076088096481, 20.488225559221956 -15.704946511857047 M20.488225559221956 -15.704946511857047 C20.719534525683127 -15.652151749694355, 20.950843492144294 -15.599356987531662, 21.488160842552116 -15.476717808624471 M20.488225559221956 -15.704946511857047 C20.75763226402143 -15.643456189529612, 21.02703896882091 -15.581965867202179, 21.488160842552116 -15.476717808624471 M21.488160842552116 -15.476717808624471 C21.86469283100224 -15.364965090909214, 22.241224819452363 -15.253212373193957, 22.47141898837793 -15.184891952170698 M21.488160842552116 -15.476717808624471 C21.739906641309886 -15.402000976993829, 21.991652440067657 -15.327284145363185, 22.47141898837793 -15.184891952170698 M22.47141898837793 -15.184891952170698 C22.833985573854154 -15.051464097186672, 23.196552159330377 -14.918036242202646, 23.433959578069985 -14.830668117536348 M22.47141898837793 -15.184891952170698 C22.841566117647925 -15.048674386996785, 23.21171324691792 -14.912456821822872, 23.433959578069985 -14.830668117536348 M23.433959578069985 -14.830668117536348 C23.66908018797874 -14.726587198134828, 23.90420079788749 -14.622506278733308, 24.37182732588093 -14.415501886438706 M23.433959578069985 -14.830668117536348 C23.80100050978701 -14.668189984947615, 24.16804144150403 -14.505711852358882, 24.37182732588093 -14.415501886438706 M24.37182732588093 -14.415501886438706 C24.71001337694058 -14.23907044021939, 25.04819942800023 -14.062638994000075, 25.281168332063 -13.941099265974232 M24.37182732588093 -14.415501886438706 C24.572346274997106 -14.310891279123313, 24.772865224113286 -14.20628067180792, 25.281168332063 -13.941099265974232 M25.281168332063 -13.941099265974232 C25.469173897511595 -13.827129187355956, 25.65717946296019 -13.71315910873768, 26.158245919368778 -13.409409678269451 M25.281168332063 -13.941099265974232 C25.60377618453907 -13.745532489949063, 25.926384037015136 -13.549965713923893, 26.158245919368778 -13.409409678269451 M26.158245919368778 -13.409409678269451 C26.374370105834537 -13.25865080165618, 26.590494292300292 -13.10789192504291, 26.999455987859456 -12.822617949887306 M26.158245919368778 -13.409409678269451 C26.47189890651733 -13.190618932253601, 26.78555189366588 -12.97182818623775, 26.999455987859456 -12.822617949887306 M26.999455987859456 -12.822617949887306 C27.18692042253159 -12.673120051874395, 27.374384857203722 -12.523622153861485, 27.801341824924613 -12.183135333906153 M26.999455987859456 -12.822617949887306 C27.317514044648302 -12.568975113478553, 27.635572101437152 -12.315332277069798, 27.801341824924613 -12.183135333906153 M27.801341824924613 -12.183135333906153 C28.011246419377635 -11.992505534995152, 28.221151013830656 -11.801875736084149, 28.560608309655784 -11.493589601563642 M27.801341824924613 -12.183135333906153 C28.054243189148128 -11.953457006321775, 28.307144553371646 -11.723778678737398, 28.560608309655784 -11.493589601563642 M28.560608309655784 -11.493589601563642 C28.798022739717496 -11.248439710437712, 29.03543716977921 -11.003289819311783, 29.274135453205048 -10.756814244181072 M28.560608309655784 -11.493589601563642 C28.844785295422586 -11.200153532394982, 29.12896228118939 -10.906717463226322, 29.274135453205048 -10.756814244181072 M29.274135453205048 -10.756814244181072 C29.479721913542544 -10.51532068966766, 29.68530837388004 -10.27382713515425, 29.93899121948848 -9.975836829739738 M29.274135453205048 -10.756814244181072 C29.452139090901024 -10.547721042649462, 29.630142728597 -10.33862784111785, 29.93899121948848 -9.975836829739738 M29.93899121948848 -9.975836829739738 C30.170933171327427 -9.66505574462205, 30.402875123166375 -9.354274659504364, 30.55244357355129 -9.153866561954718 M29.93899121948848 -9.975836829739738 C30.072449150666092 -9.797015360229386, 30.2059070818437 -9.618193890719034, 30.55244357355129 -9.153866561954718 M30.55244357355129 -9.153866561954718 C30.68161801849561 -8.95541992632497, 30.81079246343993 -8.756973290695223, 31.111971708085537 -8.294281092968403 M30.55244357355129 -9.153866561954718 C30.672127385896356 -8.970000086589115, 30.79181119824142 -8.786133611223514, 31.111971708085537 -8.294281092968403 M31.111971708085537 -8.294281092968403 C31.2405688506289 -8.06594384450994, 31.36916599317226 -7.837606596051477, 31.615276401968003 -7.400612643853364 M31.111971708085537 -8.294281092968403 C31.265910385864398 -8.020947382590611, 31.419849063643255 -7.747613672212819, 31.615276401968003 -7.400612643853364 M31.615276401968003 -7.400612643853364 C31.750618555564685 -7.119571766051675, 31.885960709161363 -6.838530888249986, 32.060289468252996 -6.476533489958305 M31.615276401968003 -7.400612643853364 C31.791261371593187 -7.035176088951537, 31.96724634121837 -6.669739534049708, 32.060289468252996 -6.476533489958305 M32.060289468252996 -6.476533489958305 C32.197726364981676 -6.137061697876838, 32.335163261710356 -5.797589905795372, 32.445182252796165 -5.52584087074093 M32.060289468252996 -6.476533489958305 C32.16737191660735 -6.212037772224759, 32.2744543649617 -5.947542054491214, 32.445182252796165 -5.52584087074093 M32.445182252796165 -5.52584087074093 C32.54309070829644 -5.230956202368012, 32.64099916379672 -4.936071533995095, 32.76837314858657 -4.552441386096524 M32.445182252796165 -5.52584087074093 C32.542766439922225 -5.231932847046012, 32.64035062704828 -4.938024823351094, 32.76837314858657 -4.552441386096524 M32.76837314858657 -4.552441386096524 C32.8507176207392 -4.238426225458546, 32.93306209289184 -3.9244110648205677, 33.028534094909176 -3.560334943301032 M32.76837314858657 -4.552441386096524 C32.86206185920805 -4.19516572755279, 32.955750569829526 -3.837890069009056, 33.028534094909176 -3.560334943301032 M33.028534094909176 -3.560334943301032 C33.0981997987859 -3.2026162777458085, 33.167865502662615 -2.844897612190585, 33.224596034631205 -2.5535983205340735 M33.028534094909176 -3.560334943301032 C33.10185308962371 -3.1838574014169465, 33.175172084338236 -2.8073798595328614, 33.224596034631205 -2.5535983205340735 M33.224596034631205 -2.5535983205340735 C33.25308498758932 -2.332643627171033, 33.281573940547425 -2.1116889338079923, 33.35575330718717 -1.536368414522911 M33.224596034631205 -2.5535983205340735 C33.266058762531074 -2.2320215906844125, 33.307521490430936 -1.9104448608347515, 33.35575330718717 -1.536368414522911 M33.35575330718717 -1.536368414522911 C33.373156576846746 -1.2652984419085853, 33.39055984650632 -0.9942284692942598, 33.421466959211 -0.5128252411464826 M33.35575330718717 -1.536368414522911 C33.37276151148981 -1.2714519037338659, 33.389769715792454 -1.0065353929448204, 33.421466959211 -0.5128252411464826 M33.421466959211 -0.5128252411464826 C33.421466959211 -0.10567949181780012, 33.421466959211 0.3014662575108824, 33.421466959211 0.5128252411464788 M33.421466959211 -0.5128252411464826 C33.421466959211 -0.2461337953162389, 33.421466959211 0.02055765051400482, 33.421466959211 0.5128252411464788 M33.421466959211 0.5128252411464788 C33.39838894347511 0.8722839644719804, 33.37531092773923 1.2317426877974822, 33.35575330718717 1.5363684145229002 M33.421466959211 0.5128252411464788 C33.404013396874916 0.784678562792952, 33.386559834538836 1.0565318844394254, 33.35575330718717 1.5363684145229002 M33.35575330718717 1.5363684145229002 C33.308642199730734 1.9017528608146046, 33.261531092274296 2.2671373071063092, 33.224596034631205 2.5535983205340624 M33.35575330718717 1.5363684145229002 C33.31802641284787 1.8289707570005593, 33.28029951850858 2.1215730994782183, 33.224596034631205 2.5535983205340624 M33.224596034631205 2.5535983205340624 C33.18033073363772 2.7808912856609562, 33.13606543264422 3.00818425078785, 33.028534094909176 3.5603349433010285 M33.224596034631205 2.5535983205340624 C33.17871579617989 2.7891836481897583, 33.13283555772856 3.024768975845454, 33.028534094909176 3.5603349433010285 M33.028534094909176 3.5603349433010285 C32.957127755716336 3.8326382623465034, 32.885721416523495 4.104941581391978, 32.76837314858657 4.552441386096513 M33.028534094909176 3.5603349433010285 C32.934812620021866 3.917735546190495, 32.84109114513456 4.2751361490799615, 32.76837314858657 4.552441386096513 M32.76837314858657 4.552441386096513 C32.666783899449094 4.858412018449844, 32.56519465031162 5.164382650803175, 32.445182252796165 5.525840870740919 M32.76837314858657 4.552441386096513 C32.67826704062324 4.823826626823396, 32.58816093265992 5.0952118675502795, 32.445182252796165 5.525840870740919 M32.445182252796165 5.525840870740919 C32.32595471786227 5.8203351871352265, 32.20672718292837 6.114829503529535, 32.060289468253 6.4765334899583005 M32.445182252796165 5.525840870740919 C32.36092319149264 5.733962381198768, 32.276664130189104 5.942083891656616, 32.060289468253 6.4765334899583005 M32.060289468253 6.4765334899583005 C31.938256826245173 6.72993688216781, 31.816224184237342 6.983340274377319, 31.615276401968003 7.400612643853361 M32.060289468253 6.4765334899583005 C31.90854391321757 6.791636381824123, 31.756798358182134 7.1067392736899455, 31.615276401968003 7.400612643853361 M31.615276401968003 7.400612643853361 C31.487016589827974 7.628350928022304, 31.358756777687944 7.856089212191247, 31.11197170808554 8.294281092968399 M31.615276401968003 7.400612643853361 C31.502437933294324 7.600968771117443, 31.38959946462064 7.801324898381524, 31.11197170808554 8.294281092968399 M31.11197170808554 8.294281092968399 C30.972006643942514 8.509305017374333, 30.832041579799483 8.724328941780264, 30.552443573551297 9.15386656195471 M31.11197170808554 8.294281092968399 C30.98246265310409 8.493241779470557, 30.85295359812264 8.692202465972713, 30.552443573551297 9.15386656195471 M30.552443573551297 9.15386656195471 C30.40209034406478 9.35532619200565, 30.25173711457827 9.55678582205659, 29.93899121948848 9.975836829739734 M30.552443573551297 9.15386656195471 C30.359857340214692 9.41191456965897, 30.167271106878086 9.66996257736323, 29.93899121948848 9.975836829739734 M29.93899121948848 9.975836829739734 C29.791684067726354 10.148872192213913, 29.64437691596423 10.321907554688092, 29.274135453205055 10.756814244181063 M29.93899121948848 9.975836829739734 C29.735394878333977 10.21499267701981, 29.53179853717948 10.454148524299885, 29.274135453205055 10.756814244181063 M29.274135453205055 10.756814244181063 C29.036457607346463 11.002236133744109, 28.79877976148787 11.247658023307153, 28.560608309655784 11.493589601563638 M29.274135453205055 10.756814244181063 C28.998994838528507 11.04091951829917, 28.72385422385196 11.325024792417278, 28.560608309655784 11.493589601563638 M28.560608309655784 11.493589601563638 C28.270082113853153 11.757437805689678, 27.97955591805052 12.02128600981572, 27.801341824924627 12.183135333906142 M28.560608309655784 11.493589601563638 C28.36241303591849 11.673585305212267, 28.164217762181195 11.853581008860896, 27.801341824924627 12.183135333906142 M27.801341824924627 12.183135333906142 C27.526256755802976 12.402508356209536, 27.25117168668132 12.62188137851293, 26.99945598785946 12.822617949887304 M27.801341824924627 12.183135333906142 C27.512500112802144 12.413478912923052, 27.223658400679664 12.643822491939964, 26.99945598785946 12.822617949887304 M26.99945598785946 12.822617949887304 C26.79179985268263 12.96746988049745, 26.5841437175058 13.112321811107599, 26.158245919368788 13.409409678269446 M26.99945598785946 12.822617949887304 C26.78171488368475 12.974504718299102, 26.563973779510036 13.126391486710899, 26.158245919368788 13.409409678269446 M26.158245919368788 13.409409678269446 C25.93261233305197 13.546190084264834, 25.706978746735157 13.682970490260221, 25.281168332063004 13.94109926597423 M26.158245919368788 13.409409678269446 C25.967312052876576 13.525154910188972, 25.77637818638436 13.640900142108496, 25.281168332063004 13.94109926597423 M25.281168332063004 13.94109926597423 C25.090830019068065 14.040398641946183, 24.900491706073126 14.139698017918134, 24.371827325880933 14.415501886438705 M25.281168332063004 13.94109926597423 C24.918033680456734 14.130546381118377, 24.554899028850468 14.319993496262521, 24.371827325880933 14.415501886438705 M24.371827325880933 14.415501886438705 C24.061583303717367 14.552837711988584, 23.751339281553797 14.690173537538463, 23.43395957806999 14.830668117536346 M24.371827325880933 14.415501886438705 C24.154407898368458 14.511747017480312, 23.936988470855983 14.60799214852192, 23.43395957806999 14.830668117536346 M23.43395957806999 14.830668117536346 C23.104608450935967 14.951872376810112, 22.77525732380194 15.07307663608388, 22.47141898837794 15.184891952170695 M23.43395957806999 14.830668117536346 C23.192795650058333 14.91941867233955, 22.951631722046674 15.008169227142751, 22.47141898837794 15.184891952170695 M22.47141898837794 15.184891952170695 C22.106277034916857 15.29326416728872, 21.74113508145577 15.401636382406744, 21.488160842552134 15.476717808624468 M22.47141898837794 15.184891952170695 C22.27438460256738 15.243370723624674, 22.07735021675682 15.30184949507865, 21.488160842552134 15.476717808624468 M21.488160842552134 15.476717808624468 C21.182106171311858 15.546572790141683, 20.876051500071583 15.616427771658898, 20.488225559221963 15.704946511857045 M21.488160842552134 15.476717808624468 C21.280229723158907 15.52417672974861, 21.072298603765685 15.571635650872754, 20.488225559221963 15.704946511857045 M20.488225559221963 15.704946511857045 C20.262464826856384 15.741445756265284, 20.036704094490805 15.777945000673522, 19.475722086952103 15.868640221171937 M20.488225559221963 15.704946511857045 C20.204193619624498 15.750866593150574, 19.92016168002703 15.796786674444103, 19.475722086952103 15.868640221171937 M19.475722086952103 15.868640221171937 C19.15539840592454 15.899541461435076, 18.83507472489698 15.930442701698215, 18.454811019691405 15.967126284005381 M19.475722086952103 15.868640221171937 C19.165136406082304 15.898602048271515, 18.854550725212505 15.928563875371093, 18.454811019691405 15.967126284005381 M18.454811019691405 15.967126284005381 C18.076678341749705 15.979252262996363, 17.698545663808005 15.991378241987347, 17.429687500000004 16 M18.454811019691405 15.967126284005381 C18.226394879637166 15.974451145031876, 17.997978739582926 15.98177600605837, 17.429687500000004 16 M17.429687500000004 16 C17.429687500000004 16, 17.429687500000004 16, 17.4296875 16 M17.429687500000004 16 C17.429687500000004 16, 17.429687500000004 16, 17.4296875 16 M17.4296875 16 C9.452346249687553 16, 1.4750049993751055 16, -17.429687499999996 16 M17.4296875 16 C9.880506188587928 16, 2.331324877175856 16, -17.429687499999996 16 M-17.429687499999996 16 C-17.69228244852038 15.991579091111012, -17.954877397040764 15.983158182222024, -18.454811019691398 15.967126284005381 M-17.429687499999996 16 C-17.63949902961353 15.993271752618663, -17.849310559227064 15.986543505237323, -18.454811019691398 15.967126284005381 M-18.454811019691398 15.967126284005381 C-18.813093580065964 15.93256319630387, -19.17137614044053 15.898000108602355, -19.4757220869521 15.868640221171937 M-18.454811019691398 15.967126284005381 C-18.736872771882712 15.939916126000373, -19.01893452407403 15.912705967995365, -19.4757220869521 15.868640221171937 M-19.4757220869521 15.868640221171937 C-19.742106160733638 15.825573309962284, -20.008490234515175 15.78250639875263, -20.488225559221956 15.704946511857045 M-19.4757220869521 15.868640221171937 C-19.879493819003066 15.803361538830485, -20.283265551054036 15.738082856489033, -20.488225559221956 15.704946511857045 M-20.488225559221956 15.704946511857045 C-20.847248554490204 15.623001856031062, -21.20627154975845 15.541057200205078, -21.488160842552112 15.476717808624471 M-20.488225559221956 15.704946511857045 C-20.74314563344227 15.646762668425206, -20.99806570766259 15.588578824993364, -21.488160842552112 15.476717808624471 M-21.488160842552112 15.476717808624471 C-21.75398085007845 15.397823825708349, -22.019800857604782 15.318929842792226, -22.471418988377923 15.184891952170702 M-21.488160842552112 15.476717808624471 C-21.723951840087448 15.406736278248188, -21.959742837622784 15.336754747871902, -22.471418988377923 15.184891952170702 M-22.471418988377923 15.184891952170702 C-22.771201164103346 15.074569340347692, -23.070983339828768 14.964246728524682, -23.433959578069988 14.830668117536348 M-22.471418988377923 15.184891952170702 C-22.676911940883436 15.109268646092644, -22.882404893388944 15.033645340014585, -23.433959578069988 14.830668117536348 M-23.433959578069988 14.830668117536348 C-23.65072835139042 14.734711011804588, -23.867497124710848 14.638753906072829, -24.37182732588093 14.415501886438708 M-23.433959578069988 14.830668117536348 C-23.691075352991554 14.716850591047045, -23.94819112791312 14.60303306455774, -24.37182732588093 14.415501886438708 M-24.37182732588093 14.415501886438708 C-24.671897104878106 14.258955674939749, -24.97196688387528 14.102409463440788, -25.281168332063 13.941099265974234 M-24.37182732588093 14.415501886438708 C-24.59081613063657 14.301255567266715, -24.809804935392208 14.187009248094721, -25.281168332063 13.941099265974234 M-25.281168332063 13.941099265974234 C-25.462990638867574 13.830877515082824, -25.644812945672147 13.720655764191413, -26.158245919368767 13.409409678269457 M-25.281168332063 13.941099265974234 C-25.50263353540813 13.806845758232418, -25.724098738753263 13.672592250490604, -26.158245919368767 13.409409678269457 M-26.158245919368767 13.409409678269457 C-26.359649985604474 13.268918920304937, -26.561054051840177 13.128428162340418, -26.999455987859456 12.822617949887308 M-26.158245919368767 13.409409678269457 C-26.355090411223937 13.272099482012004, -26.551934903079108 13.134789285754552, -26.999455987859456 12.822617949887308 M-26.999455987859456 12.822617949887308 C-27.218577118012895 12.647874679648103, -27.437698248166335 12.473131409408898, -27.801341824924613 12.183135333906154 M-26.999455987859456 12.822617949887308 C-27.196883373119523 12.66517486390577, -27.39431075837959 12.507731777924235, -27.801341824924613 12.183135333906154 M-27.801341824924613 12.183135333906154 C-28.058283874036693 11.949787363216645, -28.315225923148777 11.716439392527136, -28.560608309655777 11.493589601563649 M-27.801341824924613 12.183135333906154 C-27.96214710880977 12.037096229756319, -28.122952392694923 11.891057125606482, -28.560608309655777 11.493589601563649 M-28.560608309655777 11.493589601563649 C-28.796844402618927 11.24965644023526, -29.033080495582077 11.005723278906869, -29.274135453205048 10.756814244181069 M-28.560608309655777 11.493589601563649 C-28.76065778481345 11.287022094095988, -28.960707259971123 11.080454586628328, -29.274135453205048 10.756814244181069 M-29.274135453205048 10.756814244181069 C-29.441583329949314 10.560120440103148, -29.609031206693583 10.363426636025228, -29.938991219488475 9.97583682973974 M-29.274135453205048 10.756814244181069 C-29.497005418210108 10.49501850162586, -29.719875383215168 10.233222759070651, -29.938991219488475 9.97583682973974 M-29.938991219488475 9.97583682973974 C-30.13324957259988 9.715548333870494, -30.327507925711284 9.45525983800125, -30.55244357355129 9.15386656195472 M-29.938991219488475 9.97583682973974 C-30.151138816688814 9.691578376534984, -30.363286413889156 9.407319923330228, -30.55244357355129 9.15386656195472 M-30.55244357355129 9.15386656195472 C-30.735726914729614 8.872294131436474, -30.91901025590794 8.590721700918229, -31.111971708085534 8.29428109296841 M-30.55244357355129 9.15386656195472 C-30.742206777869534 8.862339321566669, -30.931969982187777 8.57081208117862, -31.111971708085534 8.29428109296841 M-31.111971708085534 8.29428109296841 C-31.248818921097246 8.051295008983166, -31.385666134108956 7.808308924997923, -31.615276401968 7.400612643853366 M-31.111971708085534 8.29428109296841 C-31.27027765092422 8.013192861243352, -31.428583593762905 7.732104629518296, -31.615276401968 7.400612643853366 M-31.615276401968 7.400612643853366 C-31.71396255247317 7.195688740784023, -31.81264870297834 6.99076483771468, -32.060289468252996 6.476533489958307 M-31.615276401968 7.400612643853366 C-31.766448695291803 7.086700142197578, -31.917620988615607 6.7727876405417895, -32.060289468252996 6.476533489958307 M-32.060289468252996 6.476533489958307 C-32.14030985900088 6.27888157772203, -32.22033024974876 6.081229665485754, -32.445182252796165 5.525840870740931 M-32.060289468252996 6.476533489958307 C-32.17823637063459 6.185202360727545, -32.29618327301618 5.893871231496783, -32.445182252796165 5.525840870740931 M-32.445182252796165 5.525840870740931 C-32.51748802997934 5.308067390226313, -32.58979380716251 5.0902939097116935, -32.76837314858657 4.552441386096519 M-32.445182252796165 5.525840870740931 C-32.53321714667736 5.260693796826274, -32.62125204055856 4.995546722911617, -32.76837314858657 4.552441386096519 M-32.76837314858657 4.552441386096519 C-32.842291071655175 4.270560309205401, -32.91620899472379 3.9886792323142837, -33.028534094909176 3.5603349433010343 M-32.76837314858657 4.552441386096519 C-32.84654367854674 4.2543432760363995, -32.924714208506906 3.956245165976279, -33.028534094909176 3.5603349433010343 M-33.028534094909176 3.5603349433010343 C-33.09235136498588 3.23264674924196, -33.15616863506259 2.904958555182885, -33.224596034631205 2.5535983205340753 M-33.028534094909176 3.5603349433010343 C-33.1006096126421 3.190242392908533, -33.17268513037503 2.8201498425160314, -33.224596034631205 2.5535983205340753 M-33.224596034631205 2.5535983205340753 C-33.267503944803764 2.2208130423609393, -33.31041185497632 1.8880277641878036, -33.35575330718717 1.5363684145229202 M-33.224596034631205 2.5535983205340753 C-33.256785429505435 2.3039437304045407, -33.288974824379665 2.0542891402750065, -33.35575330718717 1.5363684145229202 M-33.35575330718717 1.5363684145229202 C-33.37735722491427 1.1998699575548482, -33.39896114264136 0.8633715005867761, -33.421466959211 0.5128252411464846 M-33.35575330718717 1.5363684145229202 C-33.381027934673575 1.1426956901100804, -33.40630256215997 0.7490229656972405, -33.421466959211 0.5128252411464846 M-33.421466959211 0.5128252411464846 C-33.421466959211 0.15720604379686676, -33.421466959211 -0.19841315355275113, -33.421466959211 -0.5128252411464769 M-33.421466959211 0.5128252411464846 C-33.421466959211 0.303155605167825, -33.421466959211 0.09348596918916546, -33.421466959211 -0.5128252411464769 M-33.421466959211 -0.5128252411464769 C-33.403599052924115 -0.7911323042791778, -33.38573114663722 -1.0694393674118787, -33.35575330718717 -1.5363684145228982 M-33.421466959211 -0.5128252411464769 C-33.40308674017002 -0.7991119889556377, -33.384706521129026 -1.0853987367647986, -33.35575330718717 -1.5363684145228982 M-33.35575330718717 -1.5363684145228982 C-33.32042083815382 -1.8104000671603955, -33.28508836912047 -2.0844317197978928, -33.224596034631205 -2.5535983205340678 M-33.35575330718717 -1.5363684145228982 C-33.305613672302506 -1.9252415214975473, -33.25547403741785 -2.3141146284721965, -33.224596034631205 -2.5535983205340678 M-33.224596034631205 -2.5535983205340678 C-33.15881419446099 -2.8913741668112696, -33.09303235429078 -3.229150013088472, -33.028534094909176 -3.5603349433010267 M-33.224596034631205 -2.5535983205340678 C-33.16704043002822 -2.849134185789018, -33.10948482542525 -3.144670051043968, -33.028534094909176 -3.5603349433010267 M-33.028534094909176 -3.5603349433010267 C-32.96395284068695 -3.8066112553430025, -32.89937158646473 -4.052887567384978, -32.768373148586576 -4.552441386096511 M-33.028534094909176 -3.5603349433010267 C-32.92776890372485 -3.944596289196978, -32.82700371254053 -4.3288576350929295, -32.768373148586576 -4.552441386096511 M-32.768373148586576 -4.552441386096511 C-32.646522233508485 -4.919436928004914, -32.52467131843039 -5.286432469913317, -32.44518225279617 -5.525840870740911 M-32.768373148586576 -4.552441386096511 C-32.69706056096689 -4.767223537889171, -32.6257479733472 -4.982005689681831, -32.44518225279617 -5.525840870740911 M-32.44518225279617 -5.525840870740911 C-32.314748430763245 -5.848014932928629, -32.184314608730325 -6.170188995116347, -32.060289468253 -6.476533489958299 M-32.44518225279617 -5.525840870740911 C-32.359897650282605 -5.736495487815034, -32.274613047769044 -5.9471501048891575, -32.060289468253 -6.476533489958299 M-32.060289468253 -6.476533489958299 C-31.927623711970515 -6.7520167714713315, -31.79495795568803 -7.027500052984364, -31.615276401968003 -7.400612643853359 M-32.060289468253 -6.476533489958299 C-31.88572202994024 -6.839026510759569, -31.711154591627476 -7.201519531560841, -31.615276401968003 -7.400612643853359 M-31.615276401968003 -7.400612643853359 C-31.441348863015545 -7.709438601336558, -31.267421324063086 -8.018264558819757, -31.111971708085537 -8.294281092968404 M-31.615276401968003 -7.400612643853359 C-31.417301597306047 -7.752136956653472, -31.21932679264409 -8.103661269453585, -31.111971708085537 -8.294281092968404 M-31.111971708085537 -8.294281092968404 C-30.98183870683178 -8.49420032849786, -30.85170570557802 -8.694119564027314, -30.552443573551294 -9.153866561954715 M-31.111971708085537 -8.294281092968404 C-30.958437061701215 -8.53015153964, -30.80490241531689 -8.766021986311594, -30.552443573551294 -9.153866561954715 M-30.552443573551294 -9.153866561954715 C-30.33197834240207 -9.449269886898932, -30.111513111252847 -9.74467321184315, -29.93899121948848 -9.975836829739734 M-30.552443573551294 -9.153866561954715 C-30.33261437077206 -9.448417666826526, -30.112785167992822 -9.742968771698337, -29.93899121948848 -9.975836829739734 M-29.93899121948848 -9.975836829739734 C-29.785348653265324 -10.156314130535135, -29.63170608704217 -10.336791431330537, -29.274135453205055 -10.756814244181063 M-29.93899121948848 -9.975836829739734 C-29.772217044566705 -10.171739265322236, -29.60544286964493 -10.367641700904738, -29.274135453205055 -10.756814244181063 M-29.274135453205055 -10.756814244181063 C-29.087817607998343 -10.949202716336568, -28.901499762791634 -11.141591188492074, -28.56060830965579 -11.493589601563633 M-29.274135453205055 -10.756814244181063 C-29.036205312604633 -11.002496648778832, -28.79827517200421 -11.248179053376603, -28.56060830965579 -11.493589601563633 M-28.56060830965579 -11.493589601563633 C-28.37359993956384 -11.663425655310812, -28.186591569471886 -11.833261709057993, -27.801341824924627 -12.18313533390614 M-28.56060830965579 -11.493589601563633 C-28.40084755876123 -11.638680088488236, -28.241086807866672 -11.783770575412841, -27.801341824924627 -12.18313533390614 M-27.801341824924627 -12.18313533390614 C-27.486512576483477 -12.434203281579805, -27.171683328042327 -12.685271229253472, -26.999455987859463 -12.822617949887302 M-27.801341824924627 -12.18313533390614 C-27.488010610470386 -12.433008639339604, -27.174679396016142 -12.68288194477307, -26.999455987859463 -12.822617949887302 M-26.999455987859463 -12.822617949887302 C-26.765986038203966 -12.985476480015748, -26.53251608854847 -13.148335010144194, -26.158245919368788 -13.409409678269444 M-26.999455987859463 -12.822617949887302 C-26.71432051660811 -13.021516111316634, -26.42918504535676 -13.220414272745966, -26.158245919368788 -13.409409678269444 M-26.158245919368788 -13.409409678269444 C-25.946776215923656 -13.537603855231803, -25.735306512478523 -13.66579803219416, -25.281168332063007 -13.941099265974229 M-26.158245919368788 -13.409409678269444 C-25.94509663597911 -13.538622026464495, -25.731947352589426 -13.667834374659545, -25.281168332063007 -13.941099265974229 M-25.281168332063007 -13.941099265974229 C-25.047561560441217 -14.062971769097038, -24.813954788819427 -14.184844272219848, -24.371827325880936 -14.415501886438705 M-25.281168332063007 -13.941099265974229 C-24.9269851626306 -14.125876398601969, -24.572801993198194 -14.31065353122971, -24.371827325880936 -14.415501886438705 M-24.371827325880936 -14.415501886438705 C-24.15542446808994 -14.511297012220084, -23.93902161029894 -14.60709213800146, -23.433959578069995 -14.830668117536344 M-24.371827325880936 -14.415501886438705 C-24.172242626758504 -14.50385211227046, -23.972657927636075 -14.592202338102215, -23.433959578069995 -14.830668117536344 M-23.433959578069995 -14.830668117536344 C-23.15930825947484 -14.931742341628318, -22.88465694087969 -15.032816565720292, -22.47141898837794 -15.184891952170695 M-23.433959578069995 -14.830668117536344 C-23.181341426289457 -14.923633932568178, -22.928723274508922 -15.016599747600013, -22.47141898837794 -15.184891952170695 M-22.47141898837794 -15.184891952170695 C-22.085684132065918 -15.299376032760525, -21.69994927575389 -15.413860113350356, -21.488160842552134 -15.476717808624466 M-22.47141898837794 -15.184891952170695 C-22.08653584262096 -15.299123249538509, -21.701652696863977 -15.413354546906321, -21.488160842552134 -15.476717808624466 M-21.488160842552134 -15.476717808624466 C-21.19039838319852 -15.544680146890292, -20.892635923844907 -15.612642485156115, -20.488225559221963 -15.704946511857043 M-21.488160842552134 -15.476717808624466 C-21.13160390532751 -15.558099602794524, -20.775046968102888 -15.639481396964584, -20.488225559221963 -15.704946511857043 M-20.488225559221963 -15.704946511857043 C-20.09349094988317 -15.768764142282325, -19.698756340544374 -15.832581772707607, -19.475722086952107 -15.868640221171937 M-20.488225559221963 -15.704946511857043 C-20.170737662043333 -15.756275492917469, -19.853249764864703 -15.807604473977896, -19.475722086952107 -15.868640221171937 M-19.475722086952107 -15.868640221171937 C-19.19013950315066 -15.896190029567956, -18.90455691934921 -15.923739837963973, -18.45481101969141 -15.967126284005381 M-19.475722086952107 -15.868640221171937 C-19.08410828375415 -15.906418733781939, -18.6924944805562 -15.944197246391939, -18.45481101969141 -15.967126284005381 M-18.45481101969141 -15.967126284005381 C-18.21369565926024 -15.974858384311831, -17.972580298829072 -15.98259048461828, -17.429687500000004 -16 M-18.45481101969141 -15.967126284005381 C-18.053516563981802 -15.979995016127715, -17.652222108272195 -15.992863748250048, -17.429687500000004 -16 M-17.429687500000004 -16 C-17.429687500000004 -16, -17.429687500000004 -16, -17.4296875 -16 M-17.429687500000004 -16 C-17.429687500000004 -16, -17.4296875 -16, -17.4296875 -16" stroke="#d62a00" stroke-width="2.5" fill="none" stroke-dasharray="0 0" style="fill:#f53003;stroke:#d62a00;stroke-width:2.5px"/></g><g class="label" style="color:#ffffff" transform="translate(0, -8.5)"><rect/><g><rect class="background" style="stroke: none"/><text y="-10.1" style="fill:#ffffff"><tspan class="text-outer-tspan row" x="0" y="-0.1em" dy="1.1em"><tspan font-style="normal" class="text-inner-tspan" font-weight="normal">Ready</tspan></tspan></text></g></g></g><g class="node default failure" id="my-svg-flowchart-failed-5" data-look="classic" transform="translate(565.66455078125, 105.5)"><rect class="basic label-container" style="fill:#1b1b18;stroke:#1b1b18;stroke-width:2px" rx="5" ry="5" x="-35.4296875" y="-23.5" width="70.859375" height="47"/><g class="label" style="color:#ffffff" transform="translate(0, -8.5)"><rect/><g><rect class="background" style="stroke: none"/><text y="-10.1" style="fill:#ffffff"><tspan class="text-outer-tspan row" x="0" y="-0.1em" dy="1.1em"><tspan font-style="normal" class="text-inner-tspan" font-weight="normal">Failed</tspan></tspan></text></g></g></g><g class="node default active" id="my-svg-flowchart-tearingDown-7" data-look="classic" transform="translate(780.43017578125, 105.5)"><rect class="basic label-container" style="fill:#fff7f5;stroke:#f53003;stroke-width:2px" rx="5" ry="5" x="-59.6171875" y="-23.5" width="119.234375" height="47"/><g class="label" style="color:#1b1b18" transform="translate(0, -8.5)"><rect/><g><rect class="background" style="stroke: none"/><text y="-10.1" style="fill:#1b1b18"><tspan class="text-outer-tspan row" x="0" y="-0.1em" dy="1.1em"><tspan font-style="normal" class="text-inner-tspan" font-weight="normal">Tearing</tspan><tspan font-style="normal" class="text-inner-tspan" font-weight="normal"> down</tspan></tspan></text></g></g></g></g></g><marker id="my-svg_flowchart-v2-pointEnd__f53003" class="marker flowchart-v2" viewBox="0 0 10 10" refX="5" refY="5" markerUnits="userSpaceOnUse" markerWidth="8" markerHeight="8" orient="auto"><path d="M 0 0 L 10 5 L 0 10 z" class="arrowMarkerPath" style="stroke-width: 1; stroke-dasharray: 1, 0;" stroke="#f53003" fill="#f53003"/></marker><marker id="my-svg_flowchart-v2-pointEnd__1b1b18" class="marker flowchart-v2" viewBox="0 0 10 10" refX="5" refY="5" markerUnits="userSpaceOnUse" markerWidth="8" markerHeight="8" orient="auto"><path d="M 0 0 L 10 5 L 0 10 z" class="arrowMarkerPath" style="stroke-width: 1; stroke-dasharray: 1, 0;" stroke="#1b1b18" fill="#1b1b18"/></marker></g><defs><filter id="my-svg-drop-shadow" height="130%" width="130%"><feDropShadow dx="4" dy="4" stdDeviation="0" flood-opacity="0.06" flood-color="#000000"/></filter></defs><defs><filter id="my-svg-drop-shadow-small" height="150%" width="150%"><feDropShadow dx="2" dy="2" stdDeviation="0" flood-opacity="0.06" flood-color="#000000"/></filter></defs><linearGradient id="my-svg-gradient" gradientUnits="objectBoundingBox" x1="0%" y1="0%" x2="100%" y2="0%"><stop offset="0%" stop-color="#f53003" stop-opacity="1"/><stop offset="100%" stop-color="hsl(0, 0%, 90%)" stop-opacity="1"/></linearGradient>
<style id="harbour-adaptive-theme">
    #my-svg {
        color-scheme: light dark;
        background-color: transparent !important;
    }

    #my-svg .cluster > rect {
        rx: 10px;
        ry: 10px;
    }

    @media (prefers-color-scheme: dark) {
        #my-svg .cluster[id$="-without"] > rect {
            fill: #1b1b18 !important;
            stroke: #4a4a45 !important;
        }

        #my-svg .cluster[id$="-with"] > rect {
            fill: #271714 !important;
            stroke: #ff4438 !important;
        }

        #my-svg .cluster[id$="-without"] .cluster-label text {
            fill: #c7c7c1 !important;
        }

        #my-svg .cluster[id$="-with"] .cluster-label text {
            fill: #ff6b62 !important;
        }

        #my-svg .node.muted rect,
        #my-svg .node.stack rect,
        #my-svg .node.adapter rect,
        #my-svg .node.neutral rect {
            fill: #242422 !important;
            stroke: #5b5b56 !important;
        }

        #my-svg .node.muted text,
        #my-svg .node.muted tspan,
        #my-svg .node.stack text,
        #my-svg .node.stack tspan,
        #my-svg .node.adapter text,
        #my-svg .node.adapter tspan,
        #my-svg .node.neutral text,
        #my-svg .node.neutral tspan {
            fill: #d6d6d1 !important;
        }

        #my-svg .node.shared rect,
        #my-svg .node.entry rect,
        #my-svg .node.failure rect {
            fill: #30302d !important;
            stroke: #73736d !important;
        }

        #my-svg .node.shared text,
        #my-svg .node.shared tspan,
        #my-svg .node.entry text,
        #my-svg .node.entry tspan,
        #my-svg .node.failure text,
        #my-svg .node.failure tspan {
            fill: #ffffff !important;
        }

        #my-svg .node.workspace rect,
        #my-svg .node.domain rect,
        #my-svg .node.active rect {
            fill: #321815 !important;
            stroke: #ff4438 !important;
        }

        #my-svg .node.workspace text,
        #my-svg .node.workspace tspan,
        #my-svg .node.domain text,
        #my-svg .node.domain tspan,
        #my-svg .node.active text,
        #my-svg .node.active tspan {
            fill: #f5f5f3 !important;
        }

        #my-svg .node.harbour rect,
        #my-svg .node.manager rect,
        #my-svg .node.ready rect {
            fill: #f53003 !important;
            stroke: #ff6b62 !important;
        }

        #my-svg .node.harbour text,
        #my-svg .node.harbour tspan,
        #my-svg .node.manager text,
        #my-svg .node.manager tspan,
        #my-svg .node.ready text,
        #my-svg .node.ready tspan {
            fill: #ffffff !important;
        }

        #my-svg .edgeLabel rect,
        #my-svg .labelBkg {
            fill: #161615 !important;
            opacity: 0.96 !important;
        }

        #my-svg .edgeLabel text,
        #my-svg .edgeLabel tspan {
            fill: #e8e8e5 !important;
        }
    }
</style>
</svg>