<!-- harbour:mermaid-source-sha256=4b2a952801d561277cd6063573788f3754233e1a0f53fe901ada3628a405833a -->
<svg id="my-svg" width="100%" xmlns="http://www.w3.org/2000/svg" xmlns:xlink="http://www.w3.org/1999/xlink" class="flowchart" style="max-width: 848.047px; background-color: white;" viewBox="0 0 848.04736328125 178.5" role="graphics-document document" aria-roledescription="flowchart-v2" aria-describedby="chart-desc-my-svg" aria-labelledby="chart-title-my-svg"><title id="chart-title-my-svg">Harbour workspace lifecycle</title><desc id="chart-desc-my-svg">An absent workspace enters preparing and then ready. Preparing can fail. Ready or failed workspaces enter tearing down, which returns them to absent.</desc><style>#my-svg{font-family:Arial,sans-serif;font-size:15px;fill:#1b1b18;}@keyframes edge-animation-frame{from{stroke-dashoffset:0;}}@keyframes dash{to{stroke-dashoffset:0;}}#my-svg .edge-animation-slow{stroke-dasharray:9,5!important;stroke-dashoffset:900;animation:dash 50s linear infinite;stroke-linecap:round;}#my-svg .edge-animation-fast{stroke-dasharray:9,5!important;stroke-dashoffset:900;animation:dash 20s linear infinite;stroke-linecap:round;}#my-svg .error-icon{fill:#f7f7f5;}#my-svg .error-text{fill:#08080a;stroke:#08080a;}#my-svg .edge-thickness-normal{stroke-width:1px;}#my-svg .edge-thickness-thick{stroke-width:3.5px;}#my-svg .edge-pattern-solid{stroke-dasharray:0;}#my-svg .edge-thickness-invisible{stroke-width:0;fill:none;}#my-svg .edge-pattern-dashed{stroke-dasharray:3;}#my-svg .edge-pattern-dotted{stroke-dasharray:2;}#my-svg .marker{fill:#a8a8a4;stroke:#a8a8a4;}#my-svg .marker.cross{stroke:#a8a8a4;}#my-svg svg{font-family:Arial,sans-serif;font-size:15px;}#my-svg p{margin:0;}#my-svg .label{font-family:Arial,sans-serif;color:#1b1b18;}#my-svg .cluster-label text{fill:#08080a;}#my-svg .cluster-label span{color:#08080a;}#my-svg .cluster-label span p{background-color:transparent;}#my-svg .label text,#my-svg span{fill:#1b1b18;color:#1b1b18;}#my-svg .node rect,#my-svg .node circle,#my-svg .node ellipse,#my-svg .node polygon,#my-svg .node path{fill:#fff7f5;stroke:#f53003;stroke-width:1px;}#my-svg .rough-node .label text,#my-svg .node .label text,#my-svg .image-shape .label,#my-svg .icon-shape .label{text-anchor:middle;}#my-svg .node .katex path{fill:#000;stroke:#000;stroke-width:1px;}#my-svg .rough-node .label,#my-svg .node .label,#my-svg .image-shape .label,#my-svg .icon-shape .label{text-align:center;}#my-svg .node.clickable{cursor:pointer;}#my-svg .root .anchor path{fill:#a8a8a4!important;stroke-width:0;stroke:#a8a8a4;}#my-svg .arrowheadPath{fill:#000000;}#my-svg .edgePaths .path{stroke:#a8a8a4;stroke-width:1px;}#my-svg .flowchart-link{stroke:#a8a8a4;fill:none;}#my-svg .edgeLabel{background-color:#ffffff;text-align:center;}#my-svg .edgeLabel p{background-color:#ffffff;}#my-svg .edgeLabel rect{opacity:0.5;background-color:#ffffff;fill:#ffffff;}#my-svg .labelBkg{background-color:rgba(255, 255, 255, 0.5);}#my-svg .cluster rect{fill:#fdfdfc;stroke:#e3e3e0;stroke-width:1px;}#my-svg .cluster text{fill:#08080a;}#my-svg .cluster span{color:#08080a;}#my-svg .node .collapsed-indicator{fill:#e3e3e0;stroke:none;opacity:0.6;}#my-svg .node .collapsed-separator{stroke:#e3e3e0;stroke-width:0.75px;}#my-svg div.mermaidTooltip{position:absolute;text-align:center;max-width:200px;padding:2px;font-family:Arial,sans-serif;font-size:12px;background:#f7f7f5;border:1px solid hsl(60, 0%, 86.4705882353%);border-radius:2px;pointer-events:none;z-index:100;}#my-svg .flowchartTitleText{text-anchor:middle;font-size:18px;fill:#1b1b18;}#my-svg rect.text{fill:none;stroke-width:0;}#my-svg .icon-shape,#my-svg .image-shape{background-color:#ffffff;text-align:center;}#my-svg .icon-shape p,#my-svg .image-shape p{background-color:#ffffff;padding:2px;}#my-svg .icon-shape .label rect,#my-svg .image-shape .label rect{opacity:0.5;background-color:#ffffff;fill:#ffffff;}#my-svg .label-icon{display:inline-block;height:1em;overflow:visible;vertical-align:-0.125em;}#my-svg .node .label-icon path{fill:currentColor;stroke:revert;stroke-width:revert;}#my-svg .node .neo-node{stroke:#f53003;}#my-svg [data-look="neo"].node rect,#my-svg [data-look="neo"].cluster rect,#my-svg [data-look="neo"].node polygon{stroke:url(#my-svg-gradient);filter:drop-shadow( 1px 2px 2px rgba(185,185,185,1));}#my-svg [data-look="neo"].swimlane.cluster rect{filter:none;}#my-svg [data-look="neo"].node path{stroke:url(#my-svg-gradient);stroke-width:1px;}#my-svg [data-look="neo"].node .outer-path{filter:drop-shadow( 1px 2px 2px rgba(185,185,185,1));}#my-svg [data-look="neo"].node .neo-line path{stroke:#f53003;filter:none;}#my-svg [data-look="neo"].node circle{stroke:url(#my-svg-gradient);filter:drop-shadow( 1px 2px 2px rgba(185,185,185,1));}#my-svg [data-look="neo"].node circle .state-start{fill:#000000;}#my-svg [data-look="neo"].icon-shape .icon{fill:url(#my-svg-gradient);filter:drop-shadow( 1px 2px 2px rgba(185,185,185,1));}#my-svg [data-look="neo"].icon-shape .icon-neo path{stroke:url(#my-svg-gradient);filter:drop-shadow( 1px 2px 2px rgba(185,185,185,1));}#my-svg :root{--mermaid-font-family:Arial,sans-serif;}#my-svg .neutral rect{fill:rgb(255, 255, 255)!important;stroke:rgb(168, 168, 164)!important;color:rgb(112, 111, 108)!important;stroke-width:1.5px!important;}#my-svg .neutral polygon{fill:rgb(255, 255, 255)!important;stroke:rgb(168, 168, 164)!important;color:rgb(112, 111, 108)!important;stroke-width:1.5px!important;}#my-svg .neutral ellipse{fill:rgb(255, 255, 255)!important;stroke:rgb(168, 168, 164)!important;color:rgb(112, 111, 108)!important;stroke-width:1.5px!important;}#my-svg .neutral circle{fill:rgb(255, 255, 255)!important;stroke:rgb(168, 168, 164)!important;color:rgb(112, 111, 108)!important;stroke-width:1.5px!important;}#my-svg .neutral path{fill:rgb(255, 255, 255)!important;stroke:rgb(168, 168, 164)!important;color:rgb(112, 111, 108)!important;stroke-width:1.5px!important;}#my-svg .neutral tspan{fill:rgb(112, 111, 108)!important;}#my-svg .active rect{fill:rgb(255, 247, 245)!important;stroke:rgb(245, 48, 3)!important;color:rgb(27, 27, 24)!important;stroke-width:2px!important;}#my-svg .active polygon{fill:rgb(255, 247, 245)!important;stroke:rgb(245, 48, 3)!important;color:rgb(27, 27, 24)!important;stroke-width:2px!important;}#my-svg .active ellipse{fill:rgb(255, 247, 245)!important;stroke:rgb(245, 48, 3)!important;color:rgb(27, 27, 24)!important;stroke-width:2px!important;}#my-svg .active circle{fill:rgb(255, 247, 245)!important;stroke:rgb(245, 48, 3)!important;color:rgb(27, 27, 24)!important;stroke-width:2px!important;}#my-svg .active path{fill:rgb(255, 247, 245)!important;stroke:rgb(245, 48, 3)!important;color:rgb(27, 27, 24)!important;stroke-width:2px!important;}#my-svg .active tspan{fill:rgb(27, 27, 24)!important;}#my-svg .ready rect{fill:rgb(245, 48, 3)!important;stroke:rgb(214, 42, 0)!important;color:rgb(255, 255, 255)!important;stroke-width:2.5px!important;}#my-svg .ready polygon{fill:rgb(245, 48, 3)!important;stroke:rgb(214, 42, 0)!important;color:rgb(255, 255, 255)!important;stroke-width:2.5px!important;}#my-svg .ready ellipse{fill:rgb(245, 48, 3)!important;stroke:rgb(214, 42, 0)!important;color:rgb(255, 255, 255)!important;stroke-width:2.5px!important;}#my-svg .ready circle{fill:rgb(245, 48, 3)!important;stroke:rgb(214, 42, 0)!important;color:rgb(255, 255, 255)!important;stroke-width:2.5px!important;}#my-svg .ready path{fill:rgb(245, 48, 3)!important;stroke:rgb(214, 42, 0)!important;color:rgb(255, 255, 255)!important;stroke-width:2.5px!important;}#my-svg .ready tspan{fill:rgb(255, 255, 255)!important;}#my-svg .failure rect{fill:rgb(27, 27, 24)!important;stroke:rgb(27, 27, 24)!important;color:rgb(255, 255, 255)!important;stroke-width:2px!important;}#my-svg .failure polygon{fill:rgb(27, 27, 24)!important;stroke:rgb(27, 27, 24)!important;color:rgb(255, 255, 255)!important;stroke-width:2px!important;}#my-svg .failure ellipse{fill:rgb(27, 27, 24)!important;stroke:rgb(27, 27, 24)!important;color:rgb(255, 255, 255)!important;stroke-width:2px!important;}#my-svg .failure circle{fill:rgb(27, 27, 24)!important;stroke:rgb(27, 27, 24)!important;color:rgb(255, 255, 255)!important;stroke-width:2px!important;}#my-svg .failure path{fill:rgb(27, 27, 24)!important;stroke:rgb(27, 27, 24)!important;color:rgb(255, 255, 255)!important;stroke-width:2px!important;}#my-svg .failure tspan{fill:rgb(255, 255, 255)!important;}</style><g><marker id="my-svg_flowchart-v2-pointEnd" class="marker flowchart-v2" viewBox="0 0 10 10" refX="5" refY="5" markerUnits="userSpaceOnUse" markerWidth="8" markerHeight="8" orient="auto"><path d="M 0 0 L 10 5 L 0 10 z" class="arrowMarkerPath" style="stroke-width: 1; stroke-dasharray: 1, 0;"/></marker><marker id="my-svg_flowchart-v2-pointStart" class="marker flowchart-v2" viewBox="0 0 10 10" refX="4.5" refY="5" markerUnits="userSpaceOnUse" markerWidth="8" markerHeight="8" orient="auto"><path d="M 0 5 L 10 10 L 10 0 z" class="arrowMarkerPath" style="stroke-width: 1; stroke-dasharray: 1, 0;"/></marker><marker id="my-svg_flowchart-v2-pointEnd-margin" class="marker flowchart-v2" viewBox="0 0 11.5 14" refX="11.5" refY="7" markerUnits="userSpaceOnUse" markerWidth="10.5" markerHeight="14" orient="auto"><path d="M 0 0 L 11.5 7 L 0 14 z" class="arrowMarkerPath" style="stroke-width: 0; stroke-dasharray: 1, 0;"/></marker><marker id="my-svg_flowchart-v2-pointStart-margin" class="marker flowchart-v2" viewBox="0 0 11.5 14" refX="1" refY="7" markerUnits="userSpaceOnUse" markerWidth="11.5" markerHeight="14" orient="auto"><polygon points="0,7 11.5,14 11.5,0" class="arrowMarkerPath" style="stroke-width: 0; stroke-dasharray: 1, 0;"/></marker><marker id="my-svg_flowchart-v2-circleEnd" class="marker flowchart-v2" viewBox="0 0 10 10" refX="11" refY="5" markerUnits="userSpaceOnUse" markerWidth="11" markerHeight="11" orient="auto"><circle cx="5" cy="5" r="5" class="arrowMarkerPath" style="stroke-width: 1; stroke-dasharray: 1, 0;"/></marker><marker id="my-svg_flowchart-v2-circleStart" class="marker flowchart-v2" viewBox="0 0 10 10" refX="-1" refY="5" markerUnits="userSpaceOnUse" markerWidth="11" markerHeight="11" orient="auto"><circle cx="5" cy="5" r="5" class="arrowMarkerPath" style="stroke-width: 1; stroke-dasharray: 1, 0;"/></marker><marker id="my-svg_flowchart-v2-circleEnd-margin" class="marker flowchart-v2" viewBox="0 0 10 10" refY="5" refX="12.25" markerUnits="userSpaceOnUse" markerWidth="14" markerHeight="14" orient="auto"><circle cx="5" cy="5" r="5" class="arrowMarkerPath" style="stroke-width: 0; stroke-dasharray: 1, 0;"/></marker><marker id="my-svg_flowchart-v2-circleStart-margin" class="marker flowchart-v2" viewBox="0 0 10 10" refX="-2" refY="5" markerUnits="userSpaceOnUse" markerWidth="14" markerHeight="14" orient="auto"><circle cx="5" cy="5" r="5" class="arrowMarkerPath" style="stroke-width: 0; stroke-dasharray: 1, 0;"/></marker><marker id="my-svg_flowchart-v2-crossEnd" class="marker cross flowchart-v2" viewBox="0 0 11 11" refX="12" refY="5.2" markerUnits="userSpaceOnUse" markerWidth="11" markerHeight="11" orient="auto"><path d="M 1,1 l 9,9 M 10,1 l -9,9" class="arrowMarkerPath" style="stroke-width: 2; stroke-dasharray: 1, 0;"/></marker><marker id="my-svg_flowchart-v2-crossStart" class="marker cross flowchart-v2" viewBox="0 0 11 11" refX="-1" refY="5.2" markerUnits="userSpaceOnUse" markerWidth="11" markerHeight="11" orient="auto"><path d="M 1,1 l 9,9 M 10,1 l -9,9" class="arrowMarkerPath" style="stroke-width: 2; stroke-dasharray: 1, 0;"/></marker><marker id="my-svg_flowchart-v2-crossEnd-margin" class="marker cross flowchart-v2" viewBox="0 0 15 15" refX="17.7" refY="7.5" markerUnits="userSpaceOnUse" markerWidth="12" markerHeight="12" orient="auto"><path d="M 1,1 L 14,14 M 1,14 L 14,1" class="arrowMarkerPath" style="stroke-width: 2.5;"/></marker><marker id="my-svg_flowchart-v2-crossStart-margin" class="marker cross flowchart-v2" viewBox="0 0 15 15" refX="-3.5" refY="7.5" markerUnits="userSpaceOnUse" markerWidth="12" markerHeight="12" orient="auto"><path d="M 1,1 L 14,14 M 1,14 L 14,1" class="arrowMarkerPath" style="stroke-width: 2.5; stroke-dasharray: 1, 0;"/></marker><g class="root"><g class="clusters"/><g class="edgePaths"><path d="M85.532,83.518L99.829,80.39C114.125,77.262,142.719,71.006,170.646,67.878C198.573,64.75,225.834,64.75,239.464,64.75L253.094,64.75" id="my-svg-L_absent_preparing_0" class="edge-thickness-normal edge-pattern-solid edge-thickness-normal edge-pattern-solid flowchart-link" style="stroke:#f53003;stroke-width:2px;fill:none;;;stroke:#f53003;stroke-width:2px;fill:none" data-edge="true" data-et="edge" data-id="L_absent_preparing_0" data-points="W3sieCI6ODUuNTMxNzM4MjgxMjUsInkiOjgzLjUxODMxMDk3MDQxMDM3fSx7IngiOjE3MS4zMTI5ODgyODEyNSwieSI6NjQuNzV9LHsieCI6MjU3LjA5NDIzODI4MTI1LCJ5Ijo2NC43NX1d" data-look="classic" marker-end="url(#my-svg_flowchart-v2-pointEnd__f53003)"/><path d="M352.141,50.57L366.982,46.142C381.823,41.713,411.506,32.857,440.939,28.508C470.373,24.159,499.558,24.319,514.151,24.398L528.743,24.478" id="my-svg-L_preparing_ready_0" class="edge-thickness-normal edge-pattern-solid edge-thickness-normal edge-pattern-solid flowchart-link" style="stroke:#f53003;stroke-width:2px;fill:none;;;stroke:#f53003;stroke-width:2px;fill:none" data-edge="true" data-et="edge" data-id="L_preparing_ready_0" data-points="W3sieCI6MzUyLjE0MTExMzI4MTI1LCJ5Ijo1MC41Njk5MDQ0Njc3MDc4fSx7IngiOjQ0MS4xODc5ODgyODEyNSwieSI6MjR9LHsieCI6NTMyLjc0MzA4Mzk1Mzg1ODksInkiOjI0LjV9XQ==" data-look="classic" marker-end="url(#my-svg_flowchart-v2-pointEnd__f53003)"/><path d="M352.141,78.93L366.982,83.358C381.823,87.787,411.506,96.643,440.521,101.072C469.537,105.5,497.886,105.5,512.06,105.5L526.235,105.5" id="my-svg-L_preparing_failed_0" class="edge-thickness-normal edge-pattern-solid edge-thickness-normal edge-pattern-solid flowchart-link" style="stroke:#1b1b18;stroke-width:2px;fill:none;;;stroke:#1b1b18;stroke-width:2px;fill:none" data-edge="true" data-et="edge" data-id="L_preparing_failed_0" data-points="W3sieCI6MzUyLjE0MTExMzI4MTI1LCJ5Ijo3OC45MzAwOTU1MzIyOTIyfSx7IngiOjQ0MS4xODc5ODgyODEyNSwieSI6MTA1LjV9LHsieCI6NTMwLjIzNDg2MzI4MTI1LCJ5IjoxMDUuNX1d" data-look="classic" marker-end="url(#my-svg_flowchart-v2-pointEnd__1b1b18)"/><path d="M599.586,24.5L609.814,24.417C620.042,24.333,640.498,24.167,664.346,33.374C688.194,42.582,715.435,61.164,729.055,70.455L742.675,79.746" id="my-svg-L_ready_tearingDown_0" class="edge-thickness-normal edge-pattern-solid edge-thickness-normal edge-pattern-solid flowchart-link" style="stroke:#f53003;stroke-width:2px;fill:none;;;stroke:#f53003;stroke-width:2px;fill:none" data-edge="true" data-et="edge" data-id="L_ready_tearingDown_0" data-points="W3sieCI6NTk5LjU4NjAxNzg3MjI3OSwieSI6MjQuNX0seyJ4Ijo2NjAuOTUzNjEzMjgxMjUsInkiOjI0fSx7IngiOjc0NS45Nzk4Nzg2MTg2NzMzLCJ5Ijo4Mn1d" data-look="classic" marker-end="url(#my-svg_flowchart-v2-pointEnd__f53003)"/><path d="M601.094,105.5L611.071,105.5C621.047,105.5,641,105.5,660.287,105.5C679.573,105.5,698.193,105.5,707.503,105.5L716.813,105.5" id="my-svg-L_failed_tearingDown_0" class="edge-thickness-normal edge-pattern-solid edge-thickness-normal edge-pattern-solid flowchart-link" style="stroke:#f53003;stroke-width:2px;fill:none;;;stroke:#f53003;stroke-width:2px;fill:none" data-edge="true" data-et="edge" data-id="L_failed_tearingDown_0" data-points="W3sieCI6NjAxLjA5NDIzODI4MTI1LCJ5IjoxMDUuNX0seyJ4Ijo2NjAuOTUzNjEzMjgxMjUsInkiOjEwNS41fSx7IngiOjcyMC44MTI5ODgyODEyNSwieSI6MTA1LjV9XQ==" data-look="classic" marker-end="url(#my-svg_flowchart-v2-pointEnd__f53003)"/><path d="M728.913,129L717.586,134.167C706.26,139.333,683.607,149.667,656.399,154.833C629.191,160,597.428,160,560.8,160C524.172,160,482.68,160,439.172,160C395.665,160,350.141,160,305.162,160C260.183,160,215.748,160,179.819,152.514C143.89,145.027,116.466,130.055,102.754,122.568L89.043,115.082" id="my-svg-L_tearingDown_absent_0" class="edge-thickness-normal edge-pattern-solid edge-thickness-normal edge-pattern-solid flowchart-link" style="stroke:#f53003;stroke-width:2px;fill:none;;;stroke:#f53003;stroke-width:2px;fill:none" data-edge="true" data-et="edge" data-id="L_tearingDown_absent_0" data-points="W3sieCI6NzI4LjkxMjc1ODkyMzQ1MTksInkiOjEyOX0seyJ4Ijo2NjAuOTUzNjEzMjgxMjUsInkiOjE2MH0seyJ4Ijo1NjUuNjY0NTUwNzgxMjUsInkiOjE2MH0seyJ4Ijo0NDEuMTg3OTg4MjgxMjUsInkiOjE2MH0seyJ4IjozMDQuNjE3Njc1NzgxMjUsInkiOjE2MH0seyJ4IjoxNzEuMzEyOTg4MjgxMjUsInkiOjE2MH0seyJ4Ijo4NS41MzE3MzgyODEyNSwieSI6MTEzLjE2NTMxNTc0MzU2MzF9XQ==" data-look="classic" marker-end="url(#my-svg_flowchart-v2-pointEnd__f53003)"/></g><g class="edgeLabels"><g class="edgeLabel" transform="translate(171.31298828125, 64.75)"><g class="label" data-id="L_absent_preparing_0" transform="translate(0.5, -9.5)"><g><rect class="background" style="" x="-59.28125" y="-1" width="117.5625" height="21"/><text y="-10.1" text-anchor="middle" style=""><tspan class="text-outer-tspan row" x="0" y="-0.1em" dy="1.1em" text-anchor="middle"><tspan font-style="normal" class="text-inner-tspan" font-weight="normal">workspace:setup</tspan></tspan></text></g></g></g><g class="edgeLabel" transform="translate(441.18798828125, 24)"><g class="label" data-id="L_preparing_ready_0" transform="translate(0, -9.5)"><g><rect class="background" style="" x="-33.6875" y="-1" width="67.375" height="21"/><text y="-10.1" text-anchor="middle" style=""><tspan class="text-outer-tspan row" x="0" y="-0.1em" dy="1.1em" text-anchor="middle"><tspan font-style="normal" class="text-inner-tspan" font-weight="normal">succeeds</tspan></tspan></text></g></g></g><g class="edgeLabel" transform="translate(441.18798828125, 105.5)"><g class="label" data-id="L_preparing_failed_0" transform="translate(0, -9.5)"><g><rect class="background" style="" x="-15.34375" y="-1" width="30.6875" height="21"/><text y="-10.1" text-anchor="middle" style=""><tspan class="text-outer-tspan row" x="0" y="-0.1em" dy="1.1em" text-anchor="middle"><tspan font-style="normal" class="text-inner-tspan" font-weight="normal">fails</tspan></tspan></text></g></g></g><g class="edgeLabel" transform="translate(660.95361328125, 24)"><g class="label" data-id="L_ready_tearingDown_0" transform="translate(0, -9.5)"><g><rect class="background" style="" x="-32.859375" y="-1" width="65.71875" height="21"/><text y="-10.1" text-anchor="middle" style=""><tspan class="text-outer-tspan row" x="0" y="-0.1em" dy="1.1em" text-anchor="middle"><tspan font-style="normal" class="text-inner-tspan" font-weight="normal">teardown</tspan></tspan></text></g></g></g><g class="edgeLabel" transform="translate(660.95361328125, 105.5)"><g class="label" data-id="L_failed_tearingDown_0" transform="translate(0, -9.5)"><g><rect class="background" style="" x="-32.859375" y="-1" width="65.71875" height="21"/><text y="-10.1" text-anchor="middle" style=""><tspan class="text-outer-tspan row" x="0" y="-0.1em" dy="1.1em" text-anchor="middle"><tspan font-style="normal" class="text-inner-tspan" font-weight="normal">teardown</tspan></tspan></text></g></g></g><g class="edgeLabel" transform="translate(441.18798828125, 160)"><g class="label" data-id="L_tearingDown_absent_0" transform="translate(0, -9.5)"><g><rect class="background" style="" x="-62.046875" y="-1" width="124.09375" height="21"/><text y="-10.1" text-anchor="middle" style=""><tspan class="text-outer-tspan row" x="0" y="-0.1em" dy="1.1em" text-anchor="middle"><tspan font-style="normal" class="text-inner-tspan" font-weight="normal">cleanup</tspan><tspan font-style="normal" class="text-inner-tspan" font-weight="normal"> succeeds</tspan></tspan></text></g></g></g></g><g class="nodes"><g class="node default neutral" id="my-svg-flowchart-absent-0" data-look="classic" transform="translate(46.765869140625, 92)"><rect class="basic label-container" style="fill:#ffffff !important;stroke:#a8a8a4 !important;stroke-width:1.5px !important" rx="5" ry="5" x="-38.765869140625" y="-23.5" width="77.53173828125" height="47"/><g class="label" style="color:#706f6c !important" transform="translate(0, -8.5)"><rect/><g><rect class="background" style="stroke: none"/><text y="-10.1" style="fill:#706f6c !important"><tspan class="text-outer-tspan row" x="0" y="-0.1em" dy="1.1em"><tspan font-style="normal" class="text-inner-tspan" font-weight="normal">Absent</tspan></tspan></text></g></g></g><g class="node default active" id="my-svg-flowchart-preparing-1" data-look="classic" transform="translate(304.61767578125, 64.75)"><rect class="basic label-container" style="fill:#fff7f5 !important;stroke:#f53003 !important;stroke-width:2px !important" rx="5" ry="5" x="-47.5234375" y="-23.5" width="95.046875" height="47"/><g class="label" style="color:#1b1b18 !important" transform="translate(0, -8.5)"><rect/><g><rect class="background" style="stroke: none"/><text y="-10.1" style="fill:#1b1b18 !important"><tspan class="text-outer-tspan row" x="0" y="-0.1em" dy="1.1em"><tspan font-style="normal" class="text-inner-tspan" font-weight="normal">Preparing</tspan></tspan></text></g></g></g><g class="node default ready" id="my-svg-flowchart-ready-3" data-look="classic" transform="translate(565.66455078125, 24)"><g class="basic label-container outer-path"><path d="M-17.4296875 -16 C-9.012719645197087 -16, -0.5957517903941749 -16, 17.4296875 -16 C17.4296875 -16, 17.4296875 -16, 17.4296875 -16 C17.781460940346395 -15.988719310453556, 18.13323438069279 -15.97743862090711, 18.454811019691405 -15.967126284005381 C18.661975233644426 -15.947141401436753, 18.869139447597448 -15.927156518868124, 19.475722086952093 -15.868640221171939 C19.83054421813184 -15.81127533068952, 20.185366349311593 -15.753910440207104, 20.488225559221956 -15.704946511857047 C20.716676484788113 -15.652804078878182, 20.945127410354274 -15.600661645899315, 21.488160842552116 -15.476717808624471 C21.74399179331927 -15.400788525320843, 21.999822744086423 -15.324859242017217, 22.47141898837793 -15.184891952170698 C22.850708794801207 -15.045309797290397, 23.229998601224484 -14.905727642410094, 23.433959578069985 -14.830668117536348 C23.74624744908026 -14.692427540730652, 24.05853532009054 -14.554186963924957, 24.37182732588093 -14.415501886438706 C24.71422031994975 -14.23687568074618, 25.056613314018573 -14.058249475053657, 25.281168332063 -13.941099265974232 C25.56293284766068 -13.77029196078683, 25.844697363258362 -13.59948465559943, 26.158245919368778 -13.409409678269451 C26.430426504782393 -13.219548284392557, 26.702607090196004 -13.029686890515661, 26.999455987859456 -12.822617949887306 C27.249627400205007 -12.623112905882603, 27.499798812550555 -12.423607861877901, 27.801341824924613 -12.183135333906153 C28.06114719633126 -11.947186969668076, 28.32095256773791 -11.711238605429998, 28.560608309655784 -11.493589601563642 C28.80947970208166 -11.23660945616261, 29.05835109450754 -10.979629310761576, 29.274135453205048 -10.756814244181072 C29.511139408481917 -10.478415912405765, 29.74814336375879 -10.20001758063046, 29.93899121948848 -9.975836829739738 C30.082051811885695 -9.784148669015549, 30.225112404282914 -9.592460508291362, 30.55244357355129 -9.153866561954718 C30.759668114564327 -8.835514019378035, 30.966892655577368 -8.51716147680135, 31.111971708085537 -8.294281092968403 C31.303811077048596 -7.953650867531918, 31.495650446011656 -7.613020642095434, 31.615276401968003 -7.400612643853364 C31.75823310037461 -7.1037600008287045, 31.901189798781218 -6.806907357804044, 32.060289468252996 -6.476533489958305 C32.16798144822769 -6.21053221733802, 32.27567342820239 -5.944530944717736, 32.445182252796165 -5.52584087074093 C32.56769837166153 -5.156841841011097, 32.690214490526884 -4.787842811281264, 32.76837314858657 -4.552441386096524 C32.86896395369271 -4.1688450498960785, 32.96955475879886 -3.7852487136956334, 33.028534094909176 -3.560334943301032 C33.10248411270131 -3.1806172312802303, 33.17643413049344 -2.800899519259428, 33.224596034631205 -2.5535983205340735 C33.275688283677766 -2.157336926234701, 33.32678053272432 -1.7610755319353277, 33.35575330718717 -1.536368414522911 C33.37830464946564 -1.1851130554199127, 33.40085599174411 -0.8338576963169144, 33.421466959211 -0.5128252411464826 C33.421466959211 -0.17712466608702032, 33.421466959211 0.158575908972442, 33.421466959211 0.5128252411464788 C33.40111237216161 0.8298643643676833, 33.38075778511222 1.146903487588888, 33.35575330718717 1.5363684145229002 C33.30343866211229 1.9421104710285046, 33.25112401703742 2.347852527534109, 33.224596034631205 2.5535983205340624 C33.16590301627593 2.854974565014598, 33.10720999792064 3.1563508094951342, 33.028534094909176 3.5603349433010285 C32.92622407259206 3.950487399840334, 32.82391405027496 4.3406398563796404, 32.76837314858657 4.552441386096513 C32.64150037308054 4.9345619714890825, 32.5146275975745 5.316682556881652, 32.445182252796165 5.525840870740919 C32.318326346029465 5.8391774130467855, 32.191470439262766 6.152513955352652, 32.060289468253 6.4765334899583005 C31.96245097701124 6.679697210430178, 31.864612485769474 6.882860930902056, 31.615276401968003 7.400612643853361 C31.511614487740783 7.584674869470851, 31.407952573513565 7.7687370950883405, 31.11197170808554 8.294281092968399 C30.961424180987354 8.525562522262645, 30.81087665388917 8.756843951556892, 30.552443573551297 9.15386656195471 C30.33288157022372 9.448059643903669, 30.113319566896145 9.742252725852628, 29.93899121948848 9.975836829739734 C29.77483178803592 10.168667838860177, 29.61067235658336 10.361498847980618, 29.274135453205055 10.756814244181063 C29.11825986437806 10.91776858726878, 28.962384275551067 11.078722930356498, 28.560608309655784 11.493589601563638 C28.294241589875895 11.735496808790531, 28.027874870096003 11.977404016017426, 27.801341824924627 12.183135333906142 C27.613244230443755 12.33313816001743, 27.425146635962882 12.48314098612872, 26.99945598785946 12.822617949887304 C26.764537614628356 12.986486837600847, 26.529619241397253 13.150355725314391, 26.158245919368788 13.409409678269446 C25.920932889358266 13.553270231667987, 25.683619859347743 13.697130785066529, 25.281168332063004 13.94109926597423 C24.95012443410707 14.113804655494105, 24.619080536151134 14.28651004501398, 24.371827325880933 14.415501886438705 C24.10631641067342 14.53303569249961, 23.840805495465904 14.650569498560515, 23.43395957806999 14.830668117536346 C23.11665901133533 14.947437659188987, 22.79935844460067 15.064207200841627, 22.47141898837794 15.184891952170695 C22.19628989790092 15.266548822042209, 21.921160807423902 15.348205691913723, 21.488160842552134 15.476717808624468 C21.173833717866 15.548460923657897, 20.85950659317987 15.620204038691325, 20.488225559221963 15.704946511857045 C20.27040810272654 15.740161549023622, 20.05259064623112 15.775376586190198, 19.475722086952103 15.868640221171937 C19.14424232001058 15.90061767562604, 18.812762553069057 15.932595130080143, 18.454811019691405 15.967126284005381 C18.07530893771616 15.979296177118336, 17.69580685574091 15.991466070231292, 17.429687500000004 16 C17.429687500000004 16, 17.4296875 16, 17.4296875 16 C9.357937036079942 16, 1.2861865721598846 16, -17.429687499999996 16 C-17.79538284499949 15.988272862068674, -18.161078189998985 15.976545724137347, -18.454811019691398 15.967126284005381 C-18.68465866817093 15.944953157788802, -18.91450631665046 15.922780031572222, -19.4757220869521 15.868640221171937 C-19.726947295305074 15.828024077766017, -19.978172503658044 15.787407934360097, -20.488225559221956 15.704946511857045 C-20.88004376729666 15.615516562716753, -21.27186197537136 15.52608661357646, -21.488160842552112 15.476717808624471 C-21.788898057020777 15.387460581972025, -22.089635271489442 15.298203355319577, -22.471418988377923 15.184891952170702 C-22.72009555396501 15.093376677293682, -22.968772119552092 15.001861402416662, -23.433959578069988 14.830668117536348 C-23.7042823567137 14.711004242271095, -23.974605135357418 14.591340367005841, -24.37182732588093 14.415501886438708 C-24.657035544961975 14.26670894122871, -24.942243764043017 14.117915996018713, -25.281168332063 13.941099265974234 C-25.484092985845365 13.818085148333731, -25.68701763962773 13.69507103069323, -26.158245919368767 13.409409678269457 C-26.4715266159838 13.190878626013589, -26.78480731259884 12.972347573757721, -26.999455987859456 12.822617949887308 C-27.31594600778169 12.570225581152464, -27.632436027703925 12.317833212417622, -27.801341824924613 12.183135333906154 C-27.98070510579246 12.020242347914333, -28.160068386660303 11.857349361922513, -28.560608309655777 11.493589601563649 C-28.801901185105418 11.244434897148393, -29.043194060555063 10.995280192733135, -29.274135453205048 10.756814244181069 C-29.49638670311797 10.495745279578973, -29.71863795303089 10.234676314976879, -29.938991219488475 9.97583682973974 C-30.083359892862216 9.782395959675641, -30.227728566235953 9.588955089611542, -30.55244357355129 9.15386656195472 C-30.76718904046093 8.823959857549472, -30.981934507370575 8.494053153144222, -31.111971708085534 8.29428109296841 C-31.310911775340152 7.941042858691593, -31.509851842594767 7.587804624414776, -31.615276401968 7.400612643853366 C-31.73914584905392 7.143395086597868, -31.86301529613984 6.886177529342372, -32.060289468252996 6.476533489958307 C-32.167728392289234 6.211157270398518, -32.27516731632547 5.945781050838728, -32.445182252796165 5.525840870740931 C-32.54672402686028 5.220013225744417, -32.648265800924406 4.914185580747902, -32.76837314858657 4.552441386096519 C-32.832378204999024 4.3083623660289065, -32.89638326141148 4.064283345961295, -33.028534094909176 3.5603349433010343 C-33.07451127216409 3.3242518553769136, -33.120488449419 3.0881687674527925, -33.224596034631205 2.5535983205340753 C-33.25705184917782 2.301877432036026, -33.289507663724436 2.0501565435379763, -33.35575330718717 1.5363684145229202 C-33.37620429892235 1.2178277105040087, -33.39665529065754 0.8992870064850974, -33.421466959211 0.5128252411464846 C-33.421466959211 0.28116243762375415, -33.421466959211 0.04949963410102359, -33.421466959211 -0.5128252411464769 C-33.40183611234818 -0.8185915267693423, -33.382205265485354 -1.1243578123922078, -33.35575330718717 -1.5363684145228982 C-33.32349268517855 -1.7865754282414035, -33.29123206316993 -2.0367824419599088, -33.224596034631205 -2.5535983205340678 C-33.146181688435995 -2.9562394153685094, -33.06776734224079 -3.3588805102029515, -33.028534094909176 -3.5603349433010267 C-32.92587045346981 -3.9518359028129844, -32.82320681203045 -4.343336862324942, -32.768373148586576 -4.552441386096511 C-32.69327307810186 -4.778630832825197, -32.618173007617145 -5.004820279553883, -32.44518225279617 -5.525840870740911 C-32.30918648120526 -5.861753055869848, -32.17319070961434 -6.197665240998784, -32.060289468253 -6.476533489958299 C-31.92231223521855 -6.763046166594189, -31.784335002184093 -7.049558843230081, -31.615276401968003 -7.400612643853359 C-31.501720355389406 -7.6022429033502625, -31.388164308810808 -7.803873162847166, -31.111971708085537 -8.294281092968404 C-30.92738261099141 -8.577859515217888, -30.742793513897276 -8.861437937467372, -30.552443573551294 -9.153866561954715 C-30.31758980133285 -9.468549221108631, -30.082736029114404 -9.78323188026255, -29.93899121948848 -9.975836829739734 C-29.722544866910845 -10.230087031623786, -29.506098514333214 -10.484337233507837, -29.274135453205055 -10.756814244181063 C-29.06580871734663 -10.97192870289799, -28.857481981488206 -11.187043161614918, -28.56060830965579 -11.493589601563633 C-28.395850193632818 -11.643218563274827, -28.231092077609848 -11.792847524986021, -27.801341824924627 -12.18313533390614 C-27.630856395947117 -12.319092926707906, -27.460370966969602 -12.455050519509674, -26.999455987859463 -12.822617949887302 C-26.675684857594554 -13.048466674533769, -26.351913727329645 -13.274315399180235, -26.158245919368788 -13.409409678269444 C-25.92594153183982 -13.550233963161618, -25.69363714431085 -13.691058248053793, -25.281168332063007 -13.941099265974229 C-25.09517115802754 -14.038133872531656, -24.909173983992073 -14.135168479089083, -24.371827325880936 -14.415501886438705 C-24.09852259405903 -14.536485783919446, -23.82521786223712 -14.657469681400187, -23.433959578069995 -14.830668117536344 C-23.138639496639698 -14.939348637411602, -22.843319415209397 -15.048029157286859, -22.47141898837794 -15.184891952170695 C-22.25349368993771 -15.24957103683452, -22.03556839149748 -15.314250121498347, -21.488160842552134 -15.476717808624466 C-21.251679067804695 -15.53069323052277, -21.015197293057255 -15.584668652421074, -20.488225559221963 -15.704946511857043 C-20.104926373809043 -15.766915351625027, -19.72162718839612 -15.828884191393012, -19.475722086952107 -15.868640221171937 C-19.204626778457136 -15.894792459542638, -18.933531469962166 -15.920944697913336, -18.45481101969141 -15.967126284005381 C-18.237319612099405 -15.974100810125513, -18.0198282045074 -15.981075336245645, -17.429687500000004 -16 C-17.429687500000004 -16, -17.4296875 -16, -17.4296875 -16" stroke="none" stroke-width="0" fill="#f53003" style="fill:#f53003 !important;stroke:#d62a00 !important;stroke-width:2.5px !important"/><path d="M-17.4296875 -16 C-6.410715955270597 -16, 4.608255589458807 -16, 17.4296875 -16 M-17.4296875 -16 C-6.118837535475228 -16, 5.192012429049544 -16, 17.4296875 -16 M17.4296875 -16 C17.4296875 -16, 17.4296875 -16, 17.4296875 -16 M17.4296875 -16 C17.4296875 -16, 17.4296875 -16, 17.4296875 -16 M17.4296875 -16 C17.642934126293678 -15.99316159575414, 17.856180752587356 -15.98632319150828, 18.454811019691405 -15.967126284005381 M17.4296875 -16 C17.66067167685322 -15.992592787031743, 17.891655853706443 -15.985185574063486, 18.454811019691405 -15.967126284005381 M18.454811019691405 -15.967126284005381 C18.83724232817165 -15.930233595617233, 19.219673636651894 -15.893340907229083, 19.475722086952093 -15.868640221171939 M18.454811019691405 -15.967126284005381 C18.81569128341233 -15.93231259898624, 19.176571547133257 -15.8974989139671, 19.475722086952093 -15.868640221171939 M19.475722086952093 -15.868640221171939 C19.869526843323342 -15.804972922163332, 20.263331599694595 -15.741305623154727, 20.488225559221956 -15.704946511857047 M19.475722086952093 -15.868640221171939 C19.73114752631014 -15.827345016990396, 19.986572965668188 -15.786049812808853, 20.488225559221956 -15.704946511857047 M20.488225559221956 -15.704946511857047 C20.782607970078256 -15.637755647603855, 21.076990380934557 -15.570564783350665, 21.488160842552116 -15.476717808624471 M20.488225559221956 -15.704946511857047 C20.7325260775399 -15.649186512760844, 20.976826595857844 -15.593426513664642, 21.488160842552116 -15.476717808624471 M21.488160842552116 -15.476717808624471 C21.722269337233236 -15.40723563626368, 21.956377831914352 -15.337753463902889, 22.47141898837793 -15.184891952170698 M21.488160842552116 -15.476717808624471 C21.694601753090627 -15.415447230007095, 21.901042663629134 -15.354176651389716, 22.47141898837793 -15.184891952170698 M22.47141898837793 -15.184891952170698 C22.78272816405475 -15.070327297811156, 23.094037339731564 -14.955762643451612, 23.433959578069985 -14.830668117536348 M22.47141898837793 -15.184891952170698 C22.736030583310164 -15.087512439192865, 23.0006421782424 -14.990132926215034, 23.433959578069985 -14.830668117536348 M23.433959578069985 -14.830668117536348 C23.7178959194322 -14.704977921887606, 24.00183226079441 -14.579287726238862, 24.37182732588093 -14.415501886438706 M23.433959578069985 -14.830668117536348 C23.778156909646064 -14.678302169098687, 24.122354241222144 -14.525936220661029, 24.37182732588093 -14.415501886438706 M24.37182732588093 -14.415501886438706 C24.670098284798463 -14.259894118223096, 24.968369243715994 -14.104286350007486, 25.281168332063 -13.941099265974232 M24.37182732588093 -14.415501886438706 C24.60189603649691 -14.295475187476391, 24.83196474711289 -14.175448488514077, 25.281168332063 -13.941099265974232 M25.281168332063 -13.941099265974232 C25.526997998239718 -13.792075877682432, 25.77282766441644 -13.643052489390632, 26.158245919368778 -13.409409678269451 M25.281168332063 -13.941099265974232 C25.6001960277131 -13.7477028020563, 25.919223723363203 -13.55430633813837, 26.158245919368778 -13.409409678269451 M26.158245919368778 -13.409409678269451 C26.4614525492921 -13.197905858838402, 26.76465917921543 -12.986402039407352, 26.999455987859456 -12.822617949887306 M26.158245919368778 -13.409409678269451 C26.42997776902621 -13.21986130303061, 26.70170961868364 -13.03031292779177, 26.999455987859456 -12.822617949887306 M26.999455987859456 -12.822617949887306 C27.276916694551375 -12.601350419839994, 27.554377401243297 -12.380082889792682, 27.801341824924613 -12.183135333906153 M26.999455987859456 -12.822617949887306 C27.21868358693046 -12.6477897735196, 27.43791118600146 -12.472961597151896, 27.801341824924613 -12.183135333906153 M27.801341824924613 -12.183135333906153 C27.995621344466144 -12.006695814612938, 28.189900864007676 -11.830256295319725, 28.560608309655784 -11.493589601563642 M27.801341824924613 -12.183135333906153 C28.033790793972116 -11.972031330479906, 28.26623976301962 -11.760927327053661, 28.560608309655784 -11.493589601563642 M28.560608309655784 -11.493589601563642 C28.71831451558142 -11.330744996025121, 28.87602072150705 -11.167900390486599, 29.274135453205048 -10.756814244181072 M28.560608309655784 -11.493589601563642 C28.73209627600202 -11.316514196887272, 28.90358424234826 -11.139438792210905, 29.274135453205048 -10.756814244181072 M29.274135453205048 -10.756814244181072 C29.508881815826115 -10.481067809199935, 29.743628178447178 -10.2053213742188, 29.93899121948848 -9.975836829739738 M29.274135453205048 -10.756814244181072 C29.53130987399656 -10.45472253588027, 29.788484294788066 -10.152630827579467, 29.93899121948848 -9.975836829739738 M29.93899121948848 -9.975836829739738 C30.074513886290916 -9.794248802593406, 30.210036553093353 -9.612660775447075, 30.55244357355129 -9.153866561954718 M29.93899121948848 -9.975836829739738 C30.08392193653787 -9.781642872353498, 30.228852653587257 -9.587448914967258, 30.55244357355129 -9.153866561954718 M30.55244357355129 -9.153866561954718 C30.72782494926348 -8.884433672367289, 30.903206324975667 -8.61500078277986, 31.111971708085537 -8.294281092968403 M30.55244357355129 -9.153866561954718 C30.744798239896696 -8.858358139987956, 30.9371529062421 -8.562849718021194, 31.111971708085537 -8.294281092968403 M31.111971708085537 -8.294281092968403 C31.28851704758664 -7.980806965530035, 31.465062387087748 -7.667332838091667, 31.615276401968003 -7.400612643853364 M31.111971708085537 -8.294281092968403 C31.25228583180523 -8.045139157958364, 31.392599955524922 -7.795997222948323, 31.615276401968003 -7.400612643853364 M31.615276401968003 -7.400612643853364 C31.778151247370776 -7.06239954241109, 31.94102609277355 -6.724186440968816, 32.060289468252996 -6.476533489958305 M31.615276401968003 -7.400612643853364 C31.758671292709934 -7.102850085068591, 31.902066183451865 -6.805087526283819, 32.060289468252996 -6.476533489958305 M32.060289468252996 -6.476533489958305 C32.190065695121945 -6.1559837005393465, 32.31984192199089 -5.835433911120388, 32.445182252796165 -5.52584087074093 M32.060289468252996 -6.476533489958305 C32.155596059452826 -6.241124367067142, 32.250902650652655 -6.00571524417598, 32.445182252796165 -5.52584087074093 M32.445182252796165 -5.52584087074093 C32.53482599940415 -5.255848188749056, 32.62446974601214 -4.985855506757183, 32.76837314858657 -4.552441386096524 M32.445182252796165 -5.52584087074093 C32.526411650214236 -5.281190867864601, 32.607641047632306 -5.036540864988273, 32.76837314858657 -4.552441386096524 M32.76837314858657 -4.552441386096524 C32.85022026275982 -4.240322866990256, 32.93206737693306 -3.9282043478839896, 33.028534094909176 -3.560334943301032 M32.76837314858657 -4.552441386096524 C32.86401065823081 -4.18773411226416, 32.959648167875045 -3.8230268384317947, 33.028534094909176 -3.560334943301032 M33.028534094909176 -3.560334943301032 C33.094266342139385 -3.2228137462892907, 33.15999858936959 -2.885292549277549, 33.224596034631205 -2.5535983205340735 M33.028534094909176 -3.560334943301032 C33.09066568314557 -3.2413023692229723, 33.152797271381964 -2.922269795144913, 33.224596034631205 -2.5535983205340735 M33.224596034631205 -2.5535983205340735 C33.25651569090314 -2.3060357697379716, 33.28843534717509 -2.0584732189418697, 33.35575330718717 -1.536368414522911 M33.224596034631205 -2.5535983205340735 C33.251047232267524 -2.3484480550465294, 33.27749842990385 -2.143297789558985, 33.35575330718717 -1.536368414522911 M33.35575330718717 -1.536368414522911 C33.37883252331628 -1.1768909941041499, 33.40191173944538 -0.8174135736853887, 33.421466959211 -0.5128252411464826 M33.35575330718717 -1.536368414522911 C33.371874082608244 -1.2852743248840144, 33.38799485802931 -1.0341802352451177, 33.421466959211 -0.5128252411464826 M33.421466959211 -0.5128252411464826 C33.421466959211 -0.13708773485422987, 33.421466959211 0.2386497714380229, 33.421466959211 0.5128252411464788 M33.421466959211 -0.5128252411464826 C33.421466959211 -0.129309584280959, 33.421466959211 0.2542060725845646, 33.421466959211 0.5128252411464788 M33.421466959211 0.5128252411464788 C33.40278488359729 0.803813648730048, 33.38410280798358 1.0948020563136174, 33.35575330718717 1.5363684145229002 M33.421466959211 0.5128252411464788 C33.3968598388417 0.896101003408502, 33.37225271847239 1.279376765670525, 33.35575330718717 1.5363684145229002 M33.35575330718717 1.5363684145229002 C33.327040634219834 1.7590582360989864, 33.2983279612525 1.9817480576750726, 33.224596034631205 2.5535983205340624 M33.35575330718717 1.5363684145229002 C33.31432869571187 1.8576495209105766, 33.272904084236565 2.1789306272982527, 33.224596034631205 2.5535983205340624 M33.224596034631205 2.5535983205340624 C33.16150379523621 2.877563635277842, 33.09841155584121 3.2015289500216215, 33.028534094909176 3.5603349433010285 M33.224596034631205 2.5535983205340624 C33.165923042634006 2.854871733898433, 33.1072500506368 3.156145147262803, 33.028534094909176 3.5603349433010285 M33.028534094909176 3.5603349433010285 C32.961930572087695 3.814323041968729, 32.895327049266214 4.068311140636429, 32.76837314858657 4.552441386096513 M33.028534094909176 3.5603349433010285 C32.94571740902458 3.8761508595576926, 32.86290072313999 4.191966775814357, 32.76837314858657 4.552441386096513 M32.76837314858657 4.552441386096513 C32.65737197184027 4.88675924482061, 32.54637079509397 5.2210771035447054, 32.445182252796165 5.525840870740919 M32.76837314858657 4.552441386096513 C32.65984215775492 4.879319438416344, 32.551311166923284 5.206197490736176, 32.445182252796165 5.525840870740919 M32.445182252796165 5.525840870740919 C32.29802719530704 5.889316707788552, 32.15087213781791 6.252792544836185, 32.060289468253 6.4765334899583005 M32.445182252796165 5.525840870740919 C32.367344351494445 5.71810199184962, 32.28950645019272 5.910363112958322, 32.060289468253 6.4765334899583005 M32.060289468253 6.4765334899583005 C31.91875482890573 6.770433196919064, 31.777220189558456 7.064332903879826, 31.615276401968003 7.400612643853361 M32.060289468253 6.4765334899583005 C31.94840515317775 6.708863664152906, 31.836520838102494 6.941193838347512, 31.615276401968003 7.400612643853361 M31.615276401968003 7.400612643853361 C31.50705438475043 7.592771794090725, 31.398832367532854 7.784930944328088, 31.11197170808554 8.294281092968399 M31.615276401968003 7.400612643853361 C31.49033624630438 7.622456541796773, 31.365396090640758 7.844300439740186, 31.11197170808554 8.294281092968399 M31.11197170808554 8.294281092968399 C30.94265453676832 8.554397736138275, 30.773337365451095 8.814514379308152, 30.552443573551297 9.15386656195471 M31.11197170808554 8.294281092968399 C30.90313362557709 8.615112468578594, 30.69429554306864 8.935943844188792, 30.552443573551297 9.15386656195471 M30.552443573551297 9.15386656195471 C30.351069630256834 9.42368930042565, 30.149695686962374 9.693512038896593, 29.93899121948848 9.975836829739734 M30.552443573551297 9.15386656195471 C30.34348562771326 9.433851172917196, 30.134527681875223 9.713835783879684, 29.93899121948848 9.975836829739734 M29.93899121948848 9.975836829739734 C29.80172456926621 10.137078047784478, 29.66445791904394 10.298319265829221, 29.274135453205055 10.756814244181063 M29.93899121948848 9.975836829739734 C29.801802519526174 10.136986482973626, 29.664613819563872 10.298136136207518, 29.274135453205055 10.756814244181063 M29.274135453205055 10.756814244181063 C29.12410563947904 10.911732344529957, 28.974075825753026 11.066650444878851, 28.560608309655784 11.493589601563638 M29.274135453205055 10.756814244181063 C29.10296201409859 10.933564873659197, 28.93178857499213 11.110315503137333, 28.560608309655784 11.493589601563638 M28.560608309655784 11.493589601563638 C28.379504397111358 11.658063383189539, 28.198400484566935 11.82253716481544, 27.801341824924627 12.183135333906142 M28.560608309655784 11.493589601563638 C28.278674897470452 11.749634066961043, 27.996741485285117 12.00567853235845, 27.801341824924627 12.183135333906142 M27.801341824924627 12.183135333906142 C27.63492499902512 12.315848324023275, 27.468508173125613 12.448561314140408, 26.99945598785946 12.822617949887304 M27.801341824924627 12.183135333906142 C27.51735865455743 12.40960435516444, 27.233375484190233 12.636073376422738, 26.99945598785946 12.822617949887304 M26.99945598785946 12.822617949887304 C26.717770413505033 13.019109612584971, 26.436084839150602 13.21560127528264, 26.158245919368788 13.409409678269446 M26.99945598785946 12.822617949887304 C26.687922042042224 13.039930544402251, 26.37638809622499 13.257243138917199, 26.158245919368788 13.409409678269446 M26.158245919368788 13.409409678269446 C25.924989369096924 13.550811169811892, 25.69173281882506 13.692212661354338, 25.281168332063004 13.94109926597423 M26.158245919368788 13.409409678269446 C25.901863825959524 13.56483000996256, 25.64548173255026 13.720250341655674, 25.281168332063004 13.94109926597423 M25.281168332063004 13.94109926597423 C24.922975928869423 14.127968013287138, 24.564783525675843 14.314836760600045, 24.371827325880933 14.415501886438705 M25.281168332063004 13.94109926597423 C25.026738281828102 14.073835260211554, 24.7723082315932 14.206571254448876, 24.371827325880933 14.415501886438705 M24.371827325880933 14.415501886438705 C24.08753073184453 14.541351555259794, 23.803234137808133 14.667201224080886, 23.43395957806999 14.830668117536346 M24.371827325880933 14.415501886438705 C24.070757127071456 14.548776732521528, 23.769686928261983 14.682051578604352, 23.43395957806999 14.830668117536346 M23.43395957806999 14.830668117536346 C23.15328166540024 14.933960183956998, 22.872603752730488 15.03725225037765, 22.47141898837794 15.184891952170695 M23.43395957806999 14.830668117536346 C23.171398190160936 14.927293135377742, 22.908836802251884 15.023918153219137, 22.47141898837794 15.184891952170695 M22.47141898837794 15.184891952170695 C22.103942915948426 15.293956921546508, 21.73646684351891 15.403021890922323, 21.488160842552134 15.476717808624468 M22.47141898837794 15.184891952170695 C22.155405742195494 15.278683024850267, 21.839392496013048 15.372474097529839, 21.488160842552134 15.476717808624468 M21.488160842552134 15.476717808624468 C21.187857544420385 15.54526007676088, 20.88755424628864 15.61380234489729, 20.488225559221963 15.704946511857045 M21.488160842552134 15.476717808624468 C21.247349773528434 15.531681363690042, 21.006538704504734 15.586644918755619, 20.488225559221963 15.704946511857045 M20.488225559221963 15.704946511857045 C20.216368103788085 15.74889831696554, 19.944510648354207 15.792850122074036, 19.475722086952103 15.868640221171937 M20.488225559221963 15.704946511857045 C20.14274939853714 15.760800418308927, 19.797273237852316 15.816654324760808, 19.475722086952103 15.868640221171937 M19.475722086952103 15.868640221171937 C19.109018572754692 15.904015668161062, 18.74231505855728 15.939391115150185, 18.454811019691405 15.967126284005381 M19.475722086952103 15.868640221171937 C19.18443182018299 15.896740642879353, 18.89314155341388 15.924841064586769, 18.454811019691405 15.967126284005381 M18.454811019691405 15.967126284005381 C18.122057422774464 15.977797044192922, 17.78930382585752 15.988467804380464, 17.429687500000004 16 M18.454811019691405 15.967126284005381 C18.057420274871415 15.979869831717597, 17.660029530051425 15.992613379429814, 17.429687500000004 16 M17.429687500000004 16 C17.429687500000004 16, 17.429687500000004 16, 17.4296875 16 M17.429687500000004 16 C17.429687500000004 16, 17.4296875 16, 17.4296875 16 M17.4296875 16 C10.293718724282876 16, 3.157749948565753 16, -17.429687499999996 16 M17.4296875 16 C5.368993084131862 16, -6.691701331736276 16, -17.429687499999996 16 M-17.429687499999996 16 C-17.7395034505828 15.990064805484975, -18.049319401165604 15.980129610969948, -18.454811019691398 15.967126284005381 M-17.429687499999996 16 C-17.838880254143657 15.98687798481999, -18.248073008287314 15.973755969639983, -18.454811019691398 15.967126284005381 M-18.454811019691398 15.967126284005381 C-18.837412276269397 15.930217200928634, -19.220013532847396 15.893308117851888, -19.4757220869521 15.868640221171937 M-18.454811019691398 15.967126284005381 C-18.716974888869437 15.941835650843958, -18.979138758047476 15.916545017682536, -19.4757220869521 15.868640221171937 M-19.4757220869521 15.868640221171937 C-19.85847943380766 15.806758981659888, -20.24123678066322 15.744877742147837, -20.488225559221956 15.704946511857045 M-19.4757220869521 15.868640221171937 C-19.72128418367107 15.828939645736915, -19.966846280390044 15.789239070301894, -20.488225559221956 15.704946511857045 M-20.488225559221956 15.704946511857045 C-20.860680917411635 15.619936006848604, -21.233136275601314 15.534925501840165, -21.488160842552112 15.476717808624471 M-20.488225559221956 15.704946511857045 C-20.783403447716204 15.63757408502397, -21.078581336210448 15.570201658190895, -21.488160842552112 15.476717808624471 M-21.488160842552112 15.476717808624471 C-21.778476725542557 15.390553578452074, -22.068792608533 15.30438934827968, -22.471418988377923 15.184891952170702 M-21.488160842552112 15.476717808624471 C-21.833648765832475 15.374178806497977, -22.17913668911284 15.271639804371482, -22.471418988377923 15.184891952170702 M-22.471418988377923 15.184891952170702 C-22.842491646084948 15.04833378397647, -23.213564303791976 14.911775615782238, -23.433959578069988 14.830668117536348 M-22.471418988377923 15.184891952170702 C-22.71482739828706 15.095315407281465, -22.958235808196193 15.005738862392226, -23.433959578069988 14.830668117536348 M-23.433959578069988 14.830668117536348 C-23.787258219999348 14.674273288986072, -24.140556861928705 14.517878460435794, -24.37182732588093 14.415501886438708 M-23.433959578069988 14.830668117536348 C-23.790838475225534 14.672688416201936, -24.14771737238108 14.514708714867524, -24.37182732588093 14.415501886438708 M-24.37182732588093 14.415501886438708 C-24.712944831568837 14.237541102217518, -25.05406233725674 14.059580317996327, -25.281168332063 13.941099265974234 M-24.37182732588093 14.415501886438708 C-24.67067734222324 14.259592024335495, -24.969527358565553 14.103682162232282, -25.281168332063 13.941099265974234 M-25.281168332063 13.941099265974234 C-25.488673714838974 13.815308283498453, -25.69617909761495 13.689517301022672, -26.158245919368767 13.409409678269457 M-25.281168332063 13.941099265974234 C-25.596115202518007 13.750176622271157, -25.911062072973017 13.55925397856808, -26.158245919368767 13.409409678269457 M-26.158245919368767 13.409409678269457 C-26.35573235422929 13.271651690360736, -26.553218789089808 13.133893702452017, -26.999455987859456 12.822617949887308 M-26.158245919368767 13.409409678269457 C-26.365857888496148 13.264588555983488, -26.57346985762353 13.119767433697522, -26.999455987859456 12.822617949887308 M-26.999455987859456 12.822617949887308 C-27.17105451960897 12.685772687245779, -27.342653051358482 12.548927424604251, -27.801341824924613 12.183135333906154 M-26.999455987859456 12.822617949887308 C-27.295705290859342 12.586367014269939, -27.591954593859224 12.350116078652572, -27.801341824924613 12.183135333906154 M-27.801341824924613 12.183135333906154 C-28.006362429420292 11.996941045451116, -28.211383033915975 11.810746756996076, -28.560608309655777 11.493589601563649 M-27.801341824924613 12.183135333906154 C-27.99565383693507 12.006666305812367, -28.189965848945526 11.830197277718579, -28.560608309655777 11.493589601563649 M-28.560608309655777 11.493589601563649 C-28.78725856026143 11.259554609481667, -29.013908810867086 11.025519617399686, -29.274135453205048 10.756814244181069 M-28.560608309655777 11.493589601563649 C-28.783456876903436 11.263480159672804, -29.0063054441511 11.03337071778196, -29.274135453205048 10.756814244181069 M-29.274135453205048 10.756814244181069 C-29.409764888315802 10.597496192166489, -29.54539432342656 10.43817814015191, -29.938991219488475 9.97583682973974 M-29.274135453205048 10.756814244181069 C-29.42924257730917 10.574616590362979, -29.584349701413295 10.392418936544889, -29.938991219488475 9.97583682973974 M-29.938991219488475 9.97583682973974 C-30.072255543272057 9.79727477649939, -30.205519867055642 9.618712723259042, -30.55244357355129 9.15386656195472 M-29.938991219488475 9.97583682973974 C-30.06627661997871 9.80528598902136, -30.193562020468946 9.634735148302982, -30.55244357355129 9.15386656195472 M-30.55244357355129 9.15386656195472 C-30.69696508617318 8.931842709107524, -30.841486598795065 8.70981885626033, -31.111971708085534 8.29428109296841 M-30.55244357355129 9.15386656195472 C-30.75441379388817 8.843586066919272, -30.95638401422505 8.533305571883826, -31.111971708085534 8.29428109296841 M-31.111971708085534 8.29428109296841 C-31.281005923716474 7.994143726545285, -31.450040139347415 7.6940063601221595, -31.615276401968 7.400612643853366 M-31.111971708085534 8.29428109296841 C-31.220658930753864 8.101295923346072, -31.32934615342219 7.908310753723733, -31.615276401968 7.400612643853366 M-31.615276401968 7.400612643853366 C-31.718410423304327 7.186452641833935, -31.821544444640654 6.972292639814506, -32.060289468252996 6.476533489958307 M-31.615276401968 7.400612643853366 C-31.779358261469106 7.059893151809944, -31.943440120970212 6.719173659766522, -32.060289468252996 6.476533489958307 M-32.060289468252996 6.476533489958307 C-32.14301998791481 6.272187506907843, -32.22575050757662 6.06784152385738, -32.445182252796165 5.525840870740931 M-32.060289468252996 6.476533489958307 C-32.190793257601854 6.15418660714751, -32.32129704695071 5.831839724336715, -32.445182252796165 5.525840870740931 M-32.445182252796165 5.525840870740931 C-32.54730796780855 5.218254488646589, -32.64943368282094 4.910668106552246, -32.76837314858657 4.552441386096519 M-32.445182252796165 5.525840870740931 C-32.57165801233828 5.144916034175779, -32.69813377188039 4.763991197610627, -32.76837314858657 4.552441386096519 M-32.76837314858657 4.552441386096519 C-32.84223233861897 4.27078428372752, -32.91609152865137 3.98912718135852, -33.028534094909176 3.5603349433010343 M-32.76837314858657 4.552441386096519 C-32.83823422663721 4.286030817506673, -32.90809530468785 4.019620248916828, -33.028534094909176 3.5603349433010343 M-33.028534094909176 3.5603349433010343 C-33.091104820016085 3.239047494204511, -33.15367554512299 2.917760045107987, -33.224596034631205 2.5535983205340753 M-33.028534094909176 3.5603349433010343 C-33.07678106795182 3.312596933728423, -33.125028040994465 3.0648589241558115, -33.224596034631205 2.5535983205340753 M-33.224596034631205 2.5535983205340753 C-33.26728870449949 2.222482403656862, -33.30998137436778 1.8913664867796487, -33.35575330718717 1.5363684145229202 M-33.224596034631205 2.5535983205340753 C-33.2754886433108 2.1588852974974393, -33.32638125199039 1.7641722744608033, -33.35575330718717 1.5363684145229202 M-33.35575330718717 1.5363684145229202 C-33.37007533564245 1.3132912607986613, -33.38439736409773 1.0902141070744022, -33.421466959211 0.5128252411464846 M-33.35575330718717 1.5363684145229202 C-33.37060732115342 1.3050051570542416, -33.38546133511968 1.0736418995855632, -33.421466959211 0.5128252411464846 M-33.421466959211 0.5128252411464846 C-33.421466959211 0.16757675095934793, -33.421466959211 -0.17767173922778878, -33.421466959211 -0.5128252411464769 M-33.421466959211 0.5128252411464846 C-33.421466959211 0.2401997963363578, -33.421466959211 -0.03242564847376905, -33.421466959211 -0.5128252411464769 M-33.421466959211 -0.5128252411464769 C-33.40123628794443 -0.8279342760273214, -33.381005616677854 -1.143043310908166, -33.35575330718717 -1.5363684145228982 M-33.421466959211 -0.5128252411464769 C-33.398173624005075 -0.87563773902062, -33.37488028879914 -1.2384502368947632, -33.35575330718717 -1.5363684145228982 M-33.35575330718717 -1.5363684145228982 C-33.31613700908234 -1.8436245995010891, -33.2765207109775 -2.15088078447928, -33.224596034631205 -2.5535983205340678 M-33.35575330718717 -1.5363684145228982 C-33.31551313043469 -1.848463279093459, -33.27527295368221 -2.1605581436640198, -33.224596034631205 -2.5535983205340678 M-33.224596034631205 -2.5535983205340678 C-33.174412674069096 -2.8112792707634937, -33.12422931350698 -3.0689602209929197, -33.028534094909176 -3.5603349433010267 M-33.224596034631205 -2.5535983205340678 C-33.175705303010936 -2.8046418943443667, -33.12681457139066 -3.0556854681546657, -33.028534094909176 -3.5603349433010267 M-33.028534094909176 -3.5603349433010267 C-32.97349555329019 -3.770220756349038, -32.918457011671215 -3.98010656939705, -32.768373148586576 -4.552441386096511 M-33.028534094909176 -3.5603349433010267 C-32.94882035059396 -3.864317998530259, -32.869106606278756 -4.168301053759492, -32.768373148586576 -4.552441386096511 M-32.768373148586576 -4.552441386096511 C-32.659365175982394 -4.880756031518493, -32.55035720337822 -5.209070676940474, -32.44518225279617 -5.525840870740911 M-32.768373148586576 -4.552441386096511 C-32.658603825855145 -4.883049096797115, -32.54883450312371 -5.213656807497719, -32.44518225279617 -5.525840870740911 M-32.44518225279617 -5.525840870740911 C-32.35147788759373 -5.757292464441604, -32.25777352239128 -5.988744058142298, -32.060289468253 -6.476533489958299 M-32.44518225279617 -5.525840870740911 C-32.36299899641087 -5.728835102917763, -32.28081574002558 -5.931829335094616, -32.060289468253 -6.476533489958299 M-32.060289468253 -6.476533489958299 C-31.91528089783153 -6.777646889124853, -31.77027232741006 -7.078760288291407, -31.615276401968003 -7.400612643853359 M-32.060289468253 -6.476533489958299 C-31.93798961827212 -6.730491745241187, -31.81568976829124 -6.984450000524075, -31.615276401968003 -7.400612643853359 M-31.615276401968003 -7.400612643853359 C-31.45383425630006 -7.687269521276739, -31.29239211063211 -7.97392639870012, -31.111971708085537 -8.294281092968404 M-31.615276401968003 -7.400612643853359 C-31.505133702814256 -7.596182159358536, -31.394991003660508 -7.791751674863714, -31.111971708085537 -8.294281092968404 M-31.111971708085537 -8.294281092968404 C-30.92533989069506 -8.580997682140278, -30.738708073304586 -8.867714271312153, -30.552443573551294 -9.153866561954715 M-31.111971708085537 -8.294281092968404 C-30.98013635345961 -8.4968156004234, -30.84830099883368 -8.699350107878395, -30.552443573551294 -9.153866561954715 M-30.552443573551294 -9.153866561954715 C-30.393124030134082 -9.367340235824786, -30.23380448671687 -9.580813909694857, -29.93899121948848 -9.975836829739734 M-30.552443573551294 -9.153866561954715 C-30.307422137143046 -9.482172964829706, -30.062400700734795 -9.810479367704698, -29.93899121948848 -9.975836829739734 M-29.93899121948848 -9.975836829739734 C-29.75832869211761 -10.188053314378585, -29.57766616474674 -10.400269799017435, -29.274135453205055 -10.756814244181063 M-29.93899121948848 -9.975836829739734 C-29.74319632041605 -10.205828659235578, -29.547401421343622 -10.435820488731423, -29.274135453205055 -10.756814244181063 M-29.274135453205055 -10.756814244181063 C-28.989057623110075 -11.051180509079261, -28.703979793015094 -11.34554677397746, -28.56060830965579 -11.493589601563633 M-29.274135453205055 -10.756814244181063 C-29.06221665531334 -10.97563780186114, -28.850297857421623 -11.194461359541219, -28.56060830965579 -11.493589601563633 M-28.56060830965579 -11.493589601563633 C-28.384770645664265 -11.653280715591091, -28.208932981672742 -11.812971829618549, -27.801341824924627 -12.18313533390614 M-28.56060830965579 -11.493589601563633 C-28.27993548940367 -11.748489230720729, -27.99926266915155 -12.003388859877825, -27.801341824924627 -12.18313533390614 M-27.801341824924627 -12.18313533390614 C-27.495627612101895 -12.4269342832354, -27.189913399279167 -12.670733232564661, -26.999455987859463 -12.822617949887302 M-27.801341824924627 -12.18313533390614 C-27.48984573323372 -12.431545177770511, -27.178349641542816 -12.679955021634882, -26.999455987859463 -12.822617949887302 M-26.999455987859463 -12.822617949887302 C-26.702286215890155 -13.029910718540997, -26.40511644392085 -13.237203487194693, -26.158245919368788 -13.409409678269444 M-26.999455987859463 -12.822617949887302 C-26.71481617917393 -13.021170358567606, -26.430176370488397 -13.219722767247909, -26.158245919368788 -13.409409678269444 M-26.158245919368788 -13.409409678269444 C-25.92528960499683 -13.550629165044986, -25.69233329062487 -13.691848651820528, -25.281168332063007 -13.941099265974229 M-26.158245919368788 -13.409409678269444 C-25.820218059476865 -13.614324153408129, -25.48219019958494 -13.819238628546811, -25.281168332063007 -13.941099265974229 M-25.281168332063007 -13.941099265974229 C-25.004545706269756 -14.08541311266532, -24.727923080476508 -14.22972695935641, -24.371827325880936 -14.415501886438705 M-25.281168332063007 -13.941099265974229 C-24.98427477439957 -14.095988444837845, -24.68738121673613 -14.250877623701463, -24.371827325880936 -14.415501886438705 M-24.371827325880936 -14.415501886438705 C-24.09621830942538 -14.537505822372585, -23.82060929296983 -14.659509758306466, -23.433959578069995 -14.830668117536344 M-24.371827325880936 -14.415501886438705 C-24.11941048238563 -14.527239335374452, -23.86699363889032 -14.6389767843102, -23.433959578069995 -14.830668117536344 M-23.433959578069995 -14.830668117536344 C-23.174491453783265 -14.92615478577091, -22.91502332949653 -15.021641454005476, -22.47141898837794 -15.184891952170695 M-23.433959578069995 -14.830668117536344 C-23.232666069576606 -14.904745989398707, -23.03137256108322 -14.978823861261068, -22.47141898837794 -15.184891952170695 M-22.47141898837794 -15.184891952170695 C-22.17056651544468 -15.27418338693043, -21.86971404251142 -15.363474821690167, -21.488160842552134 -15.476717808624466 M-22.47141898837794 -15.184891952170695 C-22.204773595683584 -15.264030905072152, -21.938128202989223 -15.34316985797361, -21.488160842552134 -15.476717808624466 M-21.488160842552134 -15.476717808624466 C-21.223766187344527 -15.537064163339236, -20.959371532136917 -15.597410518054007, -20.488225559221963 -15.704946511857043 M-21.488160842552134 -15.476717808624466 C-21.28652611934992 -15.522739618405836, -21.0848913961477 -15.568761428187207, -20.488225559221963 -15.704946511857043 M-20.488225559221963 -15.704946511857043 C-20.25430980920854 -15.74276419627548, -20.020394059195116 -15.780581880693916, -19.475722086952107 -15.868640221171937 M-20.488225559221963 -15.704946511857043 C-20.26407200022553 -15.741185920938776, -20.039918441229098 -15.777425330020506, -19.475722086952107 -15.868640221171937 M-19.475722086952107 -15.868640221171937 C-19.248308989116218 -15.8905784892159, -19.02089589128033 -15.912516757259864, -18.45481101969141 -15.967126284005381 M-19.475722086952107 -15.868640221171937 C-19.09821229915614 -15.905058136378669, -18.720702511360173 -15.9414760515854, -18.45481101969141 -15.967126284005381 M-18.45481101969141 -15.967126284005381 C-18.124698472253048 -15.977712350876635, -17.79458592481469 -15.98829841774789, -17.429687500000004 -16 M-18.45481101969141 -15.967126284005381 C-18.05199228012374 -15.980043896944204, -17.649173540556077 -15.992961509883028, -17.429687500000004 -16 M-17.429687500000004 -16 C-17.429687500000004 -16, -17.4296875 -16, -17.4296875 -16 M-17.429687500000004 -16 C-17.429687500000004 -16, -17.4296875 -16, -17.4296875 -16" stroke="#d62a00" stroke-width="2.5" fill="none" stroke-dasharray="0 0" style="fill:#f53003 !important;stroke:#d62a00 !important;stroke-width:2.5px !important"/></g><g class="label" style="color:#ffffff !important" transform="translate(0, -8.5)"><rect/><g><rect class="background" style="stroke: none"/><text y="-10.1" style="fill:#ffffff !important"><tspan class="text-outer-tspan row" x="0" y="-0.1em" dy="1.1em"><tspan font-style="normal" class="text-inner-tspan" font-weight="normal">Ready</tspan></tspan></text></g></g></g><g class="node default failure" id="my-svg-flowchart-failed-5" data-look="classic" transform="translate(565.66455078125, 105.5)"><rect class="basic label-container" style="fill:#1b1b18 !important;stroke:#1b1b18 !important;stroke-width:2px !important" rx="5" ry="5" x="-35.4296875" y="-23.5" width="70.859375" height="47"/><g class="label" style="color:#ffffff !important" transform="translate(0, -8.5)"><rect/><g><rect class="background" style="stroke: none"/><text y="-10.1" style="fill:#ffffff !important"><tspan class="text-outer-tspan row" x="0" y="-0.1em" dy="1.1em"><tspan font-style="normal" class="text-inner-tspan" font-weight="normal">Failed</tspan></tspan></text></g></g></g><g class="node default active" id="my-svg-flowchart-tearingDown-7" data-look="classic" transform="translate(780.43017578125, 105.5)"><rect class="basic label-container" style="fill:#fff7f5 !important;stroke:#f53003 !important;stroke-width:2px !important" rx="5" ry="5" x="-59.6171875" y="-23.5" width="119.234375" height="47"/><g class="label" style="color:#1b1b18 !important" transform="translate(0, -8.5)"><rect/><g><rect class="background" style="stroke: none"/><text y="-10.1" style="fill:#1b1b18 !important"><tspan class="text-outer-tspan row" x="0" y="-0.1em" dy="1.1em"><tspan font-style="normal" class="text-inner-tspan" font-weight="normal">Tearing</tspan><tspan font-style="normal" class="text-inner-tspan" font-weight="normal"> down</tspan></tspan></text></g></g></g></g></g><marker id="my-svg_flowchart-v2-pointEnd__f53003" class="marker flowchart-v2" viewBox="0 0 10 10" refX="5" refY="5" markerUnits="userSpaceOnUse" markerWidth="8" markerHeight="8" orient="auto"><path d="M 0 0 L 10 5 L 0 10 z" class="arrowMarkerPath" style="stroke-width: 1; stroke-dasharray: 1, 0;" stroke="#f53003" fill="#f53003"/></marker><marker id="my-svg_flowchart-v2-pointEnd__1b1b18" class="marker flowchart-v2" viewBox="0 0 10 10" refX="5" refY="5" markerUnits="userSpaceOnUse" markerWidth="8" markerHeight="8" orient="auto"><path d="M 0 0 L 10 5 L 0 10 z" class="arrowMarkerPath" style="stroke-width: 1; stroke-dasharray: 1, 0;" stroke="#1b1b18" fill="#1b1b18"/></marker></g><defs><filter id="my-svg-drop-shadow" height="130%" width="130%"><feDropShadow dx="4" dy="4" stdDeviation="0" flood-opacity="0.06" flood-color="#000000"/></filter></defs><defs><filter id="my-svg-drop-shadow-small" height="150%" width="150%"><feDropShadow dx="2" dy="2" stdDeviation="0" flood-opacity="0.06" flood-color="#000000"/></filter></defs><linearGradient id="my-svg-gradient" gradientUnits="objectBoundingBox" x1="0%" y1="0%" x2="100%" y2="0%"><stop offset="0%" stop-color="#f53003" stop-opacity="1"/><stop offset="100%" stop-color="hsl(0, 0%, 90%)" stop-opacity="1"/></linearGradient></svg>