<!-- harbour:mermaid-source-sha256=261710ecff524a75f0b4ba2c5323d786e540887f0ac9c97e0475cabf7a2ea05a -->
<svg id="my-svg" width="100%" xmlns="http://www.w3.org/2000/svg" xmlns:xlink="http://www.w3.org/1999/xlink" class="flowchart" style="max-width: 1228.45px; background-color: transparent;" viewBox="0 0 1228.453857421875 385" role="graphics-document document" aria-roledescription="flowchart-v2" aria-describedby="chart-desc-my-svg" aria-labelledby="chart-title-my-svg"><title id="chart-title-my-svg">Harbour shared-infrastructure model</title><desc id="chart-desc-my-svg">Without Harbour, every worktree may run a complete development stack. With Harbour, native PHP and Node worktrees connect through isolated namespaces to shared PostgreSQL, Redis, and Mailpit services.</desc><style>#my-svg{font-family:Arial,sans-serif;font-size:15px;fill:#1b1b18;}@keyframes edge-animation-frame{from{stroke-dashoffset:0;}}@keyframes dash{to{stroke-dashoffset:0;}}#my-svg .edge-animation-slow{stroke-dasharray:9,5;stroke-dashoffset:900;animation:dash 50s linear infinite;stroke-linecap:round;}#my-svg .edge-animation-fast{stroke-dasharray:9,5;stroke-dashoffset:900;animation:dash 20s linear infinite;stroke-linecap:round;}#my-svg .error-icon{fill:#f7f7f5;}#my-svg .error-text{fill:#08080a;stroke:#08080a;}#my-svg .edge-thickness-normal{stroke-width:1px;}#my-svg .edge-thickness-thick{stroke-width:3.5px;}#my-svg .edge-pattern-solid{stroke-dasharray:0;}#my-svg .edge-thickness-invisible{stroke-width:0;fill:none;}#my-svg .edge-pattern-dashed{stroke-dasharray:3;}#my-svg .edge-pattern-dotted{stroke-dasharray:2;}#my-svg .marker{fill:#a8a8a4;stroke:#a8a8a4;}#my-svg .marker.cross{stroke:#a8a8a4;}#my-svg svg{font-family:Arial,sans-serif;font-size:15px;}#my-svg p{margin:0;}#my-svg .label{font-family:Arial,sans-serif;color:#1b1b18;}#my-svg .cluster-label text{fill:#08080a;}#my-svg .cluster-label span{color:#08080a;}#my-svg .cluster-label span p{background-color:transparent;}#my-svg .label text,#my-svg span{fill:#1b1b18;color:#1b1b18;}#my-svg .node rect,#my-svg .node circle,#my-svg .node ellipse,#my-svg .node polygon,#my-svg .node path{fill:#fff7f5;stroke:#f53003;stroke-width:1px;}#my-svg .rough-node .label text,#my-svg .node .label text,#my-svg .image-shape .label,#my-svg .icon-shape .label{text-anchor:middle;}#my-svg .node .katex path{fill:#000;stroke:#000;stroke-width:1px;}#my-svg .rough-node .label,#my-svg .node .label,#my-svg .image-shape .label,#my-svg .icon-shape .label{text-align:center;}#my-svg .node.clickable{cursor:pointer;}#my-svg .root .anchor path{fill:#a8a8a4;stroke-width:0;stroke:#a8a8a4;}#my-svg .arrowheadPath{fill:#000000;}#my-svg .edgePaths .path{stroke:#a8a8a4;stroke-width:1px;}#my-svg .flowchart-link{stroke:#a8a8a4;fill:none;}#my-svg .edgeLabel{background-color:#ffffff;text-align:center;}#my-svg .edgeLabel p{background-color:#ffffff;}#my-svg .edgeLabel rect{opacity:0.5;background-color:#ffffff;fill:#ffffff;}#my-svg .labelBkg{background-color:rgba(255, 255, 255, 0.5);}#my-svg .cluster rect{fill:#fdfdfc;stroke:#e3e3e0;stroke-width:1px;}#my-svg .cluster text{fill:#08080a;}#my-svg .cluster span{color:#08080a;}#my-svg .node .collapsed-indicator{fill:#e3e3e0;stroke:none;opacity:0.6;}#my-svg .node .collapsed-separator{stroke:#e3e3e0;stroke-width:0.75px;}#my-svg div.mermaidTooltip{position:absolute;text-align:center;max-width:200px;padding:2px;font-family:Arial,sans-serif;font-size:12px;background:#f7f7f5;border:1px solid hsl(60, 0%, 86.4705882353%);border-radius:2px;pointer-events:none;z-index:100;}#my-svg .flowchartTitleText{text-anchor:middle;font-size:18px;fill:#1b1b18;}#my-svg rect.text{fill:none;stroke-width:0;}#my-svg .icon-shape,#my-svg .image-shape{background-color:#ffffff;text-align:center;}#my-svg .icon-shape p,#my-svg .image-shape p{background-color:#ffffff;padding:2px;}#my-svg .icon-shape .label rect,#my-svg .image-shape .label rect{opacity:0.5;background-color:#ffffff;fill:#ffffff;}#my-svg .label-icon{display:inline-block;height:1em;overflow:visible;vertical-align:-0.125em;}#my-svg .node .label-icon path{fill:currentColor;stroke:revert;stroke-width:revert;}#my-svg .node .neo-node{stroke:#f53003;}#my-svg [data-look="neo"].node rect,#my-svg [data-look="neo"].cluster rect,#my-svg [data-look="neo"].node polygon{stroke:url(#my-svg-gradient);filter:drop-shadow( 1px 2px 2px rgba(185,185,185,1));}#my-svg [data-look="neo"].swimlane.cluster rect{filter:none;}#my-svg [data-look="neo"].node path{stroke:url(#my-svg-gradient);stroke-width:1px;}#my-svg [data-look="neo"].node .outer-path{filter:drop-shadow( 1px 2px 2px rgba(185,185,185,1));}#my-svg [data-look="neo"].node .neo-line path{stroke:#f53003;filter:none;}#my-svg [data-look="neo"].node circle{stroke:url(#my-svg-gradient);filter:drop-shadow( 1px 2px 2px rgba(185,185,185,1));}#my-svg [data-look="neo"].node circle .state-start{fill:#000000;}#my-svg [data-look="neo"].icon-shape .icon{fill:url(#my-svg-gradient);filter:drop-shadow( 1px 2px 2px rgba(185,185,185,1));}#my-svg [data-look="neo"].icon-shape .icon-neo path{stroke:url(#my-svg-gradient);filter:drop-shadow( 1px 2px 2px rgba(185,185,185,1));}#my-svg :root{--mermaid-font-family:Arial,sans-serif;}#my-svg .muted rect{fill:rgb(247, 247, 245);stroke:rgb(214, 214, 210);color:rgb(112, 111, 108);stroke-width:1.5px;}#my-svg .muted polygon{fill:rgb(247, 247, 245);stroke:rgb(214, 214, 210);color:rgb(112, 111, 108);stroke-width:1.5px;}#my-svg .muted ellipse{fill:rgb(247, 247, 245);stroke:rgb(214, 214, 210);color:rgb(112, 111, 108);stroke-width:1.5px;}#my-svg .muted circle{fill:rgb(247, 247, 245);stroke:rgb(214, 214, 210);color:rgb(112, 111, 108);stroke-width:1.5px;}#my-svg .muted path{fill:rgb(247, 247, 245);stroke:rgb(214, 214, 210);color:rgb(112, 111, 108);stroke-width:1.5px;}#my-svg .muted tspan{fill:rgb(112, 111, 108);}#my-svg .stack rect{fill:rgb(255, 255, 255);stroke:rgb(168, 168, 164);color:rgb(112, 111, 108);stroke-width:1.5px;}#my-svg .stack polygon{fill:rgb(255, 255, 255);stroke:rgb(168, 168, 164);color:rgb(112, 111, 108);stroke-width:1.5px;}#my-svg .stack ellipse{fill:rgb(255, 255, 255);stroke:rgb(168, 168, 164);color:rgb(112, 111, 108);stroke-width:1.5px;}#my-svg .stack circle{fill:rgb(255, 255, 255);stroke:rgb(168, 168, 164);color:rgb(112, 111, 108);stroke-width:1.5px;}#my-svg .stack path{fill:rgb(255, 255, 255);stroke:rgb(168, 168, 164);color:rgb(112, 111, 108);stroke-width:1.5px;}#my-svg .stack tspan{fill:rgb(112, 111, 108);}#my-svg .shared rect{fill:rgb(27, 27, 24);stroke:rgb(27, 27, 24);color:rgb(255, 255, 255);stroke-width:2px;}#my-svg .shared polygon{fill:rgb(27, 27, 24);stroke:rgb(27, 27, 24);color:rgb(255, 255, 255);stroke-width:2px;}#my-svg .shared ellipse{fill:rgb(27, 27, 24);stroke:rgb(27, 27, 24);color:rgb(255, 255, 255);stroke-width:2px;}#my-svg .shared circle{fill:rgb(27, 27, 24);stroke:rgb(27, 27, 24);color:rgb(255, 255, 255);stroke-width:2px;}#my-svg .shared path{fill:rgb(27, 27, 24);stroke:rgb(27, 27, 24);color:rgb(255, 255, 255);stroke-width:2px;}#my-svg .shared tspan{fill:rgb(255, 255, 255);}#my-svg .harbour rect{fill:rgb(245, 48, 3);stroke:rgb(214, 42, 0);color:rgb(255, 255, 255);stroke-width:2.5px;}#my-svg .harbour polygon{fill:rgb(245, 48, 3);stroke:rgb(214, 42, 0);color:rgb(255, 255, 255);stroke-width:2.5px;}#my-svg .harbour ellipse{fill:rgb(245, 48, 3);stroke:rgb(214, 42, 0);color:rgb(255, 255, 255);stroke-width:2.5px;}#my-svg .harbour circle{fill:rgb(245, 48, 3);stroke:rgb(214, 42, 0);color:rgb(255, 255, 255);stroke-width:2.5px;}#my-svg .harbour path{fill:rgb(245, 48, 3);stroke:rgb(214, 42, 0);color:rgb(255, 255, 255);stroke-width:2.5px;}#my-svg .harbour tspan{fill:rgb(255, 255, 255);}#my-svg .workspace rect{fill:rgb(255, 255, 255);stroke:rgb(245, 48, 3);color:rgb(27, 27, 24);stroke-width:2px;}#my-svg .workspace polygon{fill:rgb(255, 255, 255);stroke:rgb(245, 48, 3);color:rgb(27, 27, 24);stroke-width:2px;}#my-svg .workspace ellipse{fill:rgb(255, 255, 255);stroke:rgb(245, 48, 3);color:rgb(27, 27, 24);stroke-width:2px;}#my-svg .workspace circle{fill:rgb(255, 255, 255);stroke:rgb(245, 48, 3);color:rgb(27, 27, 24);stroke-width:2px;}#my-svg .workspace path{fill:rgb(255, 255, 255);stroke:rgb(245, 48, 3);color:rgb(27, 27, 24);stroke-width:2px;}#my-svg .workspace tspan{fill:rgb(27, 27, 24);}</style><g><marker id="my-svg_flowchart-v2-pointEnd" class="marker flowchart-v2" viewBox="0 0 10 10" refX="5" refY="5" markerUnits="userSpaceOnUse" markerWidth="8" markerHeight="8" orient="auto"><path d="M 0 0 L 10 5 L 0 10 z" class="arrowMarkerPath" style="stroke-width: 1; stroke-dasharray: 1, 0;"/></marker><marker id="my-svg_flowchart-v2-pointStart" class="marker flowchart-v2" viewBox="0 0 10 10" refX="4.5" refY="5" markerUnits="userSpaceOnUse" markerWidth="8" markerHeight="8" orient="auto"><path d="M 0 5 L 10 10 L 10 0 z" class="arrowMarkerPath" style="stroke-width: 1; stroke-dasharray: 1, 0;"/></marker><marker id="my-svg_flowchart-v2-pointEnd-margin" class="marker flowchart-v2" viewBox="0 0 11.5 14" refX="11.5" refY="7" markerUnits="userSpaceOnUse" markerWidth="10.5" markerHeight="14" orient="auto"><path d="M 0 0 L 11.5 7 L 0 14 z" class="arrowMarkerPath" style="stroke-width: 0; stroke-dasharray: 1, 0;"/></marker><marker id="my-svg_flowchart-v2-pointStart-margin" class="marker flowchart-v2" viewBox="0 0 11.5 14" refX="1" refY="7" markerUnits="userSpaceOnUse" markerWidth="11.5" markerHeight="14" orient="auto"><polygon points="0,7 11.5,14 11.5,0" class="arrowMarkerPath" style="stroke-width: 0; stroke-dasharray: 1, 0;"/></marker><marker id="my-svg_flowchart-v2-circleEnd" class="marker flowchart-v2" viewBox="0 0 10 10" refX="11" refY="5" markerUnits="userSpaceOnUse" markerWidth="11" markerHeight="11" orient="auto"><circle cx="5" cy="5" r="5" class="arrowMarkerPath" style="stroke-width: 1; stroke-dasharray: 1, 0;"/></marker><marker id="my-svg_flowchart-v2-circleStart" class="marker flowchart-v2" viewBox="0 0 10 10" refX="-1" refY="5" markerUnits="userSpaceOnUse" markerWidth="11" markerHeight="11" orient="auto"><circle cx="5" cy="5" r="5" class="arrowMarkerPath" style="stroke-width: 1; stroke-dasharray: 1, 0;"/></marker><marker id="my-svg_flowchart-v2-circleEnd-margin" class="marker flowchart-v2" viewBox="0 0 10 10" refY="5" refX="12.25" markerUnits="userSpaceOnUse" markerWidth="14" markerHeight="14" orient="auto"><circle cx="5" cy="5" r="5" class="arrowMarkerPath" style="stroke-width: 0; stroke-dasharray: 1, 0;"/></marker><marker id="my-svg_flowchart-v2-circleStart-margin" class="marker flowchart-v2" viewBox="0 0 10 10" refX="-2" refY="5" markerUnits="userSpaceOnUse" markerWidth="14" markerHeight="14" orient="auto"><circle cx="5" cy="5" r="5" class="arrowMarkerPath" style="stroke-width: 0; stroke-dasharray: 1, 0;"/></marker><marker id="my-svg_flowchart-v2-crossEnd" class="marker cross flowchart-v2" viewBox="0 0 11 11" refX="12" refY="5.2" markerUnits="userSpaceOnUse" markerWidth="11" markerHeight="11" orient="auto"><path d="M 1,1 l 9,9 M 10,1 l -9,9" class="arrowMarkerPath" style="stroke-width: 2; stroke-dasharray: 1, 0;"/></marker><marker id="my-svg_flowchart-v2-crossStart" class="marker cross flowchart-v2" viewBox="0 0 11 11" refX="-1" refY="5.2" markerUnits="userSpaceOnUse" markerWidth="11" markerHeight="11" orient="auto"><path d="M 1,1 l 9,9 M 10,1 l -9,9" class="arrowMarkerPath" style="stroke-width: 2; stroke-dasharray: 1, 0;"/></marker><marker id="my-svg_flowchart-v2-crossEnd-margin" class="marker cross flowchart-v2" viewBox="0 0 15 15" refX="17.7" refY="7.5" markerUnits="userSpaceOnUse" markerWidth="12" markerHeight="12" orient="auto"><path d="M 1,1 L 14,14 M 1,14 L 14,1" class="arrowMarkerPath" style="stroke-width: 2.5;"/></marker><marker id="my-svg_flowchart-v2-crossStart-margin" class="marker cross flowchart-v2" viewBox="0 0 15 15" refX="-3.5" refY="7.5" markerUnits="userSpaceOnUse" markerWidth="12" markerHeight="12" orient="auto"><path d="M 1,1 L 14,14 M 1,14 L 14,1" class="arrowMarkerPath" style="stroke-width: 2.5; stroke-dasharray: 1, 0;"/></marker><g class="root"><g class="clusters"><g class="cluster" id="my-svg-with" data-look="classic"><rect style="fill:#fff8f6;stroke:#f53003;stroke-width:2px" x="451.439453125" y="40.5" width="769.0144500732422" height="336.5"/><g class="cluster-label" transform="translate(791.7645492553711, 40.5)"><g><rect class="background" style="stroke: none"/><text y="-10.1" style=""><tspan class="text-outer-tspan row" x="0" y="-0.1em" dy="1.1em"><tspan font-style="normal" class="text-inner-tspan" font-weight="normal">With</tspan><tspan font-style="normal" class="text-inner-tspan" font-weight="normal"> Harbour</tspan></tspan></text></g></g></g><g class="cluster" id="my-svg-without" data-look="classic"><rect style="fill:#fafaf9;stroke:#d6d6d2;stroke-width:1px" x="8" y="8" width="389.439453125" height="287"/><g class="cluster-label" transform="translate(148.10791015625, 8)"><g><rect class="background" style="stroke: none"/><text y="-10.1" style=""><tspan class="text-outer-tspan row" x="0" y="-0.1em" dy="1.1em"><tspan font-style="normal" class="text-inner-tspan" font-weight="normal">Without</tspan><tspan font-style="normal" class="text-inner-tspan" font-weight="normal"> Harbour</tspan></tspan></text></g></g></g></g><g class="edgePaths"><path d="M137.512,62.5L142.012,62.5C146.512,62.5,155.512,62.5,163.846,62.5C172.179,62.5,179.846,62.5,183.679,62.5L187.512,62.5" id="my-svg-L_WA_SA_0" class="edge-thickness-normal edge-pattern-solid edge-thickness-normal edge-pattern-solid flowchart-link" style="stroke:#a8a8a4;stroke-width:1.5px;fill:none;;;stroke:#a8a8a4;stroke-width:1.5px;fill:none" data-edge="true" data-et="edge" data-id="L_WA_SA_0" data-points="W3sieCI6MTM3LjUxMjIwNzAzMTI1LCJ5Ijo2Mi41fSx7IngiOjE2NC41MTIyMDcwMzEyNSwieSI6NjIuNX0seyJ4IjoxOTEuNTEyMjA3MDMxMjUsInkiOjYyLjV9XQ==" data-look="classic" marker-end="url(#my-svg_flowchart-v2-pointEnd__a8a8a4)"/><path d="M137.186,151.5L141.74,151.5C146.295,151.5,155.403,151.5,163.791,151.5C172.179,151.5,179.846,151.5,183.679,151.5L187.512,151.5" id="my-svg-L_WB_SB_0" class="edge-thickness-normal edge-pattern-solid edge-thickness-normal edge-pattern-solid flowchart-link" style="stroke:#a8a8a4;stroke-width:1.5px;fill:none;;;stroke:#a8a8a4;stroke-width:1.5px;fill:none" data-edge="true" data-et="edge" data-id="L_WB_SB_0" data-points="W3sieCI6MTM3LjE4NTc5MTAxNTYyNSwieSI6MTUxLjV9LHsieCI6MTY0LjUxMjIwNzAzMTI1LCJ5IjoxNTEuNX0seyJ4IjoxOTEuNTEyMjA3MDMxMjUsInkiOjE1MS41fV0=" data-look="classic" marker-end="url(#my-svg_flowchart-v2-pointEnd__a8a8a4)"/><path d="M137.012,240.5L141.596,240.5C146.179,240.5,155.346,240.5,163.762,240.5C172.179,240.5,179.846,240.5,183.679,240.5L187.512,240.5" id="my-svg-L_WC_SC_0" class="edge-thickness-normal edge-pattern-solid edge-thickness-normal edge-pattern-solid flowchart-link" style="stroke:#a8a8a4;stroke-width:1.5px;fill:none;;;stroke:#a8a8a4;stroke-width:1.5px;fill:none" data-edge="true" data-et="edge" data-id="L_WC_SC_0" data-points="W3sieCI6MTM3LjAxMjIwNzAzMTI1LCJ5IjoyNDAuNX0seyJ4IjoxNjQuNTEyMjA3MDMxMjUsInkiOjI0MC41fSx7IngiOjE5MS41MTIyMDcwMzEyNSwieSI6MjQwLjV9XQ==" data-look="classic" marker-end="url(#my-svg_flowchart-v2-pointEnd__a8a8a4)"/><path d="M698.815,240.5L703.315,240.5C707.815,240.5,716.815,240.5,725.232,240.571C733.649,240.642,741.483,240.785,745.399,240.856L749.316,240.927" id="my-svg-L_shared_namespaces_0" class="edge-thickness-normal edge-pattern-solid edge-thickness-normal edge-pattern-solid flowchart-link" style="stroke:#f53003;stroke-width:2px;fill:none;;;stroke:#f53003;stroke-width:2px;fill:none" data-edge="true" data-et="edge" data-id="L_shared_namespaces_0" data-points="W3sieCI6Njk4LjgxNTQyOTY4NzUsInkiOjI0MC41fSx7IngiOjcyNS44MTU0Mjk2ODc1LCJ5IjoyNDAuNX0seyJ4Ijo3NTMuMzE1NDI5Njg3NTA1NywieSI6MjQwLjk5OTk5OTk5OTk5OTk3fV0=" data-look="classic" marker-end="url(#my-svg_flowchart-v2-pointEnd__f53003)"/><path d="M901.253,208.5L919.161,190.958C937.07,173.417,972.887,138.333,994.629,120.792C1016.371,103.25,1024.037,103.25,1027.871,103.25L1031.704,103.25" id="my-svg-L_namespaces_HA_0" class="edge-thickness-normal edge-pattern-solid edge-thickness-normal edge-pattern-solid flowchart-link" style="stroke:#f53003;stroke-width:2px;fill:none;;;stroke:#f53003;stroke-width:2px;fill:none" data-edge="true" data-et="edge" data-id="L_namespaces_HA_0" data-points="W3sieCI6OTAxLjI1MjgzNzI1OTI2MTQsInkiOjIwOC41fSx7IngiOjEwMDguNzAzOTAzMTk4MjQyMiwieSI6MTAzLjI1fSx7IngiOjEwMzUuNzAzOTAzMTk4MjQyMiwieSI6MTAzLjI1fV0=" data-look="classic" marker-end="url(#my-svg_flowchart-v2-pointEnd__f53003)"/><path d="M972.218,217.552L978.299,216.085C984.38,214.618,996.542,211.684,1006.456,210.217C1016.371,208.75,1024.037,208.75,1027.871,208.75L1031.704,208.75" id="my-svg-L_namespaces_HB_0" class="edge-thickness-normal edge-pattern-solid edge-thickness-normal edge-pattern-solid flowchart-link" style="stroke:#f53003;stroke-width:2px;fill:none;;;stroke:#f53003;stroke-width:2px;fill:none" data-edge="true" data-et="edge" data-id="L_namespaces_HB_0" data-points="W3sieCI6OTcyLjIxODQ5NTQ4MTg3MzgsInkiOjIxNy41NTIxMTc2NTM3OTc2N30seyJ4IjoxMDA4LjcwMzkwMzE5ODI0MjIsInkiOjIwOC43NX0seyJ4IjoxMDM1LjcwMzkwMzE5ODI0MjIsInkiOjIwOC43NX1d" data-look="classic" marker-end="url(#my-svg_flowchart-v2-pointEnd__f53003)"/><path d="M930.091,273.5L943.193,280.292C956.295,287.083,982.5,300.667,999.435,307.458C1016.371,314.25,1024.037,314.25,1027.871,314.25L1031.704,314.25" id="my-svg-L_namespaces_HC_0" class="edge-thickness-normal edge-pattern-solid edge-thickness-normal edge-pattern-solid flowchart-link" style="stroke:#f53003;stroke-width:2px;fill:none;;;stroke:#f53003;stroke-width:2px;fill:none" data-edge="true" data-et="edge" data-id="L_namespaces_HC_0" data-points="W3sieCI6OTMwLjA5MTAyNTAxMzAzNDYsInkiOjI3My41fSx7IngiOjEwMDguNzAzOTAzMTk4MjQyMiwieSI6MzE0LjI1fSx7IngiOjEwMzUuNzAzOTAzMTk4MjQyMiwieSI6MzE0LjI1fV0=" data-look="classic" marker-end="url(#my-svg_flowchart-v2-pointEnd__f53003)"/><path d="M370.439,240.5L374.939,240.5C379.439,240.5,388.439,240.5,397.439,240.5C406.439,240.5,415.439,240.5,424.439,240.5C433.439,240.5,442.439,240.5,451.439,240.5C460.439,240.5,469.439,240.5,473.939,240.5L478.439,240.5" id="my-svg-L_SC_shared_0" class="edge-thickness-invisible edge-pattern-solid" style=";" data-edge="true" data-et="edge" data-id="L_SC_shared_0" data-points="W3sieCI6MzcwLjQzOTQ1MzEyNSwieSI6MjQwLjV9LHsieCI6Mzk3LjQzOTQ1MzEyNSwieSI6MjQwLjV9LHsieCI6NDI0LjQzOTQ1MzEyNSwieSI6MjQwLjV9LHsieCI6NDUxLjQzOTQ1MzEyNSwieSI6MjQwLjV9LHsieCI6NDc4LjQzOTQ1MzEyNSwieSI6MjQwLjV9XQ==" data-look="classic"/></g><g class="edgeLabels"><g class="edgeLabel"><g class="label" data-id="L_WA_SA_0" transform="translate(0, 0)"><text y="-10.1" text-anchor="middle"><tspan class="text-outer-tspan row" x="0" y="-0.1em" dy="1.1em" text-anchor="middle"/></text></g></g><g><rect class="background" style="stroke: none"/></g><g class="edgeLabel"><g class="label" data-id="L_WB_SB_0" transform="translate(0, 0)"><text y="-10.1" text-anchor="middle"><tspan class="text-outer-tspan row" x="0" y="-0.1em" dy="1.1em" text-anchor="middle"/></text></g></g><g><rect class="background" style="stroke: none"/></g><g class="edgeLabel"><g class="label" data-id="L_WC_SC_0" transform="translate(0, 0)"><text y="-10.1" text-anchor="middle"><tspan class="text-outer-tspan row" x="0" y="-0.1em" dy="1.1em" text-anchor="middle"/></text></g></g><g><rect class="background" style="stroke: none"/></g><g class="edgeLabel"><g class="label" data-id="L_shared_namespaces_0" transform="translate(0, 0)"><text y="-10.1" text-anchor="middle"><tspan class="text-outer-tspan row" x="0" y="-0.1em" dy="1.1em" text-anchor="middle"/></text></g></g><g><rect class="background" style="stroke: none"/></g><g class="edgeLabel"><g class="label" data-id="L_namespaces_HA_0" transform="translate(0, 0)"><text y="-10.1" text-anchor="middle"><tspan class="text-outer-tspan row" x="0" y="-0.1em" dy="1.1em" text-anchor="middle"/></text></g></g><g><rect class="background" style="stroke: none"/></g><g class="edgeLabel"><g class="label" data-id="L_namespaces_HB_0" transform="translate(0, 0)"><text y="-10.1" text-anchor="middle"><tspan class="text-outer-tspan row" x="0" y="-0.1em" dy="1.1em" text-anchor="middle"/></text></g></g><g><rect class="background" style="stroke: none"/></g><g class="edgeLabel"><g class="label" data-id="L_namespaces_HC_0" transform="translate(0, 0)"><text y="-10.1" text-anchor="middle"><tspan class="text-outer-tspan row" x="0" y="-0.1em" dy="1.1em" text-anchor="middle"/></text></g></g><g><rect class="background" style="stroke: none"/></g><g class="edgeLabel"><g class="label" data-id="L_SC_shared_0" transform="translate(0, 0)"><text y="-10.1" text-anchor="middle"><tspan class="text-outer-tspan row" x="0" y="-0.1em" dy="1.1em" text-anchor="middle"/></text></g></g><g><rect class="background" style="stroke: none"/></g></g><g class="nodes"><g class="node default muted" id="my-svg-flowchart-WA-0" data-look="classic" transform="translate(86.256103515625, 62.5)"><rect class="basic label-container" style="fill:#f7f7f5;stroke:#d6d6d2;stroke-width:1.5px" rx="5" ry="5" x="-51.256103515625" y="-23.5" width="102.51220703125" height="47"/><g class="label" style="color:#706f6c" transform="translate(0, -8.5)"><rect/><g><rect class="background" style="stroke: none"/><text y="-10.1" style="fill:#706f6c"><tspan class="text-outer-tspan row" x="0" y="-0.1em" dy="1.1em"><tspan font-style="normal" class="text-inner-tspan" font-weight="normal">worktree-a</tspan></tspan></text></g></g></g><g class="node default stack" id="my-svg-flowchart-SA-1" data-look="classic" transform="translate(280.975830078125, 62.5)"><rect class="basic label-container" style="fill:#ffffff;stroke:#a8a8a4;stroke-width:1.5px" rx="5" ry="5" x="-89.463623046875" y="-23.5" width="178.92724609375" height="47"/><g class="label" style="color:#706f6c" transform="translate(0, -8.5)"><rect/><g><rect class="background" style="stroke: none"/><text y="-10.1" style="fill:#706f6c"><tspan class="text-outer-tspan row" x="0" y="-0.1em" dy="1.1em"><tspan font-style="normal" class="text-inner-tspan" font-weight="normal">full</tspan><tspan font-style="normal" class="text-inner-tspan" font-weight="normal"> development</tspan><tspan font-style="normal" class="text-inner-tspan" font-weight="normal"> stack</tspan></tspan></text></g></g></g><g class="node default muted" id="my-svg-flowchart-WB-2" data-look="classic" transform="translate(86.256103515625, 151.5)"><rect class="basic label-container" style="fill:#f7f7f5;stroke:#d6d6d2;stroke-width:1.5px" rx="5" ry="5" x="-50.9296875" y="-23.5" width="101.859375" height="47"/><g class="label" style="color:#706f6c" transform="translate(0, -8.5)"><rect/><g><rect class="background" style="stroke: none"/><text y="-10.1" style="fill:#706f6c"><tspan class="text-outer-tspan row" x="0" y="-0.1em" dy="1.1em"><tspan font-style="normal" class="text-inner-tspan" font-weight="normal">worktree-b</tspan></tspan></text></g></g></g><g class="node default stack" id="my-svg-flowchart-SB-3" data-look="classic" transform="translate(280.975830078125, 151.5)"><rect class="basic label-container" style="fill:#ffffff;stroke:#a8a8a4;stroke-width:1.5px" rx="5" ry="5" x="-89.463623046875" y="-23.5" width="178.92724609375" height="47"/><g class="label" style="color:#706f6c" transform="translate(0, -8.5)"><rect/><g><rect class="background" style="stroke: none"/><text y="-10.1" style="fill:#706f6c"><tspan class="text-outer-tspan row" x="0" y="-0.1em" dy="1.1em"><tspan font-style="normal" class="text-inner-tspan" font-weight="normal">full</tspan><tspan font-style="normal" class="text-inner-tspan" font-weight="normal"> development</tspan><tspan font-style="normal" class="text-inner-tspan" font-weight="normal"> stack</tspan></tspan></text></g></g></g><g class="node default muted" id="my-svg-flowchart-WC-4" data-look="classic" transform="translate(86.256103515625, 240.5)"><rect class="basic label-container" style="fill:#f7f7f5;stroke:#d6d6d2;stroke-width:1.5px" rx="5" ry="5" x="-50.756103515625" y="-23.5" width="101.51220703125" height="47"/><g class="label" style="color:#706f6c" transform="translate(0, -8.5)"><rect/><g><rect class="background" style="stroke: none"/><text y="-10.1" style="fill:#706f6c"><tspan class="text-outer-tspan row" x="0" y="-0.1em" dy="1.1em"><tspan font-style="normal" class="text-inner-tspan" font-weight="normal">worktree-c</tspan></tspan></text></g></g></g><g class="node default stack" id="my-svg-flowchart-SC-5" data-look="classic" transform="translate(280.975830078125, 240.5)"><rect class="basic label-container" style="fill:#ffffff;stroke:#a8a8a4;stroke-width:1.5px" rx="5" ry="5" x="-89.463623046875" y="-23.5" width="178.92724609375" height="47"/><g class="label" style="color:#706f6c" transform="translate(0, -8.5)"><rect/><g><rect class="background" style="stroke: none"/><text y="-10.1" style="fill:#706f6c"><tspan class="text-outer-tspan row" x="0" y="-0.1em" dy="1.1em"><tspan font-style="normal" class="text-inner-tspan" font-weight="normal">full</tspan><tspan font-style="normal" class="text-inner-tspan" font-weight="normal"> development</tspan><tspan font-style="normal" class="text-inner-tspan" font-weight="normal"> stack</tspan></tspan></text></g></g></g><g class="node default shared" id="my-svg-flowchart-shared-6" data-look="classic" transform="translate(588.62744140625, 240.5)"><rect class="basic label-container" style="fill:#1b1b18;stroke:#1b1b18;stroke-width:2px" rx="5" ry="5" x="-110.18798828125" y="-31.75" width="220.3759765625" height="63.5"/><g class="label" style="color:#ffffff" transform="translate(0, -16.75)"><rect/><g><rect class="background" style="stroke: none"/><text y="-10.1" style="fill:#ffffff"><tspan class="text-outer-tspan row" x="0" y="-0.1em" dy="1.1em"><tspan font-style="normal" class="text-inner-tspan" font-weight="normal">Shared</tspan><tspan font-style="normal" class="text-inner-tspan" font-weight="normal"> infrastructure</tspan></tspan><tspan class="text-outer-tspan row" x="0" y="1em" dy="1.1em"><tspan font-style="normal" class="text-inner-tspan" font-weight="normal">PostgreSQL</tspan><tspan font-style="normal" class="text-inner-tspan" font-weight="normal"> ·</tspan><tspan font-style="normal" class="text-inner-tspan" font-weight="normal"> Redis</tspan><tspan font-style="normal" class="text-inner-tspan" font-weight="normal"> ·</tspan><tspan font-style="normal" class="text-inner-tspan" font-weight="normal"> Mailpit</tspan></tspan></text></g></g></g><g class="node default harbour" id="my-svg-flowchart-namespaces-8" data-look="classic" transform="translate(867.2596664428711, 240.5)"><g class="basic label-container outer-path"><path d="M-81.9609375 -32.5 C-32.17363886221797 -32.5, 17.61365977556406 -32.5, 81.9609375 -32.5 C81.9609375 -32.5, 81.9609375 -32.5, 81.9609375 -32.5 C82.56562162643867 -32.48060895701136, 83.17030575287733 -32.461217914022725, 84.04321964937317 -32.43322526438593 C84.58936671159135 -32.380539114131686, 85.13551377380955 -32.32785296387743, 86.11694525474644 -32.2331754492555 C86.5297767627798 -32.166432052592825, 86.94260827081315 -32.09968865593015, 88.17359293279459 -31.900672602209628 C88.70587377682173 -31.77918297301755, 89.23815462084887 -31.65769334382547, 90.20471147705898 -31.437083048768457 C90.67860993609547 -31.2964324736702, 91.15250839513195 -31.155781898571945, 92.20195458576767 -30.84431177784673 C92.6604146896995 -30.675594221641077, 93.11887479363132 -30.50687666543542, 94.15711515857966 -30.124794613745706 C94.70729987563952 -29.881244160153063, 95.25748459269938 -29.637693706560423, 96.06215902132064 -29.281488206828623 C96.6223994053347 -28.989211157339575, 97.18263978934877 -28.696934107850527, 97.90925794012797 -28.31785788401016 C98.33279912142656 -28.061104730902695, 98.75634030272516 -27.80435157779523, 99.69082178934283 -27.237863408984822 C100.30618998832503 -26.808609192234837, 100.92155818730721 -26.379354975484855, 101.39952974096452 -26.04594271070859 C101.92114032170839 -25.62997215320586, 102.44275090245226 -25.214001595703124, 103.02836034750311 -24.746993646996874 C103.4902694993252 -24.327499976758507, 103.95217865114728 -23.908006306520136, 104.57062039461331 -23.346353878176146 C105.09807756637963 -22.80171104328826, 105.62553473814594 -22.257068208400376, 106.01997240494775 -21.849778933492804 C106.3705689603451 -21.437948270013933, 106.72116551574244 -21.02611760653506, 107.37046068021097 -20.26341856040884 C107.65496215383607 -19.88221250436866, 107.93946362746115 -19.50100644832848, 108.61653577440106 -18.59379145397052 C108.97637476255017 -18.040982137875655, 109.33621375069927 -17.488172821780793, 109.75307729767374 -16.847758470092067 C110.09821564439704 -16.23493038643749, 110.44335399112036 -15.622102302782913, 110.7754149571225 -15.032494432827146 C111.03921107432674 -14.484716151119843, 111.30300719153098 -13.936937869412539, 111.6793477480139 -13.155458651477806 C111.95932406599489 -12.463911733090884, 112.23930038397589 -11.772364814703963, 112.4611612166172 -11.224364268692513 C112.6450994016536 -10.670371761932754, 112.82903758668999 -10.116379255172996, 113.11764272369146 -9.247146565508563 C113.24419689398486 -8.764540665255458, 113.37075106427827 -8.281934765002351, 113.64609464590927 -7.231930353580221 C113.78914218534841 -6.497411471668404, 113.93218972478755 -5.7628925897565875, 114.04434546096962 -5.186996588584837 C114.14253313167683 -4.425472403928428, 114.24072080238403 -3.6639482192720187, 114.31075867084894 -3.120748341999663 C114.35640507441933 -2.409768761276981, 114.40205147798973 -1.6987891805542992, 114.44423952652235 -1.0416762710787928 C114.44423952652235 -0.4523861564730498, 114.44423952652235 0.13690395813269318, 114.44423952652235 1.041676271078785 C114.39378482052182 1.8275490433428279, 114.34333011452128 2.6134218156068707, 114.31075867084894 3.120748341999641 C114.21948401995286 3.8286565101311334, 114.12820936905678 4.536564678262626, 114.04434546096962 5.186996588584814 C113.92106914930251 5.819994394537768, 113.7977928376354 6.452992200490723, 113.64609464590927 7.231930353580214 C113.53118724793252 7.67012206324689, 113.41627984995576 8.108313772913565, 113.11764272369147 9.247146565508542 C112.97674958183364 9.671494260510695, 112.83585643997583 10.09584195551285, 112.46116121661721 11.224364268692492 C112.15691384551415 11.975861157539807, 111.8526664744111 12.727358046387124, 111.67934774801391 13.155458651477797 C111.36654012282325 13.805010378197181, 111.0537324976326 14.454562104916567, 110.7754149571225 15.03249443282714 C110.37769012641712 15.738695143750833, 109.97996529571172 16.444895854674527, 109.75307729767376 16.84775847009206 C109.49691333437066 17.241295107381223, 109.24074937106757 17.634831744670386, 108.61653577440107 18.593791453970503 C108.25290778299728 19.081019835260076, 107.8892797915935 19.568248216549645, 107.37046068021097 20.263418560408834 C106.99749059783267 20.70153044176929, 106.62452051545436 21.139642323129745, 106.01997240494777 21.849778933492786 C105.69401236965507 22.186359431749086, 105.36805233436239 22.522939930005386, 104.57062039461331 23.34635387817614 C104.17363895323444 23.70688191968307, 103.77665751185557 24.06740996119, 103.02836034750314 24.746993646996852 C102.39611158255555 25.251195212196325, 101.76386281760796 25.755396777395802, 101.39952974096452 26.045942710708587 C100.90164575548076 26.3932450259317, 100.403761769997 26.74054734115482, 99.69082178934285 27.23786340898481 C99.2455179142397 27.50780923496838, 98.80021403913655 27.777755060951954, 97.90925794012799 28.317857884010156 C97.47548011312821 28.544159498507977, 97.04170228612844 28.770461113005798, 96.06215902132064 29.28148820682862 C95.58566010340685 29.492420142950866, 95.10916118549306 29.703352079073113, 94.15711515857967 30.124794613745703 C93.50204270626494 30.36586733162089, 92.84697025395022 30.60694004949608, 92.2019545857677 30.844311777846723 C91.78128207443064 30.969165171056492, 91.36060956309356 31.09401856426626, 90.20471147705902 31.43708304876845 C89.53809738105628 31.589233366117565, 88.87148328505354 31.74138368346668, 88.1735929327946 31.900672602209625 C87.43522529240582 32.02004615618112, 86.69685765201702 32.1394197101526, 86.11694525474647 32.2331754492555 C85.69631372742077 32.27375326681318, 85.27568220009506 32.31433108437087, 84.04321964937317 32.43322526438593 C83.55420811442553 32.44890691250849, 83.0651965794779 32.46458856063105, 81.9609375 32.5 C81.9609375 32.5, 81.9609375 32.5, 81.9609375 32.5 C40.535325961426544 32.5, -0.890285577146912 32.5, -81.9609375 32.5 C-82.37851414128563 32.48660912987759, -82.79609078257127 32.47321825975519, -84.04321964937316 32.43322526438593 C-84.63117224382977 32.376506184715154, -85.21912483828636 32.31978710504438, -86.11694525474645 32.2331754492555 C-86.78074598749076 32.125857294636965, -87.44454672023507 32.01853914001843, -88.17359293279459 31.900672602209625 C-88.7338668993401 31.772793725474926, -89.29414086588561 31.64491484874023, -90.20471147705898 31.437083048768457 C-90.95733989223103 31.213706885772563, -91.70996830740307 30.99033072277667, -92.20195458576765 30.844311777846737 C-92.69959306810628 30.66117621622642, -93.19723155044491 30.4780406546061, -94.15711515857966 30.124794613745706 C-94.74364097365206 29.865157034083285, -95.33016678872447 29.60551945442086, -96.06215902132064 29.281488206828627 C-96.7798258011194 28.907081907495126, -97.49749258091816 28.532675608161625, -97.90925794012797 28.317857884010163 C-98.51163166547236 27.952695391765452, -99.11400539081676 27.58753289952074, -99.6908217893428 27.237863408984833 C-100.11233284594942 26.943835542815613, -100.53384390255603 26.649807676646393, -101.39952974096451 26.045942710708594 C-101.84890802759487 25.687575485579316, -102.29828631422522 25.329208260450038, -103.02836034750311 24.746993646996877 C-103.62627268016215 24.203985486369355, -104.2241850128212 23.66097732574183, -104.57062039461329 23.34635387817616 C-105.05284911100392 22.84841313678891, -105.53507782739456 22.350472395401663, -106.01997240494777 21.849778933492797 C-106.42471504138803 21.374345202221626, -106.82945767782829 20.898911470950456, -107.37046068021097 20.263418560408844 C-107.65400625249127 19.883493325086274, -107.93755182477157 19.503568089763704, -108.61653577440106 18.593791453970525 C-108.95536648028471 18.073256500949068, -109.29419718616838 17.55272154792761, -109.75307729767374 16.84775847009208 C-110.10726271795185 16.21886639122542, -110.46144813822995 15.589974312358756, -110.7754149571225 15.03249443282715 C-111.02093121198799 14.522674676392677, -111.26644746685346 14.012854919958205, -111.6793477480139 13.15545865147781 C-111.95648213818322 12.470931349730657, -112.23361652835254 11.786404047983503, -112.4611612166172 11.224364268692517 C-112.7115667233457 10.470182779125691, -112.9619722300742 9.716001289558868, -113.11764272369146 9.247146565508555 C-113.23567680985107 8.797031438685439, -113.35371089601068 8.346916311862323, -113.64609464590927 7.231930353580226 C-113.72811341187054 6.81078132504141, -113.81013217783182 6.389632296502595, -114.04434546096962 5.18699658858484 C-114.09953099727639 4.758988466606372, -114.15471653358314 4.330980344627903, -114.31075867084894 3.1207483419996818 C-114.35935387176698 2.3638388623609443, -114.40794907268503 1.606929382722207, -114.44423952652235 1.041676271078797 C-114.44423952652235 0.5540486125746003, -114.44423952652235 0.0664209540704036, -114.44423952652235 -1.0416762710787812 C-114.398422059494 -1.7553203032391558, -114.35260459246564 -2.46896433539953, -114.31075867084894 -3.120748341999637 C-114.24061946367283 -3.664734182304496, -114.17048025649672 -4.208720022609356, -114.04434546096962 -5.186996588584825 C-113.90757640691155 -5.889276775023267, -113.77080735285347 -6.591556961461708, -113.64609464590927 -7.231930353580211 C-113.45860855616792 -7.946896070749289, -113.27112246642656 -8.661861787918367, -113.11764272369147 -9.247146565508539 C-112.8998206369009 -9.90319198568531, -112.68199855011031 -10.559237405862081, -112.46116121661723 -11.224364268692476 C-112.21410092805468 -11.834607958027707, -111.96704063949213 -12.444851647362938, -111.67934774801391 -13.155458651477794 C-111.36878630634106 -13.800346130061808, -111.05822486466822 -14.445233608645824, -110.7754149571225 -15.032494432827136 C-110.5100445497795 -15.50368646273226, -110.24467414243648 -15.974878492637384, -109.75307729767374 -16.84775847009207 C-109.485841738886 -17.25830405118533, -109.21860618009823 -17.66884963227859, -108.61653577440106 -18.593791453970514 C-108.30862396394383 -19.0063652286402, -108.0007121534866 -19.418939003309884, -107.37046068021098 -20.263418560408834 C-107.01059004542459 -20.686143085248148, -106.65071941063819 -21.108867610087458, -106.01997240494777 -21.849778933492786 C-105.64071607862267 -22.241392227946918, -105.26145975229757 -22.633005522401053, -104.57062039461333 -23.346353878176128 C-104.20912140314934 -23.67465769748454, -103.84762241168535 -24.002961516792958, -103.02836034750315 -24.74699364699685 C-102.65075063208711 -25.048127346424597, -102.27314091667108 -25.349261045852344, -101.39952974096454 -26.045942710708584 C-101.02183217833314 -26.309408180136273, -100.64413461570176 -26.572873649563963, -99.69082178934285 -27.237863408984808 C-99.20609455217922 -27.531707908726833, -98.7213673150156 -27.825552408468855, -97.90925794012799 -28.317857884010152 C-97.5145777527115 -28.523762284980606, -97.11989756529503 -28.72966668595106, -96.06215902132065 -29.28148820682862 C-95.53107712345651 -29.516582409028313, -94.99999522559236 -29.75167661122801, -94.15711515857967 -30.1247946137457 C-93.45222344657643 -30.384201279710453, -92.74733173457317 -30.64360794567521, -92.2019545857677 -30.844311777846723 C-91.43767822856054 -31.071144988897345, -90.67340187135338 -31.297978199947963, -90.20471147705902 -31.437083048768447 C-89.70150751777187 -31.551936068763023, -89.19830355848474 -31.666789088757604, -88.17359293279462 -31.90067260220962 C-87.3713584652507 -32.03037164950091, -86.56912399770677 -32.1600706967922, -86.11694525474647 -32.2331754492555 C-85.31706298483229 -32.310339129834944, -84.51718071491811 -32.38750281041439, -84.04321964937317 -32.43322526438593 C-83.51150666772345 -32.4502762647909, -82.97979368607375 -32.46732726519588, -81.96093750000001 -32.5 C-81.96093750000001 -32.5, -81.9609375 -32.5, -81.9609375 -32.5" stroke="none" stroke-width="0" fill="#f53003" style="fill:#f53003;stroke:#d62a00;stroke-width:2.5px"/><path d="M-81.9609375 -32.5 C-42.62192278969655 -32.5, -3.2829080793930956 -32.5, 81.9609375 -32.5 M-81.9609375 -32.5 C-24.782549978748364 -32.5, 32.39583754250327 -32.5, 81.9609375 -32.5 M81.9609375 -32.5 C81.9609375 -32.5, 81.9609375 -32.5, 81.9609375 -32.5 M81.9609375 -32.5 C81.9609375 -32.5, 81.9609375 -32.5, 81.9609375 -32.5 M81.9609375 -32.5 C82.53385700474688 -32.48162758660293, 83.10677650949374 -32.463255173205866, 84.04321964937317 -32.43322526438593 M81.9609375 -32.5 C82.5177861797565 -32.48214294668041, 83.07463485951298 -32.464285893360824, 84.04321964937317 -32.43322526438593 M84.04321964937317 -32.43322526438593 C84.68623066875071 -32.371194764680475, 85.32924168812826 -32.30916426497501, 86.11694525474644 -32.2331754492555 M84.04321964937317 -32.43322526438593 C84.60515596550661 -32.379015943795835, 85.16709228164005 -32.32480662320574, 86.11694525474644 -32.2331754492555 M86.11694525474644 -32.2331754492555 C86.6975773302896 -32.13930335815068, 87.27820940583275 -32.045431267045856, 88.17359293279459 -31.900672602209628 M86.11694525474644 -32.2331754492555 C86.5816965959473 -32.15803805661062, 87.04644793714817 -32.08290066396575, 88.17359293279459 -31.900672602209628 M88.17359293279459 -31.900672602209628 C88.732473850615 -31.773111679755942, 89.2913547684354 -31.645550757302257, 90.20471147705898 -31.437083048768457 M88.17359293279459 -31.900672602209628 C88.90425812631517 -31.73390303982454, 89.63492331983574 -31.56713347743945, 90.20471147705898 -31.437083048768457 M90.20471147705898 -31.437083048768457 C90.82312115262029 -31.25354230316049, 91.44153082818158 -31.070001557552523, 92.20195458576767 -30.84431177784673 M90.20471147705898 -31.437083048768457 C90.7741499520141 -31.268076698445327, 91.34358842696923 -31.099070348122194, 92.20195458576767 -30.84431177784673 M92.20195458576767 -30.84431177784673 C92.71668417307201 -30.654886531610586, 93.23141376037636 -30.46546128537444, 94.15711515857966 -30.124794613745706 M92.20195458576767 -30.84431177784673 C92.88147555635834 -30.59424177924637, 93.560996526949 -30.344171780646015, 94.15711515857966 -30.124794613745706 M94.15711515857966 -30.124794613745706 C94.58277127142668 -29.93636927922829, 95.00842738427372 -29.747943944710872, 96.06215902132064 -29.281488206828623 M94.15711515857966 -30.124794613745706 C94.706986541972 -29.881382863672965, 95.25685792536433 -29.637971113600223, 96.06215902132064 -29.281488206828623 M96.06215902132064 -29.281488206828623 C96.70640529052758 -28.945385340842794, 97.35065155973452 -28.60928247485696, 97.90925794012797 -28.31785788401016 M96.06215902132064 -29.281488206828623 C96.60972900286286 -28.995821298193356, 97.15729898440509 -28.710154389558085, 97.90925794012797 -28.31785788401016 M97.90925794012797 -28.31785788401016 C98.27717898639952 -28.09482198361629, 98.64510003267105 -27.871786083222418, 99.69082178934283 -27.237863408984822 M97.90925794012797 -28.31785788401016 C98.3230218732634 -28.067031756196695, 98.73678580639883 -27.816205628383234, 99.69082178934283 -27.237863408984822 M99.69082178934283 -27.237863408984822 C100.23449952465398 -26.858617356261604, 100.77817725996513 -26.479371303538382, 101.39952974096452 -26.04594271070859 M99.69082178934283 -27.237863408984822 C100.3102491969587 -26.8057776640123, 100.92967660457455 -26.373691919039782, 101.39952974096452 -26.04594271070859 M101.39952974096452 -26.04594271070859 C101.96461702767289 -25.595300637162904, 102.52970431438125 -25.14465856361722, 103.02836034750311 -24.746993646996874 M101.39952974096452 -26.04594271070859 C101.97636204211958 -25.585934300689633, 102.55319434327463 -25.125925890670675, 103.02836034750311 -24.746993646996874 M103.02836034750311 -24.746993646996874 C103.38905296984629 -24.41942215078863, 103.74974559218946 -24.091850654580384, 104.57062039461331 -23.346353878176146 M103.02836034750311 -24.746993646996874 C103.52117159986092 -24.29943550667673, 104.01398285221873 -23.851877366356586, 104.57062039461331 -23.346353878176146 M104.57062039461331 -23.346353878176146 C105.00205630998417 -22.900860874008334, 105.43349222535502 -22.455367869840522, 106.01997240494775 -21.849778933492804 M104.57062039461331 -23.346353878176146 C104.86127640744726 -23.046227681622636, 105.15193242028123 -22.74610148506913, 106.01997240494775 -21.849778933492804 M106.01997240494775 -21.849778933492804 C106.5476113561399 -21.229984197915652, 107.07525030733206 -20.6101894623385, 107.37046068021097 -20.26341856040884 M106.01997240494775 -21.849778933492804 C106.40460571158413 -21.39796676526256, 106.7892390182205 -20.94615459703232, 107.37046068021097 -20.26341856040884 M107.37046068021097 -20.26341856040884 C107.77310569618636 -19.723910920717383, 108.17575071216176 -19.18440328102593, 108.61653577440106 -18.59379145397052 M107.37046068021097 -20.26341856040884 C107.66535798701882 -19.86828303498365, 107.96025529382666 -19.473147509558466, 108.61653577440106 -18.59379145397052 M108.61653577440106 -18.59379145397052 C108.90026935909422 -18.15790047474627, 109.1840029437874 -17.72200949552202, 109.75307729767374 -16.847758470092067 M108.61653577440106 -18.59379145397052 C109.03727295884086 -17.94742615491774, 109.45801014328067 -17.301060855864957, 109.75307729767374 -16.847758470092067 M109.75307729767374 -16.847758470092067 C110.09286211631502 -16.244436117650643, 110.4326469349563 -15.641113765209221, 110.7754149571225 -15.032494432827146 M109.75307729767374 -16.847758470092067 C110.0697034738633 -16.285556632390495, 110.38632965005287 -15.723354794688927, 110.7754149571225 -15.032494432827146 M110.7754149571225 -15.032494432827146 C111.12827112813595 -14.299781043805137, 111.48112729914939 -13.567067654783129, 111.6793477480139 -13.155458651477806 M110.7754149571225 -15.032494432827146 C111.0937527008848 -14.371459296568156, 111.4120904446471 -13.710424160309167, 111.6793477480139 -13.155458651477806 M111.6793477480139 -13.155458651477806 C111.84478512908862 -12.74682512170907, 112.01022251016335 -12.338191591940335, 112.4611612166172 -11.224364268692513 M111.6793477480139 -13.155458651477806 C111.91104590062575 -12.583159734947479, 112.1427440532376 -12.01086081841715, 112.4611612166172 -11.224364268692513 M112.4611612166172 -11.224364268692513 C112.67679257586997 -10.574916970814618, 112.89242393512274 -9.925469672936723, 113.11764272369146 -9.247146565508563 M112.4611612166172 -11.224364268692513 C112.68955536460304 -10.536477484624829, 112.91794951258888 -9.848590700557144, 113.11764272369146 -9.247146565508563 M113.11764272369146 -9.247146565508563 C113.26556289653378 -8.683062837452374, 113.4134830693761 -8.118979109396184, 113.64609464590927 -7.231930353580221 M113.11764272369146 -9.247146565508563 C113.29518803429639 -8.570089347547638, 113.47273334490131 -7.8930321295867145, 113.64609464590927 -7.231930353580221 M113.64609464590927 -7.231930353580221 C113.77524366165878 -6.568777453360618, 113.9043926774083 -5.905624553141016, 114.04434546096962 -5.186996588584837 M113.64609464590927 -7.231930353580221 C113.72651987102437 -6.818963820491531, 113.80694509613947 -6.40599728740284, 114.04434546096962 -5.186996588584837 M114.04434546096962 -5.186996588584837 C114.13122320375442 -4.513189971496777, 114.21810094653921 -3.8393833544087164, 114.31075867084894 -3.120748341999663 M114.04434546096962 -5.186996588584837 C114.13417883585994 -4.49026667254192, 114.22401221075025 -3.7935367564990035, 114.31075867084894 -3.120748341999663 M114.31075867084894 -3.120748341999663 C114.35847586974889 -2.3775144525033283, 114.40619306864883 -1.6342805630069934, 114.44423952652235 -1.0416762710787928 M114.31075867084894 -3.120748341999663 C114.35164048081303 -2.483981152605822, 114.39252229077712 -1.8472139632119817, 114.44423952652235 -1.0416762710787928 M114.44423952652235 -1.0416762710787928 C114.44423952652235 -0.3080675913160339, 114.44423952652235 0.425541088446725, 114.44423952652235 1.041676271078785 M114.44423952652235 -1.0416762710787928 C114.44423952652235 -0.40921240089249633, 114.44423952652235 0.22325146929380013, 114.44423952652235 1.041676271078785 M114.44423952652235 1.041676271078785 C114.4027387784316 1.6880839213931518, 114.36123803034086 2.3344915717075185, 114.31075867084894 3.120748341999641 M114.44423952652235 1.041676271078785 C114.4093395735814 1.5852712088690675, 114.37443962064046 2.12886614665935, 114.31075867084894 3.120748341999641 M114.31075867084894 3.120748341999641 C114.23794340445139 3.685489169178372, 114.16512813805383 4.2502299963571035, 114.04434546096962 5.186996588584814 M114.31075867084894 3.120748341999641 C114.20835773589525 3.9149497721486406, 114.10595680094157 4.70915120229764, 114.04434546096962 5.186996588584814 M114.04434546096962 5.186996588584814 C113.9342637041152 5.752243144244748, 113.82418194726078 6.317489699904682, 113.64609464590927 7.231930353580214 M114.04434546096962 5.186996588584814 C113.92868288706485 5.780899460292204, 113.81302031316007 6.374802331999595, 113.64609464590927 7.231930353580214 M113.64609464590927 7.231930353580214 C113.4575692531371 7.950859383642586, 113.26904386036493 8.669788413704957, 113.11764272369147 9.247146565508542 M113.64609464590927 7.231930353580214 C113.49428283813087 7.8108545722929525, 113.34247103035247 8.389778791005691, 113.11764272369147 9.247146565508542 M113.11764272369147 9.247146565508542 C112.8631006078686 10.013786862588452, 112.60855849204573 10.780427159668362, 112.46116121661721 11.224364268692492 M113.11764272369147 9.247146565508542 C112.93359817250322 9.801459430170526, 112.74955362131497 10.355772294832509, 112.46116121661721 11.224364268692492 M112.46116121661721 11.224364268692492 C112.19612639636946 11.8790053988041, 111.93109157612172 12.53364652891571, 111.67934774801391 13.155458651477797 M112.46116121661721 11.224364268692492 C112.26216268657264 11.71589448527746, 112.06316415652805 12.207424701862427, 111.67934774801391 13.155458651477797 M111.67934774801391 13.155458651477797 C111.44541225472949 13.6412307087006, 111.21147676144507 14.127002765923402, 110.7754149571225 15.03249443282714 M111.67934774801391 13.155458651477797 C111.38796063731819 13.76053022152285, 111.09657352662246 14.365601791567904, 110.7754149571225 15.03249443282714 M110.7754149571225 15.03249443282714 C110.49159257445467 15.536449813386602, 110.20777019178684 16.040405193946064, 109.75307729767376 16.84775847009206 M110.7754149571225 15.03249443282714 C110.56302413963326 15.409615836181706, 110.350633322144 15.786737239536274, 109.75307729767376 16.84775847009206 M109.75307729767376 16.84775847009206 C109.40892477758582 17.37646915883848, 109.0647722574979 17.9051798475849, 108.61653577440107 18.593791453970503 M109.75307729767376 16.84775847009206 C109.38598749914048 17.411706978052212, 109.01889770060721 17.975655486012364, 108.61653577440107 18.593791453970503 M108.61653577440107 18.593791453970503 C108.30767390730982 19.00763821797784, 107.99881204021857 19.421484981985174, 107.37046068021097 20.263418560408834 M108.61653577440107 18.593791453970503 C108.22986982035656 19.111888606397063, 107.84320386631205 19.629985758823626, 107.37046068021097 20.263418560408834 M107.37046068021097 20.263418560408834 C106.94502081837628 20.76316443033379, 106.51958095654159 21.26291030025875, 106.01997240494777 21.849778933492786 M107.37046068021097 20.263418560408834 C107.0452728078772 20.645402738966204, 106.72008493554343 21.027386917523575, 106.01997240494777 21.849778933492786 M106.01997240494777 21.849778933492786 C105.70385733483594 22.176193696913167, 105.38774226472412 22.502608460333548, 104.57062039461331 23.34635387817614 M106.01997240494777 21.849778933492786 C105.6285429851261 22.253961946411682, 105.23711356530444 22.65814495933058, 104.57062039461331 23.34635387817614 M104.57062039461331 23.34635387817614 C104.10666051806146 23.76770996235489, 103.6427006415096 24.189066046533636, 103.02836034750314 24.746993646996852 M104.57062039461331 23.34635387817614 C104.08061747521573 23.79136156480623, 103.59061455581814 24.23636925143632, 103.02836034750314 24.746993646996852 M103.02836034750314 24.746993646996852 C102.4332022367981 25.221616402461656, 101.83804412609305 25.69623915792646, 101.39952974096452 26.045942710708587 M103.02836034750314 24.746993646996852 C102.55501165055901 25.124476636471957, 102.08166295361488 25.501959625947062, 101.39952974096452 26.045942710708587 M101.39952974096452 26.045942710708587 C100.9552540906304 26.35585017199874, 100.51097844029628 26.665757633288887, 99.69082178934285 27.23786340898481 M101.39952974096452 26.045942710708587 C100.9666796818709 26.34788017415524, 100.53382962277728 26.649817637601892, 99.69082178934285 27.23786340898481 M99.69082178934285 27.23786340898481 C99.2628515264714 27.497301497369918, 98.83488126359994 27.756739585755025, 97.90925794012799 28.317857884010156 M99.69082178934285 27.23786340898481 C99.14115443203387 27.57107499118945, 98.5914870747249 27.904286573394092, 97.90925794012799 28.317857884010156 M97.90925794012799 28.317857884010156 C97.46071361289803 28.55186317221967, 97.01216928566808 28.785868460429178, 96.06215902132064 29.28148820682862 M97.90925794012799 28.317857884010156 C97.37045185222237 28.598952674948737, 96.83164576431678 28.88004746588732, 96.06215902132064 29.28148820682862 M96.06215902132064 29.28148820682862 C95.43207130714131 29.560409347007855, 94.80198359296199 29.83933048718709, 94.15711515857967 30.124794613745703 M96.06215902132064 29.28148820682862 C95.32626373420095 29.60724722087842, 94.59036844708126 29.933006234928218, 94.15711515857967 30.124794613745703 M94.15711515857967 30.124794613745703 C93.61781367015692 30.323262546733588, 93.07851218173415 30.52173047972147, 92.2019545857677 30.844311777846723 M94.15711515857967 30.124794613745703 C93.5759451274093 30.33867055749328, 92.99477509623891 30.552546501240855, 92.2019545857677 30.844311777846723 M92.2019545857677 30.844311777846723 C91.5987890348564 31.023328147276615, 90.99562348394508 31.202344516706507, 90.20471147705902 31.43708304876845 M92.2019545857677 30.844311777846723 C91.7269839208305 30.98528057802819, 91.2520132558933 31.12624937820965, 90.20471147705902 31.43708304876845 M90.20471147705902 31.43708304876845 C89.63059897655691 31.568120480573867, 89.0564864760548 31.699157912379285, 88.1735929327946 31.900672602209625 M90.20471147705902 31.43708304876845 C89.73155461576121 31.545078014722602, 89.2583977544634 31.65307298067675, 88.1735929327946 31.900672602209625 M88.1735929327946 31.900672602209625 C87.7436705412405 31.970179120378152, 87.3137481496864 32.03968563854668, 86.11694525474647 32.2331754492555 M88.1735929327946 31.900672602209625 C87.74852931674455 31.969393591235022, 87.3234657006945 32.03811458026042, 86.11694525474647 32.2331754492555 M86.11694525474647 32.2331754492555 C85.67329065694399 32.27597427473278, 85.22963605914151 32.31877310021007, 84.04321964937317 32.43322526438593 M86.11694525474647 32.2331754492555 C85.46466311500818 32.296100322792, 84.81238097526989 32.35902519632851, 84.04321964937317 32.43322526438593 M84.04321964937317 32.43322526438593 C83.52452551375316 32.44985877573838, 83.00583137813314 32.46649228709082, 81.9609375 32.5 M84.04321964937317 32.43322526438593 C83.34618360309913 32.45557785369158, 82.6491475568251 32.477930442997234, 81.9609375 32.5 M81.9609375 32.5 C81.9609375 32.5, 81.9609375 32.5, 81.9609375 32.5 M81.9609375 32.5 C81.9609375 32.5, 81.9609375 32.5, 81.9609375 32.5 M81.9609375 32.5 C29.932230305422046 32.5, -22.09647688915591 32.5, -81.9609375 32.5 M81.9609375 32.5 C28.862765754256507 32.5, -24.235405991486985 32.5, -81.9609375 32.5 M-81.9609375 32.5 C-82.39712459687684 32.48601232878984, -82.83331169375369 32.47202465757968, -84.04321964937316 32.43322526438593 M-81.9609375 32.5 C-82.65767425637038 32.47765700833903, -83.35441101274078 32.45531401667805, -84.04321964937316 32.43322526438593 M-84.04321964937316 32.43322526438593 C-84.72425935219651 32.36752618332464, -85.40529905501987 32.301827102263346, -86.11694525474645 32.2331754492555 M-84.04321964937316 32.43322526438593 C-84.48226534687184 32.39087105397794, -84.92131104437054 32.348516843569946, -86.11694525474645 32.2331754492555 M-86.11694525474645 32.2331754492555 C-86.82204523849951 32.11918035201435, -87.52714522225259 32.00518525477319, -88.17359293279459 31.900672602209625 M-86.11694525474645 32.2331754492555 C-86.6329566590343 32.14975072713844, -87.14896806332217 32.06632600502139, -88.17359293279459 31.900672602209625 M-88.17359293279459 31.900672602209625 C-88.94214244184542 31.72525619202302, -89.71069195089625 31.549839781836415, -90.20471147705898 31.437083048768457 M-88.17359293279459 31.900672602209625 C-88.84490103023812 31.747450909662874, -89.51620912768165 31.59422921711612, -90.20471147705898 31.437083048768457 M-90.20471147705898 31.437083048768457 C-90.70289308090027 31.289225363756966, -91.20107468474154 31.141367678745475, -92.20195458576765 30.844311777846737 M-90.20471147705898 31.437083048768457 C-90.7161646294787 31.285286437802664, -91.22761778189842 31.133489826836875, -92.20195458576765 30.844311777846737 M-92.20195458576765 30.844311777846737 C-92.62834119620851 30.68739756372988, -93.05472780664937 30.530483349613025, -94.15711515857966 30.124794613745706 M-92.20195458576765 30.844311777846737 C-92.76280824849916 30.637912445487117, -93.32366191123067 30.431513113127494, -94.15711515857966 30.124794613745706 M-94.15711515857966 30.124794613745706 C-94.91493268951847 29.789331272657442, -95.67275022045729 29.453867931569174, -96.06215902132064 29.281488206828627 M-94.15711515857966 30.124794613745706 C-94.84907399858582 29.81848496150467, -95.541032838592 29.51217530926363, -96.06215902132064 29.281488206828627 M-96.06215902132064 29.281488206828627 C-96.60956626064922 28.99590620070198, -97.15697349997778 28.710324194575335, -97.90925794012797 28.317857884010163 M-96.06215902132064 29.281488206828627 C-96.63134209528441 28.984545761720884, -97.20052516924818 28.687603316613146, -97.90925794012797 28.317857884010163 M-97.90925794012797 28.317857884010163 C-98.46794937682952 27.979175851846364, -99.02664081353107 27.640493819682565, -99.6908217893428 27.237863408984833 M-97.90925794012797 28.317857884010163 C-98.46627651850517 27.9801899483934, -99.02329509688235 27.642522012776634, -99.6908217893428 27.237863408984833 M-99.6908217893428 27.237863408984833 C-100.13043952241928 26.93120510913563, -100.57005725549575 26.62454680928642, -101.39952974096451 26.045942710708594 M-99.6908217893428 27.237863408984833 C-100.23450263847239 26.858615184196665, -100.77818348760198 26.479366959408498, -101.39952974096451 26.045942710708594 M-101.39952974096451 26.045942710708594 C-101.72646872905825 25.785217567915694, -102.053407717152 25.52449242512279, -103.02836034750311 24.746993646996877 M-101.39952974096451 26.045942710708594 C-101.86859041242145 25.671879307450368, -102.33765108387841 25.297815904192138, -103.02836034750311 24.746993646996877 M-103.02836034750311 24.746993646996877 C-103.48690909084496 24.33055181082871, -103.94545783418681 23.914109974660544, -104.57062039461329 23.34635387817616 M-103.02836034750311 24.746993646996877 C-103.55794749089208 24.266036615478992, -104.08753463428104 23.785079583961107, -104.57062039461329 23.34635387817616 M-104.57062039461329 23.34635387817616 C-105.11380890659251 22.785467142951397, -105.65699741857175 22.224580407726634, -106.01997240494777 21.849778933492797 M-104.57062039461329 23.34635387817616 C-105.0264923944101 22.875628610598717, -105.4823643942069 22.404903343021275, -106.01997240494777 21.849778933492797 M-106.01997240494777 21.849778933492797 C-106.39433205674148 21.41003478482826, -106.7686917085352 20.97029063616372, -107.37046068021097 20.263418560408844 M-106.01997240494777 21.849778933492797 C-106.40484690049357 21.397683451045502, -106.78972139603935 20.94558796859821, -107.37046068021097 20.263418560408844 M-107.37046068021097 20.263418560408844 C-107.81595724137442 19.66649375402147, -108.26145380253786 19.069568947634096, -108.61653577440106 18.593791453970525 M-107.37046068021097 20.263418560408844 C-107.79932786010673 19.688775609952362, -108.2281950400025 19.11413265949588, -108.61653577440106 18.593791453970525 M-108.61653577440106 18.593791453970525 C-108.92800909409151 18.11528479262863, -109.23948241378196 17.636778131286736, -109.75307729767374 16.84775847009208 M-108.61653577440106 18.593791453970525 C-109.05572200519097 17.91908346546138, -109.49490823598087 17.244375476952236, -109.75307729767374 16.84775847009208 M-109.75307729767374 16.84775847009208 C-110.07837413164727 16.27016100149576, -110.4036709656208 15.692563532899444, -110.7754149571225 15.03249443282715 M-109.75307729767374 16.84775847009208 C-110.04967187577401 16.3211247632173, -110.34626645387429 15.794491056342517, -110.7754149571225 15.03249443282715 M-110.7754149571225 15.03249443282715 C-111.00780357096221 14.549934503869206, -111.24019218480193 14.067374574911263, -111.6793477480139 13.15545865147781 M-110.7754149571225 15.03249443282715 C-110.99656931948385 14.573262667438483, -111.21772368184521 14.114030902049818, -111.6793477480139 13.15545865147781 M-111.6793477480139 13.15545865147781 C-111.9216876783728 12.556874338167486, -112.16402760873171 11.958290024857163, -112.4611612166172 11.224364268692517 M-111.6793477480139 13.15545865147781 C-111.85520563269633 12.721086276331317, -112.03106351737874 12.286713901184825, -112.4611612166172 11.224364268692517 M-112.4611612166172 11.224364268692517 C-112.62054650598567 10.744321171711887, -112.77993179535414 10.264278074731257, -113.11764272369146 9.247146565508555 M-112.4611612166172 11.224364268692517 C-112.62832812329731 10.72088418020159, -112.79549502997742 10.217404091710666, -113.11764272369146 9.247146565508555 M-113.11764272369146 9.247146565508555 C-113.31060060436565 8.511314538023427, -113.50355848503983 7.775482510538302, -113.64609464590927 7.231930353580226 M-113.11764272369146 9.247146565508555 C-113.32691889419819 8.449085826500408, -113.5361950647049 7.651025087492263, -113.64609464590927 7.231930353580226 M-113.64609464590927 7.231930353580226 C-113.72838169779766 6.809403733507962, -113.81066874968603 6.386877113435698, -114.04434546096962 5.18699658858484 M-113.64609464590927 7.231930353580226 C-113.77819850958085 6.55360493378818, -113.9103023732524 5.8752795139961345, -114.04434546096962 5.18699658858484 M-114.04434546096962 5.18699658858484 C-114.10528463133593 4.714364417024028, -114.16622380170224 4.241732245463217, -114.31075867084894 3.1207483419996818 M-114.04434546096962 5.18699658858484 C-114.1468223676346 4.392205936845379, -114.24929927429959 3.5974152851059182, -114.31075867084894 3.1207483419996818 M-114.31075867084894 3.1207483419996818 C-114.3544992084599 2.4394541619824834, -114.39823974607086 1.758159981965285, -114.44423952652235 1.041676271078797 M-114.31075867084894 3.1207483419996818 C-114.35618664067734 2.413171043125233, -114.40161461050572 1.705593744250784, -114.44423952652235 1.041676271078797 M-114.44423952652235 1.041676271078797 C-114.44423952652235 0.5366902144691148, -114.44423952652235 0.03170415785943259, -114.44423952652235 -1.0416762710787812 M-114.44423952652235 1.041676271078797 C-114.44423952652235 0.37361473728603745, -114.44423952652235 -0.2944467965067221, -114.44423952652235 -1.0416762710787812 M-114.44423952652235 -1.0416762710787812 C-114.4167784218699 -1.469405142245256, -114.38931731721748 -1.8971340134117312, -114.31075867084894 -3.120748341999637 M-114.44423952652235 -1.0416762710787812 C-114.41481504453238 -1.4999863290870241, -114.3853905625424 -1.958296387095267, -114.31075867084894 -3.120748341999637 M-114.31075867084894 -3.120748341999637 C-114.24776714619627 -3.6092981681223018, -114.1847756215436 -4.097847994244966, -114.04434546096962 -5.186996588584825 M-114.31075867084894 -3.120748341999637 C-114.2339068956416 -3.7167955344083006, -114.15705512043424 -4.312842726816964, -114.04434546096962 -5.186996588584825 M-114.04434546096962 -5.186996588584825 C-113.89329176112479 -5.962625412077287, -113.74223806127996 -6.738254235569748, -113.64609464590927 -7.231930353580211 M-114.04434546096962 -5.186996588584825 C-113.94981560670236 -5.672387411355446, -113.85528575243511 -6.157778234126067, -113.64609464590927 -7.231930353580211 M-113.64609464590927 -7.231930353580211 C-113.46359606586113 -7.927876534688719, -113.28109748581298 -8.623822715797226, -113.11764272369147 -9.247146565508539 M-113.64609464590927 -7.231930353580211 C-113.49685485121074 -7.8010463717018705, -113.34761505651221 -8.37016238982353, -113.11764272369147 -9.247146565508539 M-113.11764272369147 -9.247146565508539 C-112.94000038810356 -9.782176976836864, -112.76235805251564 -10.31720738816519, -112.46116121661723 -11.224364268692476 M-113.11764272369147 -9.247146565508539 C-112.93748184718982 -9.789762420794052, -112.75732097068816 -10.332378276079565, -112.46116121661723 -11.224364268692476 M-112.46116121661723 -11.224364268692476 C-112.20502549414051 -11.85702445525725, -111.94888977166381 -12.489684641822022, -111.67934774801391 -13.155458651477794 M-112.46116121661723 -11.224364268692476 C-112.27140282996213 -11.693071152459403, -112.08164444330703 -12.161778036226332, -111.67934774801391 -13.155458651477794 M-111.67934774801391 -13.155458651477794 C-111.41062465998242 -13.713467893528168, -111.14190157195094 -14.271477135578543, -110.7754149571225 -15.032494432827136 M-111.67934774801391 -13.155458651477794 C-111.4212697041542 -13.69136323153801, -111.1631916602945 -14.227267811598225, -110.7754149571225 -15.032494432827136 M-110.7754149571225 -15.032494432827136 C-110.47089128718433 -15.573207045167733, -110.16636761724615 -16.11391965750833, -109.75307729767374 -16.84775847009207 M-110.7754149571225 -15.032494432827136 C-110.45108936610072 -15.608367361213622, -110.12676377507893 -16.18424028960011, -109.75307729767374 -16.84775847009207 M-109.75307729767374 -16.84775847009207 C-109.52067506774576 -17.204790703998242, -109.28827283781777 -17.561822937904413, -108.61653577440106 -18.593791453970514 M-109.75307729767374 -16.84775847009207 C-109.31072456113381 -17.527331061759096, -108.86837182459388 -18.20690365342612, -108.61653577440106 -18.593791453970514 M-108.61653577440106 -18.593791453970514 C-108.24528220854157 -19.091237410326613, -107.87402864268206 -19.588683366682716, -107.37046068021098 -20.263418560408834 M-108.61653577440106 -18.593791453970514 C-108.12736012922251 -19.249242253691712, -107.63818448404396 -19.90469305341291, -107.37046068021098 -20.263418560408834 M-107.37046068021098 -20.263418560408834 C-106.91308312588954 -20.800680261234902, -106.45570557156812 -21.337941962060967, -106.01997240494777 -21.849778933492786 M-107.37046068021098 -20.263418560408834 C-106.84681268039819 -20.878525297404224, -106.32316468058539 -21.493632034399617, -106.01997240494777 -21.849778933492786 M-106.01997240494777 -21.849778933492786 C-105.49807333399329 -22.38868257296389, -104.9761742630388 -22.927586212434996, -104.57062039461333 -23.346353878176128 M-106.01997240494777 -21.849778933492786 C-105.58742717317817 -22.296417397918873, -105.15488194140856 -22.743055862344956, -104.57062039461333 -23.346353878176128 M-104.57062039461333 -23.346353878176128 C-103.98994627468024 -23.873706750104056, -103.40927215474716 -24.401059622031987, -103.02836034750315 -24.74699364699685 M-104.57062039461333 -23.346353878176128 C-104.19887764420513 -23.68396080832267, -103.82713489379692 -24.021567738469212, -103.02836034750315 -24.74699364699685 M-103.02836034750315 -24.74699364699685 C-102.671723645898 -25.031401926025755, -102.31508694429284 -25.315810205054664, -101.39952974096454 -26.045942710708584 M-103.02836034750315 -24.74699364699685 C-102.38219964882225 -25.262289609136538, -101.73603895014134 -25.777585571276223, -101.39952974096454 -26.045942710708584 M-101.39952974096454 -26.045942710708584 C-101.04327295345135 -26.294452023570017, -100.68701616593815 -26.54296133643145, -99.69082178934285 -27.237863408984808 M-101.39952974096454 -26.045942710708584 C-100.83327156140842 -26.44093990384541, -100.26701338185231 -26.835937096982235, -99.69082178934285 -27.237863408984808 M-99.69082178934285 -27.237863408984808 C-99.3010281564097 -27.47415859995053, -98.91123452347655 -27.710453790916258, -97.90925794012799 -28.317857884010152 M-99.69082178934285 -27.237863408984808 C-99.05848950003342 -27.62118695876119, -98.42615721072399 -28.004510508537575, -97.90925794012799 -28.317857884010152 M-97.90925794012799 -28.317857884010152 C-97.35820696504233 -28.605340824747348, -96.80715598995667 -28.89282376548454, -96.06215902132065 -29.28148820682862 M-97.90925794012799 -28.317857884010152 C-97.28440428036329 -28.643843638071527, -96.6595506205986 -28.969829392132898, -96.06215902132065 -29.28148820682862 M-96.06215902132065 -29.28148820682862 C-95.63348553978636 -29.471249240956823, -95.20481205825209 -29.661010275085022, -94.15711515857967 -30.1247946137457 M-96.06215902132065 -29.28148820682862 C-95.6659907428685 -29.45686015178495, -95.26982246441635 -29.632232096741284, -94.15711515857967 -30.1247946137457 M-94.15711515857967 -30.1247946137457 C-93.58296717373271 -30.336086379535175, -93.00881918888574 -30.54737814532465, -92.2019545857677 -30.844311777846723 M-94.15711515857967 -30.1247946137457 C-93.76032965144066 -30.270815348217877, -93.36354414430164 -30.416836082690054, -92.2019545857677 -30.844311777846723 M-92.2019545857677 -30.844311777846723 C-91.49293130425028 -31.054746166061943, -90.78390802273285 -31.265180554277162, -90.20471147705902 -31.437083048768447 M-92.2019545857677 -30.844311777846723 C-91.58104058608096 -31.028595793709652, -90.96012658639422 -31.212879809572584, -90.20471147705902 -31.437083048768447 M-90.20471147705902 -31.437083048768447 C-89.57523739905963 -31.580756399369566, -88.94576332106023 -31.724429749970685, -88.17359293279462 -31.90067260220962 M-90.20471147705902 -31.437083048768447 C-89.50491631425179 -31.596806728088993, -88.80512115144455 -31.75653040740954, -88.17359293279462 -31.90067260220962 M-88.17359293279462 -31.90067260220962 C-87.6559842906191 -31.98435555336159, -87.13837564844358 -32.06803850451355, -86.11694525474647 -32.2331754492555 M-88.17359293279462 -31.90067260220962 C-87.36336967904784 -32.03166321450023, -86.55314642530107 -32.16265382679083, -86.11694525474647 -32.2331754492555 M-86.11694525474647 -32.2331754492555 C-85.4468379033596 -32.29781989952179, -84.77673055197273 -32.36246434978808, -84.04321964937317 -32.43322526438593 M-86.11694525474647 -32.2331754492555 C-85.47328310810838 -32.29526876242468, -84.8296209614703 -32.357362075593876, -84.04321964937317 -32.43322526438593 M-84.04321964937317 -32.43322526438593 C-83.30866402299242 -32.45678103359817, -82.57410839661165 -32.48033680281041, -81.96093750000001 -32.5 M-84.04321964937317 -32.43322526438593 C-83.49174350686924 -32.45091003089284, -82.94026736436531 -32.468594797399746, -81.96093750000001 -32.5 M-81.96093750000001 -32.5 C-81.96093750000001 -32.5, -81.96093750000001 -32.5, -81.9609375 -32.5 M-81.96093750000001 -32.5 C-81.96093750000001 -32.5, -81.9609375 -32.5, -81.9609375 -32.5" stroke="#d62a00" stroke-width="2.5" fill="none" stroke-dasharray="0 0" style="fill:#f53003;stroke:#d62a00;stroke-width:2.5px"/></g><g class="label" style="color:#ffffff" transform="translate(0, -25)"><rect/><g><rect class="background" style="stroke: none"/><text y="-10.1" style="fill:#ffffff"><tspan class="text-outer-tspan row" x="0" y="-0.1em" dy="1.1em"><tspan font-style="normal" class="text-inner-tspan" font-weight="normal">Harbour</tspan><tspan font-style="normal" class="text-inner-tspan" font-weight="normal"> isolation</tspan></tspan><tspan class="text-outer-tspan row" x="0" y="1em" dy="1.1em"><tspan font-style="normal" class="text-inner-tspan" font-weight="normal">databases</tspan><tspan font-style="normal" class="text-inner-tspan" font-weight="normal"> ·</tspan><tspan font-style="normal" class="text-inner-tspan" font-weight="normal"> prefixes</tspan><tspan font-style="normal" class="text-inner-tspan" font-weight="normal"> ·</tspan><tspan font-style="normal" class="text-inner-tspan" font-weight="normal"> queues</tspan></tspan><tspan class="text-outer-tspan row" x="0" y="2.1em" dy="1.1em"><tspan font-style="normal" class="text-inner-tspan" font-weight="normal">·</tspan><tspan font-style="normal" class="text-inner-tspan" font-weight="normal"> sessions</tspan><tspan font-style="normal" class="text-inner-tspan" font-weight="normal"> ·</tspan><tspan font-style="normal" class="text-inner-tspan" font-weight="normal"> ports</tspan></tspan></text></g></g></g><g class="node default workspace" id="my-svg-flowchart-HA-10" data-look="classic" transform="translate(1114.5789031982422, 103.25)"><rect class="basic label-container" style="fill:#ffffff;stroke:#f53003;stroke-width:2px" rx="5" ry="5" x="-78.875" y="-31.75" width="157.75" height="63.5"/><g class="label" style="color:#1b1b18" transform="translate(0, -16.75)"><rect/><g><rect class="background" style="stroke: none"/><text y="-10.1" style="fill:#1b1b18"><tspan class="text-outer-tspan row" x="0" y="-0.1em" dy="1.1em"><tspan font-style="normal" class="text-inner-tspan" font-weight="normal">worktree-a</tspan></tspan><tspan class="text-outer-tspan row" x="0" y="1em" dy="1.1em"><tspan font-style="normal" class="text-inner-tspan" font-weight="normal">native</tspan><tspan font-style="normal" class="text-inner-tspan" font-weight="normal"> PHP</tspan><tspan font-style="normal" class="text-inner-tspan" font-weight="normal"> +</tspan><tspan font-style="normal" class="text-inner-tspan" font-weight="normal"> Node</tspan></tspan></text></g></g></g><g class="node default workspace" id="my-svg-flowchart-HB-12" data-look="classic" transform="translate(1114.5789031982422, 208.75)"><rect class="basic label-container" style="fill:#ffffff;stroke:#f53003;stroke-width:2px" rx="5" ry="5" x="-78.875" y="-31.75" width="157.75" height="63.5"/><g class="label" style="color:#1b1b18" transform="translate(0, -16.75)"><rect/><g><rect class="background" style="stroke: none"/><text y="-10.1" style="fill:#1b1b18"><tspan class="text-outer-tspan row" x="0" y="-0.1em" dy="1.1em"><tspan font-style="normal" class="text-inner-tspan" font-weight="normal">worktree-b</tspan></tspan><tspan class="text-outer-tspan row" x="0" y="1em" dy="1.1em"><tspan font-style="normal" class="text-inner-tspan" font-weight="normal">native</tspan><tspan font-style="normal" class="text-inner-tspan" font-weight="normal"> PHP</tspan><tspan font-style="normal" class="text-inner-tspan" font-weight="normal"> +</tspan><tspan font-style="normal" class="text-inner-tspan" font-weight="normal"> Node</tspan></tspan></text></g></g></g><g class="node default workspace" id="my-svg-flowchart-HC-14" data-look="classic" transform="translate(1114.5789031982422, 314.25)"><rect class="basic label-container" style="fill:#ffffff;stroke:#f53003;stroke-width:2px" rx="5" ry="5" x="-78.875" y="-31.75" width="157.75" height="63.5"/><g class="label" style="color:#1b1b18" transform="translate(0, -16.75)"><rect/><g><rect class="background" style="stroke: none"/><text y="-10.1" style="fill:#1b1b18"><tspan class="text-outer-tspan row" x="0" y="-0.1em" dy="1.1em"><tspan font-style="normal" class="text-inner-tspan" font-weight="normal">worktree-c</tspan></tspan><tspan class="text-outer-tspan row" x="0" y="1em" dy="1.1em"><tspan font-style="normal" class="text-inner-tspan" font-weight="normal">native</tspan><tspan font-style="normal" class="text-inner-tspan" font-weight="normal"> PHP</tspan><tspan font-style="normal" class="text-inner-tspan" font-weight="normal"> +</tspan><tspan font-style="normal" class="text-inner-tspan" font-weight="normal"> Node</tspan></tspan></text></g></g></g></g></g><marker id="my-svg_flowchart-v2-pointEnd__a8a8a4" class="marker flowchart-v2" viewBox="0 0 10 10" refX="5" refY="5" markerUnits="userSpaceOnUse" markerWidth="8" markerHeight="8" orient="auto"><path d="M 0 0 L 10 5 L 0 10 z" class="arrowMarkerPath" style="stroke-width: 1; stroke-dasharray: 1, 0;" stroke="#a8a8a4" fill="#a8a8a4"/></marker><marker id="my-svg_flowchart-v2-pointEnd__f53003" class="marker flowchart-v2" viewBox="0 0 10 10" refX="5" refY="5" markerUnits="userSpaceOnUse" markerWidth="8" markerHeight="8" orient="auto"><path d="M 0 0 L 10 5 L 0 10 z" class="arrowMarkerPath" style="stroke-width: 1; stroke-dasharray: 1, 0;" stroke="#f53003" fill="#f53003"/></marker></g><defs><filter id="my-svg-drop-shadow" height="130%" width="130%"><feDropShadow dx="4" dy="4" stdDeviation="0" flood-opacity="0.06" flood-color="#000000"/></filter></defs><defs><filter id="my-svg-drop-shadow-small" height="150%" width="150%"><feDropShadow dx="2" dy="2" stdDeviation="0" flood-opacity="0.06" flood-color="#000000"/></filter></defs><linearGradient id="my-svg-gradient" gradientUnits="objectBoundingBox" x1="0%" y1="0%" x2="100%" y2="0%"><stop offset="0%" stop-color="#f53003" stop-opacity="1"/><stop offset="100%" stop-color="hsl(0, 0%, 90%)" stop-opacity="1"/></linearGradient>
<style id="harbour-adaptive-theme">
    #my-svg {
        color-scheme: light dark;
        background-color: transparent !important;
    }

    #my-svg .cluster > rect {
        rx: 10px;
        ry: 10px;
    }

    @media (prefers-color-scheme: dark) {
        #my-svg .cluster[id$="-without"] > rect {
            fill: #1b1b18 !important;
            stroke: #4a4a45 !important;
        }

        #my-svg .cluster[id$="-with"] > rect {
            fill: #271714 !important;
            stroke: #ff4438 !important;
        }

        #my-svg .cluster[id$="-without"] .cluster-label text {
            fill: #c7c7c1 !important;
        }

        #my-svg .cluster[id$="-with"] .cluster-label text {
            fill: #ff6b62 !important;
        }

        #my-svg .node.muted rect,
        #my-svg .node.stack rect,
        #my-svg .node.adapter rect,
        #my-svg .node.neutral rect {
            fill: #242422 !important;
            stroke: #5b5b56 !important;
        }

        #my-svg .node.muted text,
        #my-svg .node.muted tspan,
        #my-svg .node.stack text,
        #my-svg .node.stack tspan,
        #my-svg .node.adapter text,
        #my-svg .node.adapter tspan,
        #my-svg .node.neutral text,
        #my-svg .node.neutral tspan {
            fill: #d6d6d1 !important;
        }

        #my-svg .node.shared rect,
        #my-svg .node.entry rect,
        #my-svg .node.failure rect {
            fill: #30302d !important;
            stroke: #73736d !important;
        }

        #my-svg .node.shared text,
        #my-svg .node.shared tspan,
        #my-svg .node.entry text,
        #my-svg .node.entry tspan,
        #my-svg .node.failure text,
        #my-svg .node.failure tspan {
            fill: #ffffff !important;
        }

        #my-svg .node.workspace rect,
        #my-svg .node.domain rect,
        #my-svg .node.active rect {
            fill: #321815 !important;
            stroke: #ff4438 !important;
        }

        #my-svg .node.workspace text,
        #my-svg .node.workspace tspan,
        #my-svg .node.domain text,
        #my-svg .node.domain tspan,
        #my-svg .node.active text,
        #my-svg .node.active tspan {
            fill: #f5f5f3 !important;
        }

        #my-svg .node.harbour rect,
        #my-svg .node.manager rect,
        #my-svg .node.ready rect {
            fill: #f53003 !important;
            stroke: #ff6b62 !important;
        }

        #my-svg .node.harbour text,
        #my-svg .node.harbour tspan,
        #my-svg .node.manager text,
        #my-svg .node.manager tspan,
        #my-svg .node.ready text,
        #my-svg .node.ready tspan {
            fill: #ffffff !important;
        }

        #my-svg .edgeLabel rect,
        #my-svg .labelBkg {
            fill: #161615 !important;
            opacity: 0.96 !important;
        }

        #my-svg .edgeLabel text,
        #my-svg .edgeLabel tspan {
            fill: #e8e8e5 !important;
        }
    }
</style>
</svg>