<!-- harbour:mermaid-source-sha256=a3f0eba462ef2cc6427d4afda93b9411f57eae9f851ea0f29b4f096d4ff6b905 -->
<svg id="my-svg" width="100%" xmlns="http://www.w3.org/2000/svg" xmlns:xlink="http://www.w3.org/1999/xlink" class="flowchart" style="max-width: 1167.58px; background-color: transparent;" viewBox="0 0 1167.578857421875 385" role="graphics-document document" aria-roledescription="flowchart-v2" aria-describedby="chart-desc-my-svg" aria-labelledby="chart-title-my-svg"><title id="chart-title-my-svg">Harbour shared-infrastructure model</title><desc id="chart-desc-my-svg">Without Harbour, every worktree runs a complete Sail stack. With Harbour, native PHP and Node worktrees connect through isolated namespaces to shared PostgreSQL, Redis, and Mailpit services.</desc><style>#my-svg{font-family:Arial,sans-serif;font-size:15px;fill:#1b1b18;}@keyframes edge-animation-frame{from{stroke-dashoffset:0;}}@keyframes dash{to{stroke-dashoffset:0;}}#my-svg .edge-animation-slow{stroke-dasharray:9,5;stroke-dashoffset:900;animation:dash 50s linear infinite;stroke-linecap:round;}#my-svg .edge-animation-fast{stroke-dasharray:9,5;stroke-dashoffset:900;animation:dash 20s linear infinite;stroke-linecap:round;}#my-svg .error-icon{fill:#f7f7f5;}#my-svg .error-text{fill:#08080a;stroke:#08080a;}#my-svg .edge-thickness-normal{stroke-width:1px;}#my-svg .edge-thickness-thick{stroke-width:3.5px;}#my-svg .edge-pattern-solid{stroke-dasharray:0;}#my-svg .edge-thickness-invisible{stroke-width:0;fill:none;}#my-svg .edge-pattern-dashed{stroke-dasharray:3;}#my-svg .edge-pattern-dotted{stroke-dasharray:2;}#my-svg .marker{fill:#a8a8a4;stroke:#a8a8a4;}#my-svg .marker.cross{stroke:#a8a8a4;}#my-svg svg{font-family:Arial,sans-serif;font-size:15px;}#my-svg p{margin:0;}#my-svg .label{font-family:Arial,sans-serif;color:#1b1b18;}#my-svg .cluster-label text{fill:#08080a;}#my-svg .cluster-label span{color:#08080a;}#my-svg .cluster-label span p{background-color:transparent;}#my-svg .label text,#my-svg span{fill:#1b1b18;color:#1b1b18;}#my-svg .node rect,#my-svg .node circle,#my-svg .node ellipse,#my-svg .node polygon,#my-svg .node path{fill:#fff7f5;stroke:#f53003;stroke-width:1px;}#my-svg .rough-node .label text,#my-svg .node .label text,#my-svg .image-shape .label,#my-svg .icon-shape .label{text-anchor:middle;}#my-svg .node .katex path{fill:#000;stroke:#000;stroke-width:1px;}#my-svg .rough-node .label,#my-svg .node .label,#my-svg .image-shape .label,#my-svg .icon-shape .label{text-align:center;}#my-svg .node.clickable{cursor:pointer;}#my-svg .root .anchor path{fill:#a8a8a4;stroke-width:0;stroke:#a8a8a4;}#my-svg .arrowheadPath{fill:#000000;}#my-svg .edgePaths .path{stroke:#a8a8a4;stroke-width:1px;}#my-svg .flowchart-link{stroke:#a8a8a4;fill:none;}#my-svg .edgeLabel{background-color:#ffffff;text-align:center;}#my-svg .edgeLabel p{background-color:#ffffff;}#my-svg .edgeLabel rect{opacity:0.5;background-color:#ffffff;fill:#ffffff;}#my-svg .labelBkg{background-color:rgba(255, 255, 255, 0.5);}#my-svg .cluster rect{fill:#fdfdfc;stroke:#e3e3e0;stroke-width:1px;}#my-svg .cluster text{fill:#08080a;}#my-svg .cluster span{color:#08080a;}#my-svg .node .collapsed-indicator{fill:#e3e3e0;stroke:none;opacity:0.6;}#my-svg .node .collapsed-separator{stroke:#e3e3e0;stroke-width:0.75px;}#my-svg div.mermaidTooltip{position:absolute;text-align:center;max-width:200px;padding:2px;font-family:Arial,sans-serif;font-size:12px;background:#f7f7f5;border:1px solid hsl(60, 0%, 86.4705882353%);border-radius:2px;pointer-events:none;z-index:100;}#my-svg .flowchartTitleText{text-anchor:middle;font-size:18px;fill:#1b1b18;}#my-svg rect.text{fill:none;stroke-width:0;}#my-svg .icon-shape,#my-svg .image-shape{background-color:#ffffff;text-align:center;}#my-svg .icon-shape p,#my-svg .image-shape p{background-color:#ffffff;padding:2px;}#my-svg .icon-shape .label rect,#my-svg .image-shape .label rect{opacity:0.5;background-color:#ffffff;fill:#ffffff;}#my-svg .label-icon{display:inline-block;height:1em;overflow:visible;vertical-align:-0.125em;}#my-svg .node .label-icon path{fill:currentColor;stroke:revert;stroke-width:revert;}#my-svg .node .neo-node{stroke:#f53003;}#my-svg [data-look="neo"].node rect,#my-svg [data-look="neo"].cluster rect,#my-svg [data-look="neo"].node polygon{stroke:url(#my-svg-gradient);filter:drop-shadow( 1px 2px 2px rgba(185,185,185,1));}#my-svg [data-look="neo"].swimlane.cluster rect{filter:none;}#my-svg [data-look="neo"].node path{stroke:url(#my-svg-gradient);stroke-width:1px;}#my-svg [data-look="neo"].node .outer-path{filter:drop-shadow( 1px 2px 2px rgba(185,185,185,1));}#my-svg [data-look="neo"].node .neo-line path{stroke:#f53003;filter:none;}#my-svg [data-look="neo"].node circle{stroke:url(#my-svg-gradient);filter:drop-shadow( 1px 2px 2px rgba(185,185,185,1));}#my-svg [data-look="neo"].node circle .state-start{fill:#000000;}#my-svg [data-look="neo"].icon-shape .icon{fill:url(#my-svg-gradient);filter:drop-shadow( 1px 2px 2px rgba(185,185,185,1));}#my-svg [data-look="neo"].icon-shape .icon-neo path{stroke:url(#my-svg-gradient);filter:drop-shadow( 1px 2px 2px rgba(185,185,185,1));}#my-svg :root{--mermaid-font-family:Arial,sans-serif;}#my-svg .muted rect{fill:rgb(247, 247, 245);stroke:rgb(214, 214, 210);color:rgb(112, 111, 108);stroke-width:1.5px;}#my-svg .muted polygon{fill:rgb(247, 247, 245);stroke:rgb(214, 214, 210);color:rgb(112, 111, 108);stroke-width:1.5px;}#my-svg .muted ellipse{fill:rgb(247, 247, 245);stroke:rgb(214, 214, 210);color:rgb(112, 111, 108);stroke-width:1.5px;}#my-svg .muted circle{fill:rgb(247, 247, 245);stroke:rgb(214, 214, 210);color:rgb(112, 111, 108);stroke-width:1.5px;}#my-svg .muted path{fill:rgb(247, 247, 245);stroke:rgb(214, 214, 210);color:rgb(112, 111, 108);stroke-width:1.5px;}#my-svg .muted tspan{fill:rgb(112, 111, 108);}#my-svg .stack rect{fill:rgb(255, 255, 255);stroke:rgb(168, 168, 164);color:rgb(112, 111, 108);stroke-width:1.5px;}#my-svg .stack polygon{fill:rgb(255, 255, 255);stroke:rgb(168, 168, 164);color:rgb(112, 111, 108);stroke-width:1.5px;}#my-svg .stack ellipse{fill:rgb(255, 255, 255);stroke:rgb(168, 168, 164);color:rgb(112, 111, 108);stroke-width:1.5px;}#my-svg .stack circle{fill:rgb(255, 255, 255);stroke:rgb(168, 168, 164);color:rgb(112, 111, 108);stroke-width:1.5px;}#my-svg .stack path{fill:rgb(255, 255, 255);stroke:rgb(168, 168, 164);color:rgb(112, 111, 108);stroke-width:1.5px;}#my-svg .stack tspan{fill:rgb(112, 111, 108);}#my-svg .shared rect{fill:rgb(27, 27, 24);stroke:rgb(27, 27, 24);color:rgb(255, 255, 255);stroke-width:2px;}#my-svg .shared polygon{fill:rgb(27, 27, 24);stroke:rgb(27, 27, 24);color:rgb(255, 255, 255);stroke-width:2px;}#my-svg .shared ellipse{fill:rgb(27, 27, 24);stroke:rgb(27, 27, 24);color:rgb(255, 255, 255);stroke-width:2px;}#my-svg .shared circle{fill:rgb(27, 27, 24);stroke:rgb(27, 27, 24);color:rgb(255, 255, 255);stroke-width:2px;}#my-svg .shared path{fill:rgb(27, 27, 24);stroke:rgb(27, 27, 24);color:rgb(255, 255, 255);stroke-width:2px;}#my-svg .shared tspan{fill:rgb(255, 255, 255);}#my-svg .harbour rect{fill:rgb(245, 48, 3);stroke:rgb(214, 42, 0);color:rgb(255, 255, 255);stroke-width:2.5px;}#my-svg .harbour polygon{fill:rgb(245, 48, 3);stroke:rgb(214, 42, 0);color:rgb(255, 255, 255);stroke-width:2.5px;}#my-svg .harbour ellipse{fill:rgb(245, 48, 3);stroke:rgb(214, 42, 0);color:rgb(255, 255, 255);stroke-width:2.5px;}#my-svg .harbour circle{fill:rgb(245, 48, 3);stroke:rgb(214, 42, 0);color:rgb(255, 255, 255);stroke-width:2.5px;}#my-svg .harbour path{fill:rgb(245, 48, 3);stroke:rgb(214, 42, 0);color:rgb(255, 255, 255);stroke-width:2.5px;}#my-svg .harbour tspan{fill:rgb(255, 255, 255);}#my-svg .workspace rect{fill:rgb(255, 255, 255);stroke:rgb(245, 48, 3);color:rgb(27, 27, 24);stroke-width:2px;}#my-svg .workspace polygon{fill:rgb(255, 255, 255);stroke:rgb(245, 48, 3);color:rgb(27, 27, 24);stroke-width:2px;}#my-svg .workspace ellipse{fill:rgb(255, 255, 255);stroke:rgb(245, 48, 3);color:rgb(27, 27, 24);stroke-width:2px;}#my-svg .workspace circle{fill:rgb(255, 255, 255);stroke:rgb(245, 48, 3);color:rgb(27, 27, 24);stroke-width:2px;}#my-svg .workspace path{fill:rgb(255, 255, 255);stroke:rgb(245, 48, 3);color:rgb(27, 27, 24);stroke-width:2px;}#my-svg .workspace tspan{fill:rgb(27, 27, 24);}</style><g><marker id="my-svg_flowchart-v2-pointEnd" class="marker flowchart-v2" viewBox="0 0 10 10" refX="5" refY="5" markerUnits="userSpaceOnUse" markerWidth="8" markerHeight="8" orient="auto"><path d="M 0 0 L 10 5 L 0 10 z" class="arrowMarkerPath" style="stroke-width: 1; stroke-dasharray: 1, 0;"/></marker><marker id="my-svg_flowchart-v2-pointStart" class="marker flowchart-v2" viewBox="0 0 10 10" refX="4.5" refY="5" markerUnits="userSpaceOnUse" markerWidth="8" markerHeight="8" orient="auto"><path d="M 0 5 L 10 10 L 10 0 z" class="arrowMarkerPath" style="stroke-width: 1; stroke-dasharray: 1, 0;"/></marker><marker id="my-svg_flowchart-v2-pointEnd-margin" class="marker flowchart-v2" viewBox="0 0 11.5 14" refX="11.5" refY="7" markerUnits="userSpaceOnUse" markerWidth="10.5" markerHeight="14" orient="auto"><path d="M 0 0 L 11.5 7 L 0 14 z" class="arrowMarkerPath" style="stroke-width: 0; stroke-dasharray: 1, 0;"/></marker><marker id="my-svg_flowchart-v2-pointStart-margin" class="marker flowchart-v2" viewBox="0 0 11.5 14" refX="1" refY="7" markerUnits="userSpaceOnUse" markerWidth="11.5" markerHeight="14" orient="auto"><polygon points="0,7 11.5,14 11.5,0" class="arrowMarkerPath" style="stroke-width: 0; stroke-dasharray: 1, 0;"/></marker><marker id="my-svg_flowchart-v2-circleEnd" class="marker flowchart-v2" viewBox="0 0 10 10" refX="11" refY="5" markerUnits="userSpaceOnUse" markerWidth="11" markerHeight="11" orient="auto"><circle cx="5" cy="5" r="5" class="arrowMarkerPath" style="stroke-width: 1; stroke-dasharray: 1, 0;"/></marker><marker id="my-svg_flowchart-v2-circleStart" class="marker flowchart-v2" viewBox="0 0 10 10" refX="-1" refY="5" markerUnits="userSpaceOnUse" markerWidth="11" markerHeight="11" orient="auto"><circle cx="5" cy="5" r="5" class="arrowMarkerPath" style="stroke-width: 1; stroke-dasharray: 1, 0;"/></marker><marker id="my-svg_flowchart-v2-circleEnd-margin" class="marker flowchart-v2" viewBox="0 0 10 10" refY="5" refX="12.25" markerUnits="userSpaceOnUse" markerWidth="14" markerHeight="14" orient="auto"><circle cx="5" cy="5" r="5" class="arrowMarkerPath" style="stroke-width: 0; stroke-dasharray: 1, 0;"/></marker><marker id="my-svg_flowchart-v2-circleStart-margin" class="marker flowchart-v2" viewBox="0 0 10 10" refX="-2" refY="5" markerUnits="userSpaceOnUse" markerWidth="14" markerHeight="14" orient="auto"><circle cx="5" cy="5" r="5" class="arrowMarkerPath" style="stroke-width: 0; stroke-dasharray: 1, 0;"/></marker><marker id="my-svg_flowchart-v2-crossEnd" class="marker cross flowchart-v2" viewBox="0 0 11 11" refX="12" refY="5.2" markerUnits="userSpaceOnUse" markerWidth="11" markerHeight="11" orient="auto"><path d="M 1,1 l 9,9 M 10,1 l -9,9" class="arrowMarkerPath" style="stroke-width: 2; stroke-dasharray: 1, 0;"/></marker><marker id="my-svg_flowchart-v2-crossStart" class="marker cross flowchart-v2" viewBox="0 0 11 11" refX="-1" refY="5.2" markerUnits="userSpaceOnUse" markerWidth="11" markerHeight="11" orient="auto"><path d="M 1,1 l 9,9 M 10,1 l -9,9" class="arrowMarkerPath" style="stroke-width: 2; stroke-dasharray: 1, 0;"/></marker><marker id="my-svg_flowchart-v2-crossEnd-margin" class="marker cross flowchart-v2" viewBox="0 0 15 15" refX="17.7" refY="7.5" markerUnits="userSpaceOnUse" markerWidth="12" markerHeight="12" orient="auto"><path d="M 1,1 L 14,14 M 1,14 L 14,1" class="arrowMarkerPath" style="stroke-width: 2.5;"/></marker><marker id="my-svg_flowchart-v2-crossStart-margin" class="marker cross flowchart-v2" viewBox="0 0 15 15" refX="-3.5" refY="7.5" markerUnits="userSpaceOnUse" markerWidth="12" markerHeight="12" orient="auto"><path d="M 1,1 L 14,14 M 1,14 L 14,1" class="arrowMarkerPath" style="stroke-width: 2.5; stroke-dasharray: 1, 0;"/></marker><g class="root"><g class="clusters"><g class="cluster" id="my-svg-with" data-look="classic"><rect style="fill:#fff8f6;stroke:#f53003;stroke-width:2px" x="390.564453125" y="40.5" width="769.0144500732422" height="336.5"/><g class="cluster-label" transform="translate(730.8895492553711, 40.5)"><g><rect class="background" style="stroke: none"/><text y="-10.1" style=""><tspan class="text-outer-tspan row" x="0" y="-0.1em" dy="1.1em"><tspan font-style="normal" class="text-inner-tspan" font-weight="normal">With</tspan><tspan font-style="normal" class="text-inner-tspan" font-weight="normal"> Harbour</tspan></tspan></text></g></g></g><g class="cluster" id="my-svg-without" data-look="classic"><rect style="fill:#fafaf9;stroke:#d6d6d2;stroke-width:1px" x="8" y="8" width="328.564453125" height="287"/><g class="cluster-label" transform="translate(117.67041015625, 8)"><g><rect class="background" style="stroke: none"/><text y="-10.1" style=""><tspan class="text-outer-tspan row" x="0" y="-0.1em" dy="1.1em"><tspan font-style="normal" class="text-inner-tspan" font-weight="normal">Without</tspan><tspan font-style="normal" class="text-inner-tspan" font-weight="normal"> Harbour</tspan></tspan></text></g></g></g></g><g class="edgePaths"><path d="M137.512,62.5L142.012,62.5C146.512,62.5,155.512,62.5,163.846,62.5C172.179,62.5,179.846,62.5,183.679,62.5L187.512,62.5" id="my-svg-L_WA_SA_0" class="edge-thickness-normal edge-pattern-solid edge-thickness-normal edge-pattern-solid flowchart-link" style="stroke:#a8a8a4;stroke-width:1.5px;fill:none;;;stroke:#a8a8a4;stroke-width:1.5px;fill:none" data-edge="true" data-et="edge" data-id="L_WA_SA_0" data-points="W3sieCI6MTM3LjUxMjIwNzAzMTI1LCJ5Ijo2Mi41fSx7IngiOjE2NC41MTIyMDcwMzEyNSwieSI6NjIuNX0seyJ4IjoxOTEuNTEyMjA3MDMxMjUsInkiOjYyLjV9XQ==" data-look="classic" marker-end="url(#my-svg_flowchart-v2-pointEnd__a8a8a4)"/><path d="M137.186,151.5L141.74,151.5C146.295,151.5,155.403,151.5,163.791,151.5C172.179,151.5,179.846,151.5,183.679,151.5L187.512,151.5" id="my-svg-L_WB_SB_0" class="edge-thickness-normal edge-pattern-solid edge-thickness-normal edge-pattern-solid flowchart-link" style="stroke:#a8a8a4;stroke-width:1.5px;fill:none;;;stroke:#a8a8a4;stroke-width:1.5px;fill:none" data-edge="true" data-et="edge" data-id="L_WB_SB_0" data-points="W3sieCI6MTM3LjE4NTc5MTAxNTYyNSwieSI6MTUxLjV9LHsieCI6MTY0LjUxMjIwNzAzMTI1LCJ5IjoxNTEuNX0seyJ4IjoxOTEuNTEyMjA3MDMxMjUsInkiOjE1MS41fV0=" data-look="classic" marker-end="url(#my-svg_flowchart-v2-pointEnd__a8a8a4)"/><path d="M137.012,240.5L141.596,240.5C146.179,240.5,155.346,240.5,163.762,240.5C172.179,240.5,179.846,240.5,183.679,240.5L187.512,240.5" id="my-svg-L_WC_SC_0" class="edge-thickness-normal edge-pattern-solid edge-thickness-normal edge-pattern-solid flowchart-link" style="stroke:#a8a8a4;stroke-width:1.5px;fill:none;;;stroke:#a8a8a4;stroke-width:1.5px;fill:none" data-edge="true" data-et="edge" data-id="L_WC_SC_0" data-points="W3sieCI6MTM3LjAxMjIwNzAzMTI1LCJ5IjoyNDAuNX0seyJ4IjoxNjQuNTEyMjA3MDMxMjUsInkiOjI0MC41fSx7IngiOjE5MS41MTIyMDcwMzEyNSwieSI6MjQwLjV9XQ==" data-look="classic" marker-end="url(#my-svg_flowchart-v2-pointEnd__a8a8a4)"/><path d="M637.94,240.5L642.44,240.5C646.94,240.5,655.94,240.5,664.357,240.571C672.774,240.642,680.608,240.785,684.524,240.856L688.441,240.927" id="my-svg-L_shared_namespaces_0" class="edge-thickness-normal edge-pattern-solid edge-thickness-normal edge-pattern-solid flowchart-link" style="stroke:#f53003;stroke-width:2px;fill:none;;;stroke:#f53003;stroke-width:2px;fill:none" data-edge="true" data-et="edge" data-id="L_shared_namespaces_0" data-points="W3sieCI6NjM3Ljk0MDQyOTY4NzUsInkiOjI0MC41fSx7IngiOjY2NC45NDA0Mjk2ODc1LCJ5IjoyNDAuNX0seyJ4Ijo2OTIuNDQwNDI5Njg3NDg4MiwieSI6MjQwLjk5OTk5OTk5OTk5OTk3fV0=" data-look="classic" marker-end="url(#my-svg_flowchart-v2-pointEnd__f53003)"/><path d="M840.378,208.5L858.286,190.958C876.195,173.417,912.012,138.333,933.754,120.792C955.496,103.25,963.162,103.25,966.996,103.25L970.829,103.25" id="my-svg-L_namespaces_HA_0" class="edge-thickness-normal edge-pattern-solid edge-thickness-normal edge-pattern-solid flowchart-link" style="stroke:#f53003;stroke-width:2px;fill:none;;;stroke:#f53003;stroke-width:2px;fill:none" data-edge="true" data-et="edge" data-id="L_namespaces_HA_0" data-points="W3sieCI6ODQwLjM3NzgzNzI1OTI2MTQsInkiOjIwOC41fSx7IngiOjk0Ny44Mjg5MDMxOTgyNDIyLCJ5IjoxMDMuMjV9LHsieCI6OTc0LjgyODkwMzE5ODI0MjIsInkiOjEwMy4yNX1d" data-look="classic" marker-end="url(#my-svg_flowchart-v2-pointEnd__f53003)"/><path d="M911.343,217.552L917.424,216.085C923.505,214.618,935.667,211.684,945.581,210.217C955.496,208.75,963.162,208.75,966.996,208.75L970.829,208.75" id="my-svg-L_namespaces_HB_0" class="edge-thickness-normal edge-pattern-solid edge-thickness-normal edge-pattern-solid flowchart-link" style="stroke:#f53003;stroke-width:2px;fill:none;;;stroke:#f53003;stroke-width:2px;fill:none" data-edge="true" data-et="edge" data-id="L_namespaces_HB_0" data-points="W3sieCI6OTExLjM0MzQ5NTQ4MTg2ODcsInkiOjIxNy41NTIxMTc2NTM3OTg3N30seyJ4Ijo5NDcuODI4OTAzMTk4MjQyMiwieSI6MjA4Ljc1fSx7IngiOjk3NC44Mjg5MDMxOTgyNDIyLCJ5IjoyMDguNzV9XQ==" data-look="classic" marker-end="url(#my-svg_flowchart-v2-pointEnd__f53003)"/><path d="M869.216,273.5L882.318,280.292C895.42,287.083,921.625,300.667,938.56,307.458C955.496,314.25,963.162,314.25,966.996,314.25L970.829,314.25" id="my-svg-L_namespaces_HC_0" class="edge-thickness-normal edge-pattern-solid edge-thickness-normal edge-pattern-solid flowchart-link" style="stroke:#f53003;stroke-width:2px;fill:none;;;stroke:#f53003;stroke-width:2px;fill:none" data-edge="true" data-et="edge" data-id="L_namespaces_HC_0" data-points="W3sieCI6ODY5LjIxNjAyNTAxMzAzNDYsInkiOjI3My41fSx7IngiOjk0Ny44Mjg5MDMxOTgyNDIyLCJ5IjozMTQuMjV9LHsieCI6OTc0LjgyODkwMzE5ODI0MjIsInkiOjMxNC4yNX1d" data-look="classic" marker-end="url(#my-svg_flowchart-v2-pointEnd__f53003)"/><path d="M309.564,240.5L314.064,240.5C318.564,240.5,327.564,240.5,336.564,240.5C345.564,240.5,354.564,240.5,363.564,240.5C372.564,240.5,381.564,240.5,390.564,240.5C399.564,240.5,408.564,240.5,413.064,240.5L417.564,240.5" id="my-svg-L_SC_shared_0" class="edge-thickness-invisible edge-pattern-solid" style=";" data-edge="true" data-et="edge" data-id="L_SC_shared_0" data-points="W3sieCI6MzA5LjU2NDQ1MzEyNSwieSI6MjQwLjV9LHsieCI6MzM2LjU2NDQ1MzEyNSwieSI6MjQwLjV9LHsieCI6MzYzLjU2NDQ1MzEyNSwieSI6MjQwLjV9LHsieCI6MzkwLjU2NDQ1MzEyNSwieSI6MjQwLjV9LHsieCI6NDE3LjU2NDQ1MzEyNSwieSI6MjQwLjV9XQ==" data-look="classic"/></g><g class="edgeLabels"><g class="edgeLabel"><g class="label" data-id="L_WA_SA_0" transform="translate(0, 0)"><text y="-10.1" text-anchor="middle"><tspan class="text-outer-tspan row" x="0" y="-0.1em" dy="1.1em" text-anchor="middle"/></text></g></g><g><rect class="background" style="stroke: none"/></g><g class="edgeLabel"><g class="label" data-id="L_WB_SB_0" transform="translate(0, 0)"><text y="-10.1" text-anchor="middle"><tspan class="text-outer-tspan row" x="0" y="-0.1em" dy="1.1em" text-anchor="middle"/></text></g></g><g><rect class="background" style="stroke: none"/></g><g class="edgeLabel"><g class="label" data-id="L_WC_SC_0" transform="translate(0, 0)"><text y="-10.1" text-anchor="middle"><tspan class="text-outer-tspan row" x="0" y="-0.1em" dy="1.1em" text-anchor="middle"/></text></g></g><g><rect class="background" style="stroke: none"/></g><g class="edgeLabel"><g class="label" data-id="L_shared_namespaces_0" transform="translate(0, 0)"><text y="-10.1" text-anchor="middle"><tspan class="text-outer-tspan row" x="0" y="-0.1em" dy="1.1em" text-anchor="middle"/></text></g></g><g><rect class="background" style="stroke: none"/></g><g class="edgeLabel"><g class="label" data-id="L_namespaces_HA_0" transform="translate(0, 0)"><text y="-10.1" text-anchor="middle"><tspan class="text-outer-tspan row" x="0" y="-0.1em" dy="1.1em" text-anchor="middle"/></text></g></g><g><rect class="background" style="stroke: none"/></g><g class="edgeLabel"><g class="label" data-id="L_namespaces_HB_0" transform="translate(0, 0)"><text y="-10.1" text-anchor="middle"><tspan class="text-outer-tspan row" x="0" y="-0.1em" dy="1.1em" text-anchor="middle"/></text></g></g><g><rect class="background" style="stroke: none"/></g><g class="edgeLabel"><g class="label" data-id="L_namespaces_HC_0" transform="translate(0, 0)"><text y="-10.1" text-anchor="middle"><tspan class="text-outer-tspan row" x="0" y="-0.1em" dy="1.1em" text-anchor="middle"/></text></g></g><g><rect class="background" style="stroke: none"/></g><g class="edgeLabel"><g class="label" data-id="L_SC_shared_0" transform="translate(0, 0)"><text y="-10.1" text-anchor="middle"><tspan class="text-outer-tspan row" x="0" y="-0.1em" dy="1.1em" text-anchor="middle"/></text></g></g><g><rect class="background" style="stroke: none"/></g></g><g class="nodes"><g class="node default muted" id="my-svg-flowchart-WA-0" data-look="classic" transform="translate(86.256103515625, 62.5)"><rect class="basic label-container" style="fill:#f7f7f5;stroke:#d6d6d2;stroke-width:1.5px" rx="5" ry="5" x="-51.256103515625" y="-23.5" width="102.51220703125" height="47"/><g class="label" style="color:#706f6c" transform="translate(0, -8.5)"><rect/><g><rect class="background" style="stroke: none"/><text y="-10.1" style="fill:#706f6c"><tspan class="text-outer-tspan row" x="0" y="-0.1em" dy="1.1em"><tspan font-style="normal" class="text-inner-tspan" font-weight="normal">worktree-a</tspan></tspan></text></g></g></g><g class="node default stack" id="my-svg-flowchart-SA-1" data-look="classic" transform="translate(250.538330078125, 62.5)"><rect class="basic label-container" style="fill:#ffffff;stroke:#a8a8a4;stroke-width:1.5px" rx="5" ry="5" x="-59.026123046875" y="-23.5" width="118.05224609375" height="47"/><g class="label" style="color:#706f6c" transform="translate(0, -8.5)"><rect/><g><rect class="background" style="stroke: none"/><text y="-10.1" style="fill:#706f6c"><tspan class="text-outer-tspan row" x="0" y="-0.1em" dy="1.1em"><tspan font-style="normal" class="text-inner-tspan" font-weight="normal">full</tspan><tspan font-style="normal" class="text-inner-tspan" font-weight="normal"> Sail</tspan><tspan font-style="normal" class="text-inner-tspan" font-weight="normal"> stack</tspan></tspan></text></g></g></g><g class="node default muted" id="my-svg-flowchart-WB-2" data-look="classic" transform="translate(86.256103515625, 151.5)"><rect class="basic label-container" style="fill:#f7f7f5;stroke:#d6d6d2;stroke-width:1.5px" rx="5" ry="5" x="-50.9296875" y="-23.5" width="101.859375" height="47"/><g class="label" style="color:#706f6c" transform="translate(0, -8.5)"><rect/><g><rect class="background" style="stroke: none"/><text y="-10.1" style="fill:#706f6c"><tspan class="text-outer-tspan row" x="0" y="-0.1em" dy="1.1em"><tspan font-style="normal" class="text-inner-tspan" font-weight="normal">worktree-b</tspan></tspan></text></g></g></g><g class="node default stack" id="my-svg-flowchart-SB-3" data-look="classic" transform="translate(250.538330078125, 151.5)"><rect class="basic label-container" style="fill:#ffffff;stroke:#a8a8a4;stroke-width:1.5px" rx="5" ry="5" x="-59.026123046875" y="-23.5" width="118.05224609375" height="47"/><g class="label" style="color:#706f6c" transform="translate(0, -8.5)"><rect/><g><rect class="background" style="stroke: none"/><text y="-10.1" style="fill:#706f6c"><tspan class="text-outer-tspan row" x="0" y="-0.1em" dy="1.1em"><tspan font-style="normal" class="text-inner-tspan" font-weight="normal">full</tspan><tspan font-style="normal" class="text-inner-tspan" font-weight="normal"> Sail</tspan><tspan font-style="normal" class="text-inner-tspan" font-weight="normal"> stack</tspan></tspan></text></g></g></g><g class="node default muted" id="my-svg-flowchart-WC-4" data-look="classic" transform="translate(86.256103515625, 240.5)"><rect class="basic label-container" style="fill:#f7f7f5;stroke:#d6d6d2;stroke-width:1.5px" rx="5" ry="5" x="-50.756103515625" y="-23.5" width="101.51220703125" height="47"/><g class="label" style="color:#706f6c" transform="translate(0, -8.5)"><rect/><g><rect class="background" style="stroke: none"/><text y="-10.1" style="fill:#706f6c"><tspan class="text-outer-tspan row" x="0" y="-0.1em" dy="1.1em"><tspan font-style="normal" class="text-inner-tspan" font-weight="normal">worktree-c</tspan></tspan></text></g></g></g><g class="node default stack" id="my-svg-flowchart-SC-5" data-look="classic" transform="translate(250.538330078125, 240.5)"><rect class="basic label-container" style="fill:#ffffff;stroke:#a8a8a4;stroke-width:1.5px" rx="5" ry="5" x="-59.026123046875" y="-23.5" width="118.05224609375" height="47"/><g class="label" style="color:#706f6c" transform="translate(0, -8.5)"><rect/><g><rect class="background" style="stroke: none"/><text y="-10.1" style="fill:#706f6c"><tspan class="text-outer-tspan row" x="0" y="-0.1em" dy="1.1em"><tspan font-style="normal" class="text-inner-tspan" font-weight="normal">full</tspan><tspan font-style="normal" class="text-inner-tspan" font-weight="normal"> Sail</tspan><tspan font-style="normal" class="text-inner-tspan" font-weight="normal"> stack</tspan></tspan></text></g></g></g><g class="node default shared" id="my-svg-flowchart-shared-6" data-look="classic" transform="translate(527.75244140625, 240.5)"><rect class="basic label-container" style="fill:#1b1b18;stroke:#1b1b18;stroke-width:2px" rx="5" ry="5" x="-110.18798828125" y="-31.75" width="220.3759765625" height="63.5"/><g class="label" style="color:#ffffff" transform="translate(0, -16.75)"><rect/><g><rect class="background" style="stroke: none"/><text y="-10.1" style="fill:#ffffff"><tspan class="text-outer-tspan row" x="0" y="-0.1em" dy="1.1em"><tspan font-style="normal" class="text-inner-tspan" font-weight="normal">Shared</tspan><tspan font-style="normal" class="text-inner-tspan" font-weight="normal"> infrastructure</tspan></tspan><tspan class="text-outer-tspan row" x="0" y="1em" dy="1.1em"><tspan font-style="normal" class="text-inner-tspan" font-weight="normal">PostgreSQL</tspan><tspan font-style="normal" class="text-inner-tspan" font-weight="normal"> ·</tspan><tspan font-style="normal" class="text-inner-tspan" font-weight="normal"> Redis</tspan><tspan font-style="normal" class="text-inner-tspan" font-weight="normal"> ·</tspan><tspan font-style="normal" class="text-inner-tspan" font-weight="normal"> Mailpit</tspan></tspan></text></g></g></g><g class="node default harbour" id="my-svg-flowchart-namespaces-8" data-look="classic" transform="translate(806.3846664428711, 240.5)"><g class="basic label-container outer-path"><path d="M-81.9609375 -32.5 C-32.3114612244696 -32.5, 17.338015051060793 -32.5, 81.9609375 -32.5 C81.9609375 -32.5, 81.9609375 -32.5, 81.9609375 -32.5 C82.59654502765304 -32.47961730372317, 83.23215255530607 -32.459234607446334, 84.04321964937317 -32.43322526438593 C84.74166345704188 -32.36584723026171, 85.4401072647106 -32.298469196137475, 86.11694525474644 -32.2331754492555 C86.58743433463049 -32.15711042351715, 87.05792341451453 -32.08104539777881, 88.17359293279459 -31.900672602209628 C88.860770784832 -31.74382874173665, 89.54794863686939 -31.58698488126367, 90.20471147705898 -31.437083048768457 C90.84260171531493 -31.24776057440828, 91.48049195357088 -31.0584381000481, 92.20195458576767 -30.84431177784673 C92.65477153776922 -30.677670953716138, 93.10758848977078 -30.511030129585546, 94.15711515857966 -30.124794613745706 C94.80182956932865 -29.83939866888062, 95.44654398007765 -29.554002724015533, 96.06215902132064 -29.281488206828623 C96.79045937856172 -28.90153437695459, 97.51875973580282 -28.52158054708056, 97.90925794012797 -28.31785788401016 C98.40186313411773 -28.019237720544126, 98.89446832810748 -27.720617557078093, 99.69082178934283 -27.237863408984822 C100.21406727447221 -26.872870009490548, 100.73731275960161 -26.50787660999627, 101.39952974096452 -26.04594271070859 C101.96058973381722 -25.598512296842017, 102.52164972666989 -25.151081882975443, 103.02836034750311 -24.746993646996874 C103.44680209235928 -24.36697592568038, 103.86524383721546 -23.986958204363884, 104.57062039461331 -23.346353878176146 C105.0778472716261 -22.82260048355937, 105.58507414863888 -22.298847088942598, 106.01997240494775 -21.849778933492804 C106.33166318799748 -21.483649204014604, 106.64335397104722 -21.1175194745364, 107.37046068021097 -20.26341856040884 C107.64325035220035 -19.897905251593432, 107.91604002418973 -19.532391942778023, 108.61653577440106 -18.59379145397052 C108.90381431341632 -18.152454472954012, 109.1910928524316 -17.7111174919375, 109.75307729767374 -16.847758470092067 C109.98977569400562 -16.427476499093164, 110.22647409033749 -16.00719452809426, 110.7754149571225 -15.032494432827146 C110.97697847141848 -14.613943482623252, 111.17854198571445 -14.195392532419358, 111.6793477480139 -13.155458651477806 C111.85722467324811 -12.716099207132885, 112.03510159848234 -12.276739762787964, 112.4611612166172 -11.224364268692513 C112.639887705338 -10.686068560864284, 112.81861419405881 -10.147772853036056, 113.11764272369146 -9.247146565508563 C113.25609098066931 -8.719183357797903, 113.39453923764715 -8.191220150087242, 113.64609464590927 -7.231930353580221 C113.74516087475934 -6.723246206090003, 113.8442271036094 -6.214562058599785, 114.04434546096962 -5.186996588584837 C114.14858642095466 -4.378524287646757, 114.25282738093969 -3.570051986708677, 114.31075867084894 -3.120748341999663 C114.35367427084066 -2.4523032312798283, 114.39658987083237 -1.7838581205599935, 114.44423952652235 -1.0416762710787928 C114.44423952652235 -0.5700360387975103, 114.44423952652235 -0.09839580651622781, 114.44423952652235 1.041676271078785 C114.39868245367154 1.7512644537375803, 114.35312538082073 2.4608526363963756, 114.31075867084894 3.120748341999641 C114.22959211491712 3.7502601216574516, 114.14842555898531 4.379771901315262, 114.04434546096962 5.186996588584814 C113.96175799864169 5.611065752772462, 113.87917053631374 6.035134916960111, 113.64609464590927 7.231930353580214 C113.46661642609158 7.916358592097585, 113.2871382062739 8.600786830614956, 113.11764272369147 9.247146565508542 C112.98305608471833 9.652500078626824, 112.84846944574518 10.057853591745106, 112.46116121661721 11.224364268692492 C112.18773075122068 11.89974280464035, 111.91430028582415 12.575121340588208, 111.67934774801391 13.155458651477797 C111.38191980401034 13.773074141139734, 111.08449186000676 14.39068963080167, 110.7754149571225 15.03249443282714 C110.41130995845516 15.678999727590119, 110.04720495978783 16.3255050223531, 109.75307729767376 16.84775847009206 C109.52166899088692 17.203263771147675, 109.2902606841001 17.55876907220329, 108.61653577440107 18.593791453970503 C108.13284492037154 19.24189313322676, 107.64915406634202 19.889994812483017, 107.37046068021097 20.263418560408834 C107.03555150352898 20.656821936211507, 106.700642326847 21.05022531201418, 106.01997240494777 21.849778933492786 C105.46686063461817 22.42091224767897, 104.91374886428858 22.992045561865158, 104.57062039461331 23.34635387817614 C104.21146326039988 23.672530884691742, 103.85230612618645 23.998707891207346, 103.02836034750314 24.746993646996852 C102.5624535868098 25.1185418903502, 102.09654682611645 25.49009013370355, 101.39952974096452 26.045942710708587 C100.84705296827755 26.431326591000992, 100.29457619559058 26.8167104712934, 99.69082178934285 27.23786340898481 C98.979539093214 27.669047159339215, 98.26825639708515 28.100230909693614, 97.90925794012799 28.317857884010156 C97.46762413725618 28.548257956088424, 97.02599033438437 28.77865802816669, 96.06215902132064 29.28148820682862 C95.56321420604127 29.50235627588072, 95.0642693907619 29.723224344932824, 94.15711515857967 30.124794613745703 C93.38118475530585 30.410344174772487, 92.60525435203205 30.69589373579927, 92.2019545857677 30.844311777846723 C91.50547755640956 31.05102250427769, 90.80900052705141 31.25773323070866, 90.20471147705902 31.43708304876845 C89.57899448683665 31.579898868601752, 88.95327749661426 31.722714688435055, 88.1735929327946 31.900672602209625 C87.61855926124832 31.990406141874818, 87.06352558970205 32.08013968154001, 86.11694525474647 32.2331754492555 C85.65147746545324 32.2780785670817, 85.18600967616001 32.322981684907894, 84.04321964937317 32.43322526438593 C83.28782133021961 32.45744941818756, 82.53242301106607 32.48167357198918, 81.9609375 32.5 C81.9609375 32.5, 81.9609375 32.5, 81.9609375 32.5 C38.545692378523334 32.5, -4.869552742953331 32.5, -81.9609375 32.5 C-82.3880054593071 32.48630476178238, -82.81507341861419 32.47260952356475, -84.04321964937316 32.43322526438593 C-84.56744515446867 32.38265386038278, -85.09167065956417 32.332082456379624, -86.11694525474645 32.2331754492555 C-86.53318123046792 32.16588164465905, -86.9494172061894 32.098587840062606, -88.17359293279459 31.900672602209625 C-88.84538284127977 31.747340939436725, -89.51717274976497 31.594009276663826, -90.20471147705898 31.437083048768457 C-90.84179923216233 31.24799874719565, -91.4788869872657 31.058914445622843, -92.20195458576765 30.844311777846737 C-92.6178265069057 30.691267066590036, -93.03369842804376 30.538222355333335, -94.15711515857966 30.124794613745706 C-94.67709587363342 29.89461457587128, -95.19707658868718 29.664434537996854, -96.06215902132064 29.281488206828627 C-96.76687609580055 28.91383776046528, -97.47159317028049 28.54618731410193, -97.90925794012797 28.317857884010163 C-98.32513478557496 28.065750896336574, -98.74101163102196 27.813643908662986, -99.6908217893428 27.237863408984833 C-100.26057850490008 26.84042578858278, -100.83033522045734 26.442988168180726, -101.39952974096451 26.045942710708594 C-102.04901910510266 25.527992226446273, -102.69850846924079 25.01004174218395, -103.02836034750311 24.746993646996877 C-103.62554136405878 24.20464964830488, -104.22272238061443 23.66230564961288, -104.57062039461329 23.34635387817616 C-104.89971209197103 23.006539681723467, -105.22880378932875 22.666725485270774, -106.01997240494777 21.849778933492797 C-106.3963266783521 21.407691788787247, -106.77268095175643 20.965604644081694, -107.37046068021097 20.263418560408844 C-107.75734857271793 19.74502403066161, -108.14423646522488 19.22662950091438, -108.61653577440106 18.593791453970525 C-109.02729571039957 17.962753887789912, -109.43805564639808 17.3317163216093, -109.75307729767374 16.84775847009208 C-110.0434521908345 16.33216844363881, -110.33382708399525 15.816578417185537, -110.7754149571225 15.03249443282715 C-111.10467492234312 14.348779070011862, -111.43393488756375 13.665063707196571, -111.6793477480139 13.15545865147781 C-111.99150519813396 12.384423714527513, -112.30366264825403 11.613388777577216, -112.4611612166172 11.224364268692517 C-112.69485197953867 10.520524924339718, -112.92854274246012 9.816685579986919, -113.11764272369146 9.247146565508555 C-113.29232384960322 8.581011725128148, -113.467004975515 7.914876884747742, -113.64609464590927 7.231930353580226 C-113.76537032266056 6.619474962385539, -113.88464599941186 6.007019571190851, -114.04434546096962 5.18699658858484 C-114.11347232424077 4.650862287696925, -114.18259918751193 4.11472798680901, -114.31075867084894 3.1207483419996818 C-114.35231285182788 2.4735084313216356, -114.39386703280681 1.8262685206435891, -114.44423952652235 1.041676271078797 C-114.44423952652235 0.412159764213996, -114.44423952652235 -0.21735674265080496, -114.44423952652235 -1.0416762710787812 C-114.41000167820879 -1.5749583948562593, -114.37576382989523 -2.108240518633737, -114.31075867084894 -3.120748341999637 C-114.23871206618382 -3.679527580570988, -114.1666654615187 -4.2383068191423385, -114.04434546096962 -5.186996588584825 C-113.9168951772145 -5.841426859040424, -113.78944489345936 -6.495857129496024, -113.64609464590927 -7.231930353580211 C-113.45171771542944 -7.973173832994397, -113.25734078494959 -8.714417312408584, -113.11764272369147 -9.247146565508539 C-112.98220005392291 -9.65507830699264, -112.84675738415434 -10.063010048476743, -112.46116121661723 -11.224364268692476 C-112.16460829431323 -11.956855720244064, -111.86805537200922 -12.689347171795653, -111.67934774801391 -13.155458651477794 C-111.37262493423796 -13.792375137100427, -111.06590212046201 -14.42929162272306, -110.7754149571225 -15.032494432827136 C-110.38676219688688 -15.722586763985012, -109.99810943665125 -16.412679095142888, -109.75307729767374 -16.84775847009207 C-109.48309899799247 -17.262517637726827, -109.2131206983112 -17.677276805361583, -108.61653577440106 -18.593791453970514 C-108.1859102529064 -19.17079042198131, -107.75528473141173 -19.747789389992104, -107.37046068021098 -20.263418560408834 C-106.85681738696965 -20.866773199781445, -106.34317409372834 -21.47012783915406, -106.01997240494777 -21.849778933492786 C-105.6386065435334 -22.243570496122636, -105.25724068211905 -22.637362058752487, -104.57062039461333 -23.346353878176128 C-104.08736319496597 -23.785235280611015, -103.60410599531863 -24.224116683045903, -103.02836034750315 -24.74699364699685 C-102.45394405816651 -25.20507535188339, -101.87952776882989 -25.663157056769936, -101.39952974096454 -26.045942710708584 C-100.82547573804382 -26.44637793274881, -100.25142173512309 -26.846813154789036, -99.69082178934285 -27.237863408984808 C-99.01082364545705 -27.65008227992103, -98.33082550157127 -28.062301150857255, -97.90925794012799 -28.317857884010152 C-97.47185997246416 -28.546048123573605, -97.03446200480032 -28.77423836313706, -96.06215902132065 -29.28148820682862 C-95.43595863534797 -29.558688542124266, -94.80975824937528 -29.835888877419915, -94.15711515857967 -30.1247946137457 C-93.48826879215048 -30.37093625933968, -92.81942242572129 -30.61707790493366, -92.2019545857677 -30.844311777846723 C-91.47473524973186 -31.06014665952997, -90.74751591369602 -31.275981541213213, -90.20471147705902 -31.437083048768447 C-89.64402496269223 -31.56505608685123, -89.08333844832542 -31.69302912493401, -88.17359293279462 -31.90067260220962 C-87.5183518752521 -32.006606894922804, -86.86311081770957 -32.11254118763598, -86.11694525474647 -32.2331754492555 C-85.66294613571453 -32.27697219825468, -85.20894701668259 -32.32076894725387, -84.04321964937317 -32.43322526438593 C-83.45925793086913 -32.45195178008583, -82.87529621236507 -32.47067829578572, -81.96093750000001 -32.5 C-81.96093750000001 -32.5, -81.9609375 -32.5, -81.9609375 -32.5" stroke="none" stroke-width="0" fill="#f53003" style="fill:#f53003;stroke:#d62a00;stroke-width:2.5px"/><path d="M-81.9609375 -32.5 C-30.923658150504764 -32.5, 20.113621198990472 -32.5, 81.9609375 -32.5 M-81.9609375 -32.5 C-23.478166784567243 -32.5, 35.004603930865514 -32.5, 81.9609375 -32.5 M81.9609375 -32.5 C81.9609375 -32.5, 81.9609375 -32.5, 81.9609375 -32.5 M81.9609375 -32.5 C81.9609375 -32.5, 81.9609375 -32.5, 81.9609375 -32.5 M81.9609375 -32.5 C82.76255337108005 -32.4742937392651, 83.56416924216008 -32.44858747853021, 84.04321964937317 -32.43322526438593 M81.9609375 -32.5 C82.75260281154611 -32.47461283434177, 83.54426812309222 -32.44922566868353, 84.04321964937317 -32.43322526438593 M84.04321964937317 -32.43322526438593 C84.54103437197163 -32.38520167680666, 85.0388490945701 -32.33717808922738, 86.11694525474644 -32.2331754492555 M84.04321964937317 -32.43322526438593 C84.84352532098859 -32.35602073875358, 85.64383099260401 -32.27881621312123, 86.11694525474644 -32.2331754492555 M86.11694525474644 -32.2331754492555 C86.57459196269691 -32.159186678617296, 87.03223867064739 -32.08519790797909, 88.17359293279459 -31.900672602209628 M86.11694525474644 -32.2331754492555 C86.61417672458442 -32.15278692129973, 87.11140819442242 -32.07239839334397, 88.17359293279459 -31.900672602209628 M88.17359293279459 -31.900672602209628 C88.88885770109843 -31.73741808638309, 89.60412246940228 -31.574163570556557, 90.20471147705898 -31.437083048768457 M88.17359293279459 -31.900672602209628 C88.63617992613366 -31.795090139642223, 89.09876691947274 -31.68950767707482, 90.20471147705898 -31.437083048768457 M90.20471147705898 -31.437083048768457 C90.99858892617392 -31.20146438901891, 91.79246637528887 -30.965845729269358, 92.20195458576767 -30.84431177784673 M90.20471147705898 -31.437083048768457 C90.70326515506952 -31.289114934096588, 91.20181883308004 -31.141146819424723, 92.20195458576767 -30.84431177784673 M92.20195458576767 -30.84431177784673 C92.8140707001632 -30.61904738940984, 93.42618681455873 -30.39378300097295, 94.15711515857966 -30.124794613745706 M92.20195458576767 -30.84431177784673 C92.6238990509573 -30.68903231424506, 93.04584351614696 -30.533752850643396, 94.15711515857966 -30.124794613745706 M94.15711515857966 -30.124794613745706 C94.56235914383996 -29.945405122606683, 94.96760312910025 -29.76601563146766, 96.06215902132064 -29.281488206828623 M94.15711515857966 -30.124794613745706 C94.76081485895588 -29.85755466450449, 95.3645145593321 -29.590314715263276, 96.06215902132064 -29.281488206828623 M96.06215902132064 -29.281488206828623 C96.45655185418555 -29.075733718543667, 96.85094468705046 -28.86997923025871, 97.90925794012797 -28.31785788401016 M96.06215902132064 -29.281488206828623 C96.78152838202836 -28.906193672125475, 97.50089774273606 -28.530899137422328, 97.90925794012797 -28.31785788401016 M97.90925794012797 -28.31785788401016 C98.54047380642751 -27.935211116423208, 99.17168967272704 -27.552564348836256, 99.69082178934283 -27.237863408984822 M97.90925794012797 -28.31785788401016 C98.6070387131967 -27.89485907876091, 99.30481948626544 -27.47186027351166, 99.69082178934283 -27.237863408984822 M99.69082178934283 -27.237863408984822 C100.08268007757174 -26.964520030388236, 100.47453836580064 -26.691176651791647, 101.39952974096452 -26.04594271070859 M99.69082178934283 -27.237863408984822 C100.05634193414863 -26.98289237908034, 100.42186207895443 -26.72792134917586, 101.39952974096452 -26.04594271070859 M101.39952974096452 -26.04594271070859 C101.80516016513626 -25.722463241710553, 102.21079058930799 -25.398983772712512, 103.02836034750311 -24.746993646996874 M101.39952974096452 -26.04594271070859 C102.01331747895519 -25.55646332323871, 102.62710521694585 -25.06698393576883, 103.02836034750311 -24.746993646996874 M103.02836034750311 -24.746993646996874 C103.46128640173356 -24.35382165914049, 103.894212455964 -23.960649671284106, 104.57062039461331 -23.346353878176146 M103.02836034750311 -24.746993646996874 C103.39699411922071 -24.41221020903808, 103.7656278909383 -24.077426771079285, 104.57062039461331 -23.346353878176146 M104.57062039461331 -23.346353878176146 C104.95805362364834 -22.94629726033782, 105.34548685268336 -22.546240642499487, 106.01997240494775 -21.849778933492804 M104.57062039461331 -23.346353878176146 C104.97089615049346 -22.933036296979168, 105.3711719063736 -22.51971871578219, 106.01997240494775 -21.849778933492804 M106.01997240494775 -21.849778933492804 C106.52732818568475 -21.253809964077362, 107.03468396642175 -20.657840994661925, 107.37046068021097 -20.26341856040884 M106.01997240494775 -21.849778933492804 C106.53402618686265 -21.24594211076674, 107.04807996877756 -20.64210528804068, 107.37046068021097 -20.26341856040884 M107.37046068021097 -20.26341856040884 C107.7163151665773 -19.800005056669832, 108.06216965294365 -19.33659155293082, 108.61653577440106 -18.59379145397052 M107.37046068021097 -20.26341856040884 C107.62736464881044 -19.91919064691855, 107.88426861740993 -19.574962733428265, 108.61653577440106 -18.59379145397052 M108.61653577440106 -18.59379145397052 C108.91437254188706 -18.136234198741633, 109.21220930937308 -17.678676943512745, 109.75307729767374 -16.847758470092067 M108.61653577440106 -18.59379145397052 C108.92164158844834 -18.125066991211206, 109.22674740249562 -17.656342528451894, 109.75307729767374 -16.847758470092067 M109.75307729767374 -16.847758470092067 C109.99134451546982 -16.42469089772307, 110.2296117332659 -16.00162332535407, 110.7754149571225 -15.032494432827146 M109.75307729767374 -16.847758470092067 C109.9883321185157 -16.430039713553384, 110.22358693935766 -16.0123209570147, 110.7754149571225 -15.032494432827146 M110.7754149571225 -15.032494432827146 C110.98597052699101 -14.595271286827714, 111.19652609685951 -14.158048140828281, 111.6793477480139 -13.155458651477806 M110.7754149571225 -15.032494432827146 C111.03391551189269 -14.495712499821035, 111.29241606666287 -13.958930566814924, 111.6793477480139 -13.155458651477806 M111.6793477480139 -13.155458651477806 C111.90723156842273 -12.592581209234039, 112.13511538883157 -12.02970376699027, 112.4611612166172 -11.224364268692513 M111.6793477480139 -13.155458651477806 C111.90079542655843 -12.608478604073214, 112.12224310510295 -12.061498556668624, 112.4611612166172 -11.224364268692513 M112.4611612166172 -11.224364268692513 C112.66373601113517 -10.614241263514735, 112.86631080565314 -10.004118258336957, 113.11764272369146 -9.247146565508563 M112.4611612166172 -11.224364268692513 C112.67289518667846 -10.586655286094787, 112.88462915673972 -9.948946303497062, 113.11764272369146 -9.247146565508563 M113.11764272369146 -9.247146565508563 C113.26459797882227 -8.686742486884361, 113.41155323395307 -8.12633840826016, 113.64609464590927 -7.231930353580221 M113.11764272369146 -9.247146565508563 C113.29692765617453 -8.563455415369365, 113.4762125886576 -7.8797642652301665, 113.64609464590927 -7.231930353580221 M113.64609464590927 -7.231930353580221 C113.77075233392539 -6.59183947202914, 113.8954100219415 -5.951748590478058, 114.04434546096962 -5.186996588584837 M113.64609464590927 -7.231930353580221 C113.7474068098199 -6.711713804232513, 113.84871897373054 -6.191497254884804, 114.04434546096962 -5.186996588584837 M114.04434546096962 -5.186996588584837 C114.12934257661237 -4.527775744238571, 114.21433969225514 -3.868554899892307, 114.31075867084894 -3.120748341999663 M114.04434546096962 -5.186996588584837 C114.14055209801059 -4.440836909844402, 114.23675873505157 -3.6946772311039666, 114.31075867084894 -3.120748341999663 M114.31075867084894 -3.120748341999663 C114.34954142065874 -2.5166757088398874, 114.38832417046854 -1.9126030756801122, 114.44423952652235 -1.0416762710787928 M114.31075867084894 -3.120748341999663 C114.3559182854873 -2.41735089182228, 114.40107790012567 -1.7139534416448967, 114.44423952652235 -1.0416762710787928 M114.44423952652235 -1.0416762710787928 C114.44423952652235 -0.5404980732336444, 114.44423952652235 -0.03931987538849602, 114.44423952652235 1.041676271078785 M114.44423952652235 -1.0416762710787928 C114.44423952652235 -0.2925018243651565, 114.44423952652235 0.45667262234847983, 114.44423952652235 1.041676271078785 M114.44423952652235 1.041676271078785 C114.41473125816647 1.501291369367265, 114.38522298981057 1.9609064676557448, 114.31075867084894 3.120748341999641 M114.44423952652235 1.041676271078785 C114.39764129972762 1.7674812668184678, 114.35104307293288 2.4932862625581507, 114.31075867084894 3.120748341999641 M114.31075867084894 3.120748341999641 C114.20764237636304 3.920497959416794, 114.10452608187713 4.720247576833947, 114.04434546096962 5.186996588584814 M114.31075867084894 3.120748341999641 C114.2377759105599 3.6867882187252645, 114.16479315027087 4.252828095450889, 114.04434546096962 5.186996588584814 M114.04434546096962 5.186996588584814 C113.9454360110646 5.694875709327514, 113.84652656115956 6.202754830070212, 113.64609464590927 7.231930353580214 M114.04434546096962 5.186996588584814 C113.91761338183451 5.837739030109181, 113.79088130269942 6.488481471633548, 113.64609464590927 7.231930353580214 M113.64609464590927 7.231930353580214 C113.50313296430879 7.777105205507569, 113.36017128270832 8.322280057434924, 113.11764272369147 9.247146565508542 M113.64609464590927 7.231930353580214 C113.48004732951213 7.8651407363646415, 113.314000013115 8.498351119149069, 113.11764272369147 9.247146565508542 M113.11764272369147 9.247146565508542 C112.9134409503389 9.86216977171227, 112.70923917698633 10.477192977916001, 112.46116121661721 11.224364268692492 M113.11764272369147 9.247146565508542 C112.89844393916302 9.907338379924811, 112.67924515463454 10.567530194341078, 112.46116121661721 11.224364268692492 M112.46116121661721 11.224364268692492 C112.2439703607877 11.760829881690924, 112.0267795049582 12.297295494689354, 111.67934774801391 13.155458651477797 M112.46116121661721 11.224364268692492 C112.21789196042788 11.825244034771263, 111.97462270423854 12.426123800850034, 111.67934774801391 13.155458651477797 M111.67934774801391 13.155458651477797 C111.41677957446758 13.700687081905672, 111.15421140092124 14.245915512333546, 110.7754149571225 15.03249443282714 M111.67934774801391 13.155458651477797 C111.47079272947248 13.588527609841606, 111.26223771093106 14.021596568205414, 110.7754149571225 15.03249443282714 M110.7754149571225 15.03249443282714 C110.51043724992861 15.50298918385229, 110.24545954273474 15.97348393487744, 109.75307729767376 16.84775847009206 M110.7754149571225 15.03249443282714 C110.44774567969081 15.614304415019372, 110.12007640225913 16.196114397211606, 109.75307729767376 16.84775847009206 M109.75307729767376 16.84775847009206 C109.42615248092729 17.35000278021992, 109.09922766418082 17.852247090347777, 108.61653577440107 18.593791453970503 M109.75307729767376 16.84775847009206 C109.3004774613121 17.543073358816844, 108.84787762495044 18.23838824754163, 108.61653577440107 18.593791453970503 M108.61653577440107 18.593791453970503 C108.13771882149996 19.235362549736216, 107.65890186859885 19.876933645501925, 107.37046068021097 20.263418560408834 M108.61653577440107 18.593791453970503 C108.35969972366375 18.937928363712945, 108.10286367292642 19.282065273455387, 107.37046068021097 20.263418560408834 M107.37046068021097 20.263418560408834 C106.91206749638 20.801873277447754, 106.45367431254904 21.340327994486675, 106.01997240494777 21.849778933492786 M107.37046068021097 20.263418560408834 C106.86520317613292 20.856922774665343, 106.35994567205488 21.45042698892185, 106.01997240494777 21.849778933492786 M106.01997240494777 21.849778933492786 C105.68016365575598 22.20065936585047, 105.34035490656417 22.551539798208154, 104.57062039461331 23.34635387817614 M106.01997240494777 21.849778933492786 C105.51697618106012 22.369163831414777, 105.01397995717247 22.88854872933677, 104.57062039461331 23.34635387817614 M104.57062039461331 23.34635387817614 C104.04779778450762 23.8211675395459, 103.52497517440192 24.295981200915666, 103.02836034750314 24.746993646996852 M104.57062039461331 23.34635387817614 C104.0390511840734 23.829110970637895, 103.50748197353349 24.31186806309965, 103.02836034750314 24.746993646996852 M103.02836034750314 24.746993646996852 C102.49429112969631 25.172899636019036, 101.96022191188949 25.598805625041223, 101.39952974096452 26.045942710708587 M103.02836034750314 24.746993646996852 C102.60508706461948 25.084542826321464, 102.18181378173583 25.422092005646075, 101.39952974096452 26.045942710708587 M101.39952974096452 26.045942710708587 C100.85646828681841 26.42475887236946, 100.3134068326723 26.80357503403033, 99.69082178934285 27.23786340898481 M101.39952974096452 26.045942710708587 C101.04763648872375 26.29140821025838, 100.69574323648297 26.536873709808173, 99.69082178934285 27.23786340898481 M99.69082178934285 27.23786340898481 C99.21082318934198 27.528841381090217, 98.73082458934111 27.81981935319562, 97.90925794012799 28.317857884010156 M99.69082178934285 27.23786340898481 C99.01498212265172 27.64756138660771, 98.33914245596058 28.057259364230603, 97.90925794012799 28.317857884010156 M97.90925794012799 28.317857884010156 C97.29430105138945 28.63868049896636, 96.67934416265092 28.959503113922565, 96.06215902132064 29.28148820682862 M97.90925794012799 28.317857884010156 C97.22033990459484 28.67726598187474, 96.53142186906167 29.03667407973932, 96.06215902132064 29.28148820682862 M96.06215902132064 29.28148820682862 C95.48963323600819 29.534928388612443, 94.91710745069572 29.788368570396266, 94.15711515857967 30.124794613745703 M96.06215902132064 29.28148820682862 C95.30130066204626 29.618297632418077, 94.54044230277188 29.955107058007535, 94.15711515857967 30.124794613745703 M94.15711515857967 30.124794613745703 C93.56580774277491 30.342401208747688, 92.97450032697014 30.560007803749677, 92.2019545857677 30.844311777846723 M94.15711515857967 30.124794613745703 C93.67904711992723 30.300728071182306, 93.2009790812748 30.47666152861891, 92.2019545857677 30.844311777846723 M92.2019545857677 30.844311777846723 C91.63584284289418 31.01233077155041, 91.06973110002065 31.180349765254096, 90.20471147705902 31.43708304876845 M92.2019545857677 30.844311777846723 C91.6955552035021 30.994608456358552, 91.18915582123651 31.14490513487038, 90.20471147705902 31.43708304876845 M90.20471147705902 31.43708304876845 C89.47416033605656 31.60382657941054, 88.74360919505409 31.77057011005263, 88.1735929327946 31.900672602209625 M90.20471147705902 31.43708304876845 C89.57430705888895 31.58096874344249, 88.94390264071887 31.72485443811653, 88.1735929327946 31.900672602209625 M88.1735929327946 31.900672602209625 C87.727379191123 31.97281297952384, 87.28116544945142 32.04495335683806, 86.11694525474647 32.2331754492555 M88.1735929327946 31.900672602209625 C87.75789190427166 31.96787992069159, 87.34219087574871 32.035087239173556, 86.11694525474647 32.2331754492555 M86.11694525474647 32.2331754492555 C85.55087736462221 32.28778333781954, 84.98480947449795 32.34239122638359, 84.04321964937317 32.43322526438593 M86.11694525474647 32.2331754492555 C85.33484415089802 32.30862380212957, 84.55274304704956 32.38407215500363, 84.04321964937317 32.43322526438593 M84.04321964937317 32.43322526438593 C83.49440026521975 32.4508248338236, 82.94558088106633 32.46842440326128, 81.9609375 32.5 M84.04321964937317 32.43322526438593 C83.53108730824128 32.4496483517609, 83.0189549671094 32.466071439135874, 81.9609375 32.5 M81.9609375 32.5 C81.9609375 32.5, 81.9609375 32.5, 81.9609375 32.5 M81.9609375 32.5 C81.9609375 32.5, 81.9609375 32.5, 81.9609375 32.5 M81.9609375 32.5 C28.594036970036917 32.5, -24.772863559926165 32.5, -81.9609375 32.5 M81.9609375 32.5 C37.479344784235934 32.5, -7.002247931528132 32.5, -81.9609375 32.5 M-81.9609375 32.5 C-82.38349679749231 32.4864493457912, -82.80605609498464 32.472898691582394, -84.04321964937316 32.43322526438593 M-81.9609375 32.5 C-82.64444252817441 32.478081324108274, -83.32794755634883 32.456162648216555, -84.04321964937316 32.43322526438593 M-84.04321964937316 32.43322526438593 C-84.5670273993749 32.38269416071425, -85.09083514937664 32.33216305704257, -86.11694525474645 32.2331754492555 M-84.04321964937316 32.43322526438593 C-84.67842774007002 32.37194750382591, -85.31363583076688 32.310669743265876, -86.11694525474645 32.2331754492555 M-86.11694525474645 32.2331754492555 C-86.63952088202628 32.14868947447141, -87.1620965093061 32.06420349968732, -88.17359293279459 31.900672602209625 M-86.11694525474645 32.2331754492555 C-86.84241854304297 32.11588655413309, -87.5678918313395 31.99859765901069, -88.17359293279459 31.900672602209625 M-88.17359293279459 31.900672602209625 C-88.75391245720422 31.76821845770193, -89.33423198161387 31.635764313194233, -90.20471147705898 31.437083048768457 M-88.17359293279459 31.900672602209625 C-88.77403185322895 31.763626336850617, -89.3744707736633 31.62658007149161, -90.20471147705898 31.437083048768457 M-90.20471147705898 31.437083048768457 C-90.81223352332194 31.256773694385906, -91.41975556958491 31.076464340003355, -92.20195458576765 30.844311777846737 M-90.20471147705898 31.437083048768457 C-90.67086822275118 31.2987301735537, -91.13702496844338 31.160377298338947, -92.20195458576765 30.844311777846737 M-92.20195458576765 30.844311777846737 C-92.60646619462474 30.695447766523007, -93.01097780348184 30.546583755199276, -94.15711515857966 30.124794613745706 M-92.20195458576765 30.844311777846737 C-92.79994291475317 30.62424654503655, -93.39793124373868 30.404181312226363, -94.15711515857966 30.124794613745706 M-94.15711515857966 30.124794613745706 C-94.62733109291744 29.91664396807447, -95.09754702725525 29.708493322403235, -96.06215902132064 29.281488206828627 M-94.15711515857966 30.124794613745706 C-94.63423076324956 29.913589688689893, -95.11134636791947 29.702384763634075, -96.06215902132064 29.281488206828627 M-96.06215902132064 29.281488206828627 C-96.75657249940367 28.91921314010577, -97.4509859774867 28.556938073382916, -97.90925794012797 28.317857884010163 M-96.06215902132064 29.281488206828627 C-96.73144580845721 28.932321718678125, -97.40073259559378 28.583155230527627, -97.90925794012797 28.317857884010163 M-97.90925794012797 28.317857884010163 C-98.32265460814992 28.067254394466776, -98.73605127617188 27.81665090492339, -99.6908217893428 27.237863408984833 M-97.90925794012797 28.317857884010163 C-98.62014501798288 27.886913959778333, -99.3310320958378 27.4559700355465, -99.6908217893428 27.237863408984833 M-99.6908217893428 27.237863408984833 C-100.14314649000293 26.922341278625034, -100.59547119066306 26.606819148265235, -101.39952974096451 26.045942710708594 M-99.6908217893428 27.237863408984833 C-100.07892945399324 26.967136303034714, -100.46703711864366 26.696409197084595, -101.39952974096451 26.045942710708594 M-101.39952974096451 26.045942710708594 C-101.99027213325314 25.57484137317368, -102.58101452554178 25.103740035638765, -103.02836034750311 24.746993646996877 M-101.39952974096451 26.045942710708594 C-101.72880486502687 25.783354561647904, -102.05807998908924 25.520766412587218, -103.02836034750311 24.746993646996877 M-103.02836034750311 24.746993646996877 C-103.60151910384062 24.226466029440836, -104.17467786017811 23.705938411884794, -104.57062039461329 23.34635387817616 M-103.02836034750311 24.746993646996877 C-103.63916259105194 24.192279210347596, -104.24996483460079 23.637564773698312, -104.57062039461329 23.34635387817616 M-104.57062039461329 23.34635387817616 C-105.14983752175208 22.74826463979483, -105.72905464889088 22.1501754014135, -106.01997240494777 21.849778933492797 M-104.57062039461329 23.34635387817616 C-105.12497593085206 22.773936273573675, -105.67933146709083 22.201518668971193, -106.01997240494777 21.849778933492797 M-106.01997240494777 21.849778933492797 C-106.47770569623182 21.31209936378843, -106.93543898751587 20.77441979408406, -107.37046068021097 20.263418560408844 M-106.01997240494777 21.849778933492797 C-106.55273163061682 21.2239696321632, -107.08549085628587 20.598160330833608, -107.37046068021097 20.263418560408844 M-107.37046068021097 20.263418560408844 C-107.70712996629135 19.81231238826407, -108.04379925237173 19.36120621611929, -108.61653577440106 18.593791453970525 M-107.37046068021097 20.263418560408844 C-107.64407369251808 19.89680205057552, -107.9176867048252 19.530185540742195, -108.61653577440106 18.593791453970525 M-108.61653577440106 18.593791453970525 C-108.95176186007204 18.078794165571793, -109.28698794574302 17.56379687717306, -109.75307729767374 16.84775847009208 M-108.61653577440106 18.593791453970525 C-109.00868731508557 17.99134138004601, -109.40083885577009 17.388891306121494, -109.75307729767374 16.84775847009208 M-109.75307729767374 16.84775847009208 C-110.04351996356722 16.332048106289125, -110.3339626294607 15.816337742486173, -110.7754149571225 15.03249443282715 M-109.75307729767374 16.84775847009208 C-110.14947514010272 16.143913961225287, -110.5458729825317 15.440069452358493, -110.7754149571225 15.03249443282715 M-110.7754149571225 15.03249443282715 C-111.03213788902772 14.499403771735189, -111.28886082093292 13.96631311064323, -111.6793477480139 13.15545865147781 M-110.7754149571225 15.03249443282715 C-110.96253574957557 14.643934103554802, -111.14965654202862 14.255373774282456, -111.6793477480139 13.15545865147781 M-111.6793477480139 13.15545865147781 C-111.92571489647733 12.54692703158835, -112.17208204494077 11.93839541169889, -112.4611612166172 11.224364268692517 M-111.6793477480139 13.15545865147781 C-111.94909507630263 12.489177535394822, -112.21884240459137 11.822896419311835, -112.4611612166172 11.224364268692517 M-112.4611612166172 11.224364268692517 C-112.60811531828998 10.781761928410518, -112.75506941996277 10.339159588128517, -113.11764272369146 9.247146565508555 M-112.4611612166172 11.224364268692517 C-112.66627168480332 10.606604218431, -112.87138215298944 9.988844168169484, -113.11764272369146 9.247146565508555 M-113.11764272369146 9.247146565508555 C-113.29011148840321 8.589448417227178, -113.46258025311498 7.931750268945802, -113.64609464590927 7.231930353580226 M-113.11764272369146 9.247146565508555 C-113.25538257996469 8.721884796707418, -113.39312243623792 8.19662302790628, -113.64609464590927 7.231930353580226 M-113.64609464590927 7.231930353580226 C-113.79162686429545 6.484653170412435, -113.93715908268163 5.7373759872446435, -114.04434546096962 5.18699658858484 M-113.64609464590927 7.231930353580226 C-113.79854500822216 6.449129963498986, -113.95099537053505 5.6663295734177455, -114.04434546096962 5.18699658858484 M-114.04434546096962 5.18699658858484 C-114.11076817841105 4.671835108758261, -114.17719089585249 4.156673628931681, -114.31075867084894 3.1207483419996818 M-114.04434546096962 5.18699658858484 C-114.10370265002511 4.726633951673279, -114.16305983908059 4.266271314761719, -114.31075867084894 3.1207483419996818 M-114.31075867084894 3.1207483419996818 C-114.3436081928791 2.6090905207229578, -114.37645771490926 2.097432699446234, -114.44423952652235 1.041676271078797 M-114.31075867084894 3.1207483419996818 C-114.35280141621094 2.4658986466932435, -114.39484416157295 1.8110489513868056, -114.44423952652235 1.041676271078797 M-114.44423952652235 1.041676271078797 C-114.44423952652235 0.4939660776954742, -114.44423952652235 -0.05374411568784865, -114.44423952652235 -1.0416762710787812 M-114.44423952652235 1.041676271078797 C-114.44423952652235 0.4582354111762489, -114.44423952652235 -0.12520544872629924, -114.44423952652235 -1.0416762710787812 M-114.44423952652235 -1.0416762710787812 C-114.40916142261594 -1.5880460539569488, -114.37408331870954 -2.1344158368351165, -114.31075867084894 -3.120748341999637 M-114.44423952652235 -1.0416762710787812 C-114.39845590694594 -1.7547931018539598, -114.35267228736953 -2.467909932629138, -114.31075867084894 -3.120748341999637 M-114.31075867084894 -3.120748341999637 C-114.2484989135462 -3.6036227250599495, -114.18623915624347 -4.086497108120262, -114.04434546096962 -5.186996588584825 M-114.31075867084894 -3.120748341999637 C-114.22856376726558 -3.7582357829725157, -114.14636886368224 -4.395723223945394, -114.04434546096962 -5.186996588584825 M-114.04434546096962 -5.186996588584825 C-113.95564795439695 -5.6424395386108745, -113.86695044782427 -6.097882488636924, -113.64609464590927 -7.231930353580211 M-114.04434546096962 -5.186996588584825 C-113.89655678771156 -5.945860190617845, -113.7487681144535 -6.7047237926508645, -113.64609464590927 -7.231930353580211 M-113.64609464590927 -7.231930353580211 C-113.52306429560666 -7.701098400975194, -113.40003394530405 -8.170266448370178, -113.11764272369147 -9.247146565508539 M-113.64609464590927 -7.231930353580211 C-113.45696594182438 -7.9531600711547785, -113.26783723773949 -8.674389788729346, -113.11764272369147 -9.247146565508539 M-113.11764272369147 -9.247146565508539 C-112.89510497368009 -9.917394811967483, -112.6725672236687 -10.587643058426428, -112.46116121661723 -11.224364268692476 M-113.11764272369147 -9.247146565508539 C-112.94404714796468 -9.769988780898773, -112.77045157223789 -10.292830996289009, -112.46116121661723 -11.224364268692476 M-112.46116121661723 -11.224364268692476 C-112.29828761707384 -11.626665208511477, -112.13541401753045 -12.028966148330479, -111.67934774801391 -13.155458651477794 M-112.46116121661723 -11.224364268692476 C-112.22484023991692 -11.808081650097495, -111.98851926321662 -12.391799031502517, -111.67934774801391 -13.155458651477794 M-111.67934774801391 -13.155458651477794 C-111.33909288755238 -13.862005149513879, -110.99883802709087 -14.568551647549965, -110.7754149571225 -15.032494432827136 M-111.67934774801391 -13.155458651477794 C-111.41226069293785 -13.71007063609074, -111.14517363786177 -14.264682620703685, -110.7754149571225 -15.032494432827136 M-110.7754149571225 -15.032494432827136 C-110.49795472704156 -15.52515316723077, -110.22049449696061 -16.017811901634403, -109.75307729767374 -16.84775847009207 M-110.7754149571225 -15.032494432827136 C-110.43993078215831 -15.62818055693251, -110.10444660719412 -16.223866681037883, -109.75307729767374 -16.84775847009207 M-109.75307729767374 -16.84775847009207 C-109.45836628916685 -17.300513720145226, -109.16365528065995 -17.753268970198384, -108.61653577440106 -18.593791453970514 M-109.75307729767374 -16.84775847009207 C-109.31090125928404 -17.527059605950257, -108.86872522089433 -18.206360741808442, -108.61653577440106 -18.593791453970514 M-108.61653577440106 -18.593791453970514 C-108.24647372624995 -19.089640885146874, -107.87641167809883 -19.585490316323234, -107.37046068021098 -20.263418560408834 M-108.61653577440106 -18.593791453970514 C-108.36113199779469 -18.936009246860348, -108.10572822118831 -19.27822703975018, -107.37046068021098 -20.263418560408834 M-107.37046068021098 -20.263418560408834 C-106.86101918936942 -20.861837523593362, -106.35157769852785 -21.46025648677789, -106.01997240494777 -21.849778933492786 M-107.37046068021098 -20.263418560408834 C-106.94690457263428 -20.760951665393705, -106.52334846505757 -21.258484770378573, -106.01997240494777 -21.849778933492786 M-106.01997240494777 -21.849778933492786 C-105.50691618424794 -22.379551604064453, -104.99385996354812 -22.90932427463612, -104.57062039461333 -23.346353878176128 M-106.01997240494777 -21.849778933492786 C-105.66346687450425 -22.21790016332411, -105.30696134406072 -22.586021393155434, -104.57062039461333 -23.346353878176128 M-104.57062039461333 -23.346353878176128 C-103.95641621411929 -23.904157863948726, -103.34221203362524 -24.461961849721327, -103.02836034750315 -24.74699364699685 M-104.57062039461333 -23.346353878176128 C-104.26171918840804 -23.626889780573734, -103.95281798220275 -23.907425682971336, -103.02836034750315 -24.74699364699685 M-103.02836034750315 -24.74699364699685 C-102.46033827610822 -25.199976133232173, -101.89231620471328 -25.652958619467498, -101.39952974096454 -26.045942710708584 M-103.02836034750315 -24.74699364699685 C-102.62628674971766 -25.067636641602984, -102.22421315193218 -25.38827963620912, -101.39952974096454 -26.045942710708584 M-101.39952974096454 -26.045942710708584 C-101.00209642181234 -26.32317498953806, -100.60466310266014 -26.600407268367537, -99.69082178934285 -27.237863408984808 M-101.39952974096454 -26.045942710708584 C-100.80711401292402 -26.459186277326108, -100.2146982848835 -26.87242984394363, -99.69082178934285 -27.237863408984808 M-99.69082178934285 -27.237863408984808 C-99.22213404921695 -27.521984671364013, -98.75344630909106 -27.80610593374322, -97.90925794012799 -28.317857884010152 M-99.69082178934285 -27.237863408984808 C-99.10687113207612 -27.59185772909487, -98.52292047480941 -27.94585204920493, -97.90925794012799 -28.317857884010152 M-97.90925794012799 -28.317857884010152 C-97.51591228280282 -28.523066061486777, -97.12256662547765 -28.7282742389634, -96.06215902132065 -29.28148820682862 M-97.90925794012799 -28.317857884010152 C-97.52949774702674 -28.51597853350306, -97.1497375539255 -28.714099182995962, -96.06215902132065 -29.28148820682862 M-96.06215902132065 -29.28148820682862 C-95.35038463248274 -29.596569614730093, -94.63861024364485 -29.91165102263157, -94.15711515857967 -30.1247946137457 M-96.06215902132065 -29.28148820682862 C-95.4829856860429 -29.537871061789517, -94.90381235076512 -29.794253916750417, -94.15711515857967 -30.1247946137457 M-94.15711515857967 -30.1247946137457 C-93.44891595796278 -30.38541846609436, -92.74071675734591 -30.646042318443023, -92.2019545857677 -30.844311777846723 M-94.15711515857967 -30.1247946137457 C-93.71718423854242 -30.28669325899625, -93.27725331850517 -30.448591904246808, -92.2019545857677 -30.844311777846723 M-92.2019545857677 -30.844311777846723 C-91.64951340270078 -31.008273421158037, -91.09707221963387 -31.172235064469355, -90.20471147705902 -31.437083048768447 M-92.2019545857677 -30.844311777846723 C-91.57178027350405 -31.031344205874106, -90.94160596124041 -31.21837663390149, -90.20471147705902 -31.437083048768447 M-90.20471147705902 -31.437083048768447 C-89.63255541736842 -31.567673935725608, -89.06039935767782 -31.69826482268277, -88.17359293279462 -31.90067260220962 M-90.20471147705902 -31.437083048768447 C-89.58655947574876 -31.578172209248727, -88.9684074744385 -31.719261369729008, -88.17359293279462 -31.90067260220962 M-88.17359293279462 -31.90067260220962 C-87.37193109842907 -32.03027907060947, -86.57026926406351 -32.159885539009316, -86.11694525474647 -32.2331754492555 M-88.17359293279462 -31.90067260220962 C-87.74496114976034 -31.96997046480148, -87.31632936672607 -32.039268327393344, -86.11694525474647 -32.2331754492555 M-86.11694525474647 -32.2331754492555 C-85.54023373257762 -32.28881011620204, -84.96352221040877 -32.34444478314859, -84.04321964937317 -32.43322526438593 M-86.11694525474647 -32.2331754492555 C-85.42020870546729 -32.30038878621616, -84.72347215618812 -32.36760212317683, -84.04321964937317 -32.43322526438593 M-84.04321964937317 -32.43322526438593 C-83.30132084293064 -32.45701651509012, -82.55942203648809 -32.48080776579431, -81.96093750000001 -32.5 M-84.04321964937317 -32.43322526438593 C-83.35760009712855 -32.45521174894892, -82.67198054488395 -32.4771982335119, -81.96093750000001 -32.5 M-81.96093750000001 -32.5 C-81.96093750000001 -32.5, -81.9609375 -32.5, -81.9609375 -32.5 M-81.96093750000001 -32.5 C-81.96093750000001 -32.5, -81.96093750000001 -32.5, -81.9609375 -32.5" stroke="#d62a00" stroke-width="2.5" fill="none" stroke-dasharray="0 0" style="fill:#f53003;stroke:#d62a00;stroke-width:2.5px"/></g><g class="label" style="color:#ffffff" transform="translate(0, -25)"><rect/><g><rect class="background" style="stroke: none"/><text y="-10.1" style="fill:#ffffff"><tspan class="text-outer-tspan row" x="0" y="-0.1em" dy="1.1em"><tspan font-style="normal" class="text-inner-tspan" font-weight="normal">Harbour</tspan><tspan font-style="normal" class="text-inner-tspan" font-weight="normal"> isolation</tspan></tspan><tspan class="text-outer-tspan row" x="0" y="1em" dy="1.1em"><tspan font-style="normal" class="text-inner-tspan" font-weight="normal">databases</tspan><tspan font-style="normal" class="text-inner-tspan" font-weight="normal"> ·</tspan><tspan font-style="normal" class="text-inner-tspan" font-weight="normal"> prefixes</tspan><tspan font-style="normal" class="text-inner-tspan" font-weight="normal"> ·</tspan><tspan font-style="normal" class="text-inner-tspan" font-weight="normal"> queues</tspan></tspan><tspan class="text-outer-tspan row" x="0" y="2.1em" dy="1.1em"><tspan font-style="normal" class="text-inner-tspan" font-weight="normal">·</tspan><tspan font-style="normal" class="text-inner-tspan" font-weight="normal"> sessions</tspan><tspan font-style="normal" class="text-inner-tspan" font-weight="normal"> ·</tspan><tspan font-style="normal" class="text-inner-tspan" font-weight="normal"> ports</tspan></tspan></text></g></g></g><g class="node default workspace" id="my-svg-flowchart-HA-10" data-look="classic" transform="translate(1053.7039031982422, 103.25)"><rect class="basic label-container" style="fill:#ffffff;stroke:#f53003;stroke-width:2px" rx="5" ry="5" x="-78.875" y="-31.75" width="157.75" height="63.5"/><g class="label" style="color:#1b1b18" transform="translate(0, -16.75)"><rect/><g><rect class="background" style="stroke: none"/><text y="-10.1" style="fill:#1b1b18"><tspan class="text-outer-tspan row" x="0" y="-0.1em" dy="1.1em"><tspan font-style="normal" class="text-inner-tspan" font-weight="normal">worktree-a</tspan></tspan><tspan class="text-outer-tspan row" x="0" y="1em" dy="1.1em"><tspan font-style="normal" class="text-inner-tspan" font-weight="normal">native</tspan><tspan font-style="normal" class="text-inner-tspan" font-weight="normal"> PHP</tspan><tspan font-style="normal" class="text-inner-tspan" font-weight="normal"> +</tspan><tspan font-style="normal" class="text-inner-tspan" font-weight="normal"> Node</tspan></tspan></text></g></g></g><g class="node default workspace" id="my-svg-flowchart-HB-12" data-look="classic" transform="translate(1053.7039031982422, 208.75)"><rect class="basic label-container" style="fill:#ffffff;stroke:#f53003;stroke-width:2px" rx="5" ry="5" x="-78.875" y="-31.75" width="157.75" height="63.5"/><g class="label" style="color:#1b1b18" transform="translate(0, -16.75)"><rect/><g><rect class="background" style="stroke: none"/><text y="-10.1" style="fill:#1b1b18"><tspan class="text-outer-tspan row" x="0" y="-0.1em" dy="1.1em"><tspan font-style="normal" class="text-inner-tspan" font-weight="normal">worktree-b</tspan></tspan><tspan class="text-outer-tspan row" x="0" y="1em" dy="1.1em"><tspan font-style="normal" class="text-inner-tspan" font-weight="normal">native</tspan><tspan font-style="normal" class="text-inner-tspan" font-weight="normal"> PHP</tspan><tspan font-style="normal" class="text-inner-tspan" font-weight="normal"> +</tspan><tspan font-style="normal" class="text-inner-tspan" font-weight="normal"> Node</tspan></tspan></text></g></g></g><g class="node default workspace" id="my-svg-flowchart-HC-14" data-look="classic" transform="translate(1053.7039031982422, 314.25)"><rect class="basic label-container" style="fill:#ffffff;stroke:#f53003;stroke-width:2px" rx="5" ry="5" x="-78.875" y="-31.75" width="157.75" height="63.5"/><g class="label" style="color:#1b1b18" transform="translate(0, -16.75)"><rect/><g><rect class="background" style="stroke: none"/><text y="-10.1" style="fill:#1b1b18"><tspan class="text-outer-tspan row" x="0" y="-0.1em" dy="1.1em"><tspan font-style="normal" class="text-inner-tspan" font-weight="normal">worktree-c</tspan></tspan><tspan class="text-outer-tspan row" x="0" y="1em" dy="1.1em"><tspan font-style="normal" class="text-inner-tspan" font-weight="normal">native</tspan><tspan font-style="normal" class="text-inner-tspan" font-weight="normal"> PHP</tspan><tspan font-style="normal" class="text-inner-tspan" font-weight="normal"> +</tspan><tspan font-style="normal" class="text-inner-tspan" font-weight="normal"> Node</tspan></tspan></text></g></g></g></g></g><marker id="my-svg_flowchart-v2-pointEnd__a8a8a4" class="marker flowchart-v2" viewBox="0 0 10 10" refX="5" refY="5" markerUnits="userSpaceOnUse" markerWidth="8" markerHeight="8" orient="auto"><path d="M 0 0 L 10 5 L 0 10 z" class="arrowMarkerPath" style="stroke-width: 1; stroke-dasharray: 1, 0;" stroke="#a8a8a4" fill="#a8a8a4"/></marker><marker id="my-svg_flowchart-v2-pointEnd__f53003" class="marker flowchart-v2" viewBox="0 0 10 10" refX="5" refY="5" markerUnits="userSpaceOnUse" markerWidth="8" markerHeight="8" orient="auto"><path d="M 0 0 L 10 5 L 0 10 z" class="arrowMarkerPath" style="stroke-width: 1; stroke-dasharray: 1, 0;" stroke="#f53003" fill="#f53003"/></marker></g><defs><filter id="my-svg-drop-shadow" height="130%" width="130%"><feDropShadow dx="4" dy="4" stdDeviation="0" flood-opacity="0.06" flood-color="#000000"/></filter></defs><defs><filter id="my-svg-drop-shadow-small" height="150%" width="150%"><feDropShadow dx="2" dy="2" stdDeviation="0" flood-opacity="0.06" flood-color="#000000"/></filter></defs><linearGradient id="my-svg-gradient" gradientUnits="objectBoundingBox" x1="0%" y1="0%" x2="100%" y2="0%"><stop offset="0%" stop-color="#f53003" stop-opacity="1"/><stop offset="100%" stop-color="hsl(0, 0%, 90%)" stop-opacity="1"/></linearGradient>
<style id="harbour-adaptive-theme">
    #my-svg {
        color-scheme: light dark;
        background-color: transparent !important;
    }

    #my-svg .cluster > rect {
        rx: 10px;
        ry: 10px;
    }

    @media (prefers-color-scheme: dark) {
        #my-svg .cluster[id$="-without"] > rect {
            fill: #1b1b18 !important;
            stroke: #4a4a45 !important;
        }

        #my-svg .cluster[id$="-with"] > rect {
            fill: #271714 !important;
            stroke: #ff4438 !important;
        }

        #my-svg .cluster[id$="-without"] .cluster-label text {
            fill: #c7c7c1 !important;
        }

        #my-svg .cluster[id$="-with"] .cluster-label text {
            fill: #ff6b62 !important;
        }

        #my-svg .node.muted rect,
        #my-svg .node.stack rect,
        #my-svg .node.adapter rect,
        #my-svg .node.neutral rect {
            fill: #242422 !important;
            stroke: #5b5b56 !important;
        }

        #my-svg .node.muted text,
        #my-svg .node.muted tspan,
        #my-svg .node.stack text,
        #my-svg .node.stack tspan,
        #my-svg .node.adapter text,
        #my-svg .node.adapter tspan,
        #my-svg .node.neutral text,
        #my-svg .node.neutral tspan {
            fill: #d6d6d1 !important;
        }

        #my-svg .node.shared rect,
        #my-svg .node.entry rect,
        #my-svg .node.failure rect {
            fill: #30302d !important;
            stroke: #73736d !important;
        }

        #my-svg .node.shared text,
        #my-svg .node.shared tspan,
        #my-svg .node.entry text,
        #my-svg .node.entry tspan,
        #my-svg .node.failure text,
        #my-svg .node.failure tspan {
            fill: #ffffff !important;
        }

        #my-svg .node.workspace rect,
        #my-svg .node.domain rect,
        #my-svg .node.active rect {
            fill: #321815 !important;
            stroke: #ff4438 !important;
        }

        #my-svg .node.workspace text,
        #my-svg .node.workspace tspan,
        #my-svg .node.domain text,
        #my-svg .node.domain tspan,
        #my-svg .node.active text,
        #my-svg .node.active tspan {
            fill: #f5f5f3 !important;
        }

        #my-svg .node.harbour rect,
        #my-svg .node.manager rect,
        #my-svg .node.ready rect {
            fill: #f53003 !important;
            stroke: #ff6b62 !important;
        }

        #my-svg .node.harbour text,
        #my-svg .node.harbour tspan,
        #my-svg .node.manager text,
        #my-svg .node.manager tspan,
        #my-svg .node.ready text,
        #my-svg .node.ready tspan {
            fill: #ffffff !important;
        }

        #my-svg .edgeLabel rect,
        #my-svg .labelBkg {
            fill: #161615 !important;
            opacity: 0.96 !important;
        }

        #my-svg .edgeLabel text,
        #my-svg .edgeLabel tspan {
            fill: #e8e8e5 !important;
        }
    }
</style>
</svg>